<?xml version="1.0" encoding="UTF-8"?>
<svg id="Layer_1" xmlns="http://www.w3.org/2000/svg" xmlns:xlink="http://www.w3.org/1999/xlink" version="1.1" viewBox="0 0 373.6 393">
  <!-- Generator: Adobe Illustrator 29.1.0, SVG Export Plug-In . SVG Version: 2.1.0 Build 142)  -->
  <defs>
    <style>
      .st0 {
        fill: url(#linear-gradient);
        stroke: #fff;
        stroke-miterlimit: 10;
        stroke-width: 7px;
      }
    </style>
    <linearGradient id="linear-gradient" x1="72.6" y1="326" x2="351.3" y2="18" gradientUnits="userSpaceOnUse">
      <stop offset="0" stop-color="#903"/>
      <stop offset=".4" stop-color="#ba0b2d"/>
      <stop offset="1" stop-color="#fff"/>
    </linearGradient>
  </defs>
  <path class="st0" d="M360.1,218l-24.1-13.4,22.2-47.1c1.1-2.2.7-4.8-.9-6.7s-4.2-2.7-6.5-2l-47.5,13.4-8.7-27.3c-.6-1.9-2.1-3.5-4.2-4.1-1.9-.6-4.1-.3-5.7,1l-42.2,32.6,18.5-94.5c.4-2.3-.4-4.6-2.2-6.1-1.8-1.4-4.3-1.8-6.4-.9l-32,13.4-31.4-61.4c-2.1-4.2-9.1-4.2-11.2,0l-31.4,61.4-32-13.4c-2.1-.9-4.6-.6-6.4.9-1.8,1.4-2.7,3.8-2.2,6.1l18.5,94.5-42.2-32.6c-1.6-1.3-3.8-1.6-5.7-1-2,.6-3.5,2.1-4.2,4.1l-8.7,27.3-47.5-13.4c-2.4-.7-4.9.1-6.5,2s-1.9,4.5-.9,6.7l22.2,47.1-24.1,13.4c-1.9,1.1-3.2,3-3.2,5.2s.9,4.3,2.8,5.5l91.4,61.3-19.8,35.6c-1.2,2.1-1,4.8.4,6.7s3.9,3,6.3,2.5l89.5-18.4v52.5c0,3.5,5.8,7.3,9.3,7.3s9.3-3.8,9.3-7.3v-52.5l89.5,18.4c.4,0,.8.1,1.3.1,2,0,3.9-.9,5.1-2.6,1.4-1.9,1.6-4.6.4-6.7l-19.8-35.6,91.4-61.3c1.8-1.2,2.9-3.3,2.8-5.5s-1.3-4.2-3.2-5.2h-.2,0Z"/>
  <path d="M786,223.9h18.5v-.7c-.1-2.2-1.3-4.2-3.2-5.2h-.2l-24.1-13.4,22.2-47.1c1.1-2.2.7-4.8-.9-6.7s-4.2-2.7-6.5-2l-47.5,13.4-8.7-27.3c-.6-1.9-2.1-3.5-4.2-4.1-1.9-.6-4.1-.3-5.7,1l-42.2,32.6,18.5-94.5c.4-2.3-.4-4.6-2.2-6.1-1.8-1.4-4.3-1.8-6.4-.9l-32,13.4-31.4-61.4c-2.1-4.2-9.1-4.2-11.2,0l-31.4,61.4-32-13.4c-2.1-.9-4.6-.6-6.4.9-1.8,1.4-2.7,3.8-2.2,6.1l18.5,94.5-42.2-32.6c-1.6-1.3-3.8-1.6-5.7-1-2,.6-3.5,2.1-4.2,4.1l-8.7,27.3-47.5-13.4c-2.4-.7-4.9.1-6.5,2s-1.9,4.5-.9,6.7l22.2,47.1-24.1,13.4c-1.9,1.1-3.2,3-3.2,5.2v.7h341.5Z"/>
</svg>