<?xml version="1.0" encoding="UTF-8"?>
<svg id="Layer_1" xmlns="http://www.w3.org/2000/svg" version="1.1" viewBox="0 0 285.9 226">
  <!-- Generator: Adobe Illustrator 29.1.0, SVG Export Plug-In . SVG Version: 2.1.0 Build 142)  -->
  <defs>
    <style>
      .st0 {
        fill: #ff9797;
      }

      .st1 {
        fill: #ff4242;
      }

      .st2 {
        fill: #ff3131;
      }

      .st3 {
        fill: #ff9696;
      }

      .st4 {
        fill: #ff9e9e;
      }

      .st5 {
        fill: #fb0101;
      }

      .st6 {
        fill: #df0707;
      }

      .st7 {
        fill: #ff2525;
      }

      .st8 {
        fill: #d70d0d;
      }

      .st9 {
        fill: #ff1c1c;
      }

      .st10 {
        fill: #f00101;
      }

      .st11 {
        fill: #b40000;
      }

      .st12 {
        fill: #ff5959;
      }

      .st13 {
        fill: #ff7171;
      }

      .st14 {
        fill: #e46e6e;
      }

      .st15 {
        fill: #ff8080;
      }

      .st16 {
        fill: #ff3b3b;
      }

      .st17 {
        fill: #f77;
      }

      .st18 {
        fill: #ff6565;
      }

      .st19 {
        fill: #ff6b6b;
      }

      .st20 {
        fill: #bb0101;
      }

      .st21 {
        fill: #ff0808;
      }

      .st22 {
        fill: #ff3e3e;
      }

      .st23 {
        fill: #c20101;
      }

      .st24 {
        fill: #ff9090;
      }

      .st25 {
        fill: #e20000;
      }

      .st26 {
        fill: #e80000;
      }

      .st27 {
        fill: #ff5f5f;
      }

      .st28 {
        fill: #ff8181;
      }

      .st29 {
        fill: #cc0202;
      }

      .st30 {
        fill: #d00;
      }

      .st31 {
        fill: #d60303;
      }

      .st32 {
        fill: #9e0303;
      }

      .st33 {
        fill: #e63636;
      }

      .st34 {
        fill: #ff4e4e;
      }

      .st35 {
        fill: #ff4646;
      }

      .st36 {
        fill: #ffa0a0;
      }

      .st37 {
        fill: #ff1b1b;
      }

      .st38 {
        fill: #ff5353;
      }

      .st39 {
        fill: #f88;
      }

      .st40 {
        fill: #ff0f0f;
      }

      .st41 {
        fill: #ff1616;
      }

      .st42 {
        fill: #af0202;
      }

      .st43 {
        fill: #ff3737;
      }

      .st44 {
        fill: #ff8c8c;
      }

      .st45 {
        fill: #a70202;
      }
    </style>
  </defs>
  <path class="st42" d="M151.1,216.4c0,3.2,0,6.4-.2,10.1-1.4.4-2.8.4-4.6.4-1.1-3.4-1.7-6.8-2.2-10.6,3.5-3.4.5-6.1-.8-8.1-3.6-5.3-7.5-10.6-12-15.2-7.5-7.8-15.5-15-23.3-22.5-9.3-8.9-18.4-18.1-27.9-26.8-14.8-13.7-32.1-23.3-51.2-29.8-.2-.4-.3-.7-.4-1.7.2-.8.3-1.1.8-1.3,8.1,2.8,15.9,5.6,23.6,8.5,13,4.9,21.9,15.4,31.9,24.2,17.9,15.8,35.1,32.4,52.2,49.1,3.9,3.8,6.4,9.1,9.2,13.9,1.8,3.1,3.2,6.4,4.8,9.7h.1Z"/>
  <path class="st22" d="M149.6,1c1.1,2,1.8,4.1,2.3,6.8-1,11.6-2.4,22.6-2.5,33.6,0,11.5,1,23.1,1.2,34.6-.8,0-1.2,0-1.7-.3v-2c-.3-1.1-.7-1.9-1-3.1-.3-9-.9-17.6-.9-26.2s.8-20.6.8-30.9-1.3-5.9-2-8.9c.3-1,.6-2,1-3.3.8-.3,1.6-.3,2.7-.3h0Z"/>
  <path class="st32" d="M135.9,214.1c-11.4,2.1-22.7,4.3-34.1,6.4-7.8,1.4-15.7,2.8-24.3,4.3.3-1.8.4-3.1.8-4.4,1.7-5,3.2-10.2,5.5-15,2.2-4.6.8-7.3-2.8-10.2-20-16-40-32.2-59.9-48.3-1.1-.9-2.2-1.9-3.9-3.4,4.5-2.1,8.3-3.9,12.2-5.7,5.1-2.4,5.9-4.2,4.2-9.4-.8-2.5-1.7-5-2.2-7.9,1.4.7,2.2,2,3.4,2.6,7.1,3.6,14.3,7,21.4,10.6,11.8,6,22.6,13.4,31.7,22.9,13.3,13.9,26.5,27.9,39.2,42.4,3.8,4.3,5.9,10,8.8,15.1h0Z"/>
  <path class="st5" d="M222,189.1c-3,2.6-6.1,5.2-9.7,7.8-7.3-13.4-19.3-21-31.6-27.8-13.1-7.2-26.5-13.7-37.6-24-5.1-4.7-11.4-8.4-15.6-13.7-8.3-10.3-8-22.5-4.2-34.6,3.3-10.8,6.2-21.7,5.6-33.1-.3-6.7-2-13.4-3-20.1,1.3-2.3,2.6-4.6,4.4-7.3,1.5,1.2,3.2,2.5,3.5,4.1.7,4.4.7,8.8,1.3,13.2.2,1.5,1.3,2.9,1.9,4.7,0,1.1,0,1.9-.3,2.9-.8,2.3-1.6,4.3-1.6,6.4-.1,4.6.6,9.2.2,13.7-.7,7.7-2.8,15.3-3.1,23-.8,16.7,8,29,20.6,38.2,11.5,8.4,24,15.3,36.1,22.8,9.9,6.1,19.8,12.1,29.5,18.4,1.7,1.1,2.5,3.5,3.6,5.3h0Z"/>
  <path class="st10" d="M125.5,43.8c1.3,6.5,2.9,13.1,3.3,19.9.6,11.4-2.3,22.3-5.6,33.1-3.7,12.1-4,24.2,4.2,34.6,4.3,5.3,10.5,9,15.6,13.7,11.1,10.3,24.5,16.8,37.6,24,12.3,6.8,24.3,14.4,31.3,27.9.2,2.5-.5,5,0,7.1,1.8,6.1,4.1,12.1,5.9,18.5-.9.7-1.4,1-1.9,1.2-1.1-.2-2.3-.4-3.7-.9-.4-.5-.4-.7-.2-1.1-.5-3-.9-5.9-2.1-8.5-2.1-4.5-4.7-8.8-7-13.2-5.7-11.2-14.3-19.3-25.2-25.2-7.3-3.9-14.8-7.6-21.6-12.3-9.9-6.8-19.2-14.7-29-21.7-6.3-4.6-9.5-10.6-11.4-18-2.6-10.7-1.1-21,2.1-31.2,4-12.9,6.4-26,3-39.5-.5-1.9-2-3.5-3-5.4v-.7c2.4-.7,4.9-1.4,7.6-2.3h0Z"/>
  <path class="st29" d="M170.3,215.7s-.2,0-.3-.5c-1-2.1-1.7-4-2.9-5.5-6.9-8.7-13.9-17.2-20.9-25.8-1.4-1.8-2.9-3.6-4.6-5-7.7-6-15.8-11.6-23.1-18-5.7-5-10.4-11-15.7-16.5-9.9-10-19.7-20.2-30-29.8-3.9-3.6-8.8-6.2-13.7-8.6-3.8-1.9-8.1-3-12.3-3.9-7.3-1.5-14.1-6.1-22.3-4.5-.7-1.9-1.2-3.5-1.8-5.2h6.5c.4,0,.7,0,1.6.5,2.8.7,5.1,1,7.4,1.4.7,0,1.3.2,2.5.7,2.4.6,4.3.9,6.1,1.2.7,0,1.4.2,2.6.6,2.8.7,5.1,1.1,7.4,1.4.4,0,.8,0,1.6.5,1.5,0,2.6,0,3.7-.3.6-.5,1.3-1.1,2.4-1.9.7-.5,1-.7,1.5-.4,8.7,8.4,17.9,15.9,25.8,24.6,7,7.7,12.4,16.8,19,24.8,4.1,4.9,9,9.2,13.9,13.3,7.9,6.8,16.3,13.1,24.2,19.8,3,2.5,5.4,5.8,8.3,8.5,9.1,8.8,18.3,17.4,27.4,26.2.7.6.2,2.4,0,3.7-1.1.2-1.8.5-2.6.7-2.4-.3-4.8-.6-7.7-1.4-1.7-.5-2.8-.6-4-.6h0Z"/>
  <path class="st31" d="M184.9,217c0-1.3.4-3-.2-3.7-9-8.8-18.2-17.5-27.4-26.2-2.8-2.7-5.3-6-8.3-8.5-8-6.7-16.3-13-24.2-19.8-4.9-4.2-9.8-8.4-13.9-13.3-6.7-8-12-17.1-19-24.8-7.9-8.7-17-16.2-25.7-24.9,0-1.5,0-2.3,0-3.2.2-.6.4-1.2,1.1-2.2,1.8-3.7,3.2-7,4.6-10.4,2.6,2.3,5.1,4.5,7.8,7.5,2.1,2.6,4.1,4.6,6.1,6.6s3.8,3.8,5.9,6.4c.9,1.2,1.6,1.8,2.4,2.4,0,0,0,0,0,.4.7.8,1.4,1.2,2,1.7,0,0,0,0,0,.3.7.8,1.4,1.3,2,1.7,1.2,1.2,2.5,2.3,3.8,4.1,0,1.1,0,1.5,0,2.4,4.1,16.9,9.7,32,24.9,42.3,12.3,8.3,23.4,18.3,34.9,27.7,8.4,6.9,16.7,14,24.4,21.6,4,4,6.6,9.3,9.5,14.1-1.1.2-1.9.4-2.6.6-2.1-.2-4.2-.5-6.7-1.1-.8-.8-1.1-1.1-1.4-1.5v-.2Z"/>
  <path class="st23" d="M24.8,98c8-1.9,14.7,2.7,22.1,4.2,4.2.9,8.5,2,12.3,3.9,4.8,2.4,9.8,5,13.7,8.6,10.3,9.6,20.1,19.7,30,29.8,5.3,5.4,10,11.5,15.7,16.5,7.3,6.4,15.4,11.9,23.1,18,1.8,1.4,3.2,3.3,4.6,5,7,8.6,14,17.2,20.9,25.8,1.2,1.5,1.9,3.3,2.8,5.4-3.7,0-7.4-.6-11.5-1.5-4.9-8.5-9.3-16.6-14-24.6-1.2-2.1-3.2-3.8-5-5.3-7.3-6-15-11.5-21.9-17.9-13.6-12.7-26.8-25.9-40.1-38.9-2.2-2.2-4.2-4.7-6.4-6.8-7.5-7.2-17.5-9.3-26.7-12.7-5.6-2.1-11.8-2.9-17.9-4.4-.7-.9-1.3-1.5-1.8-2.2-.1-.4-.2-.8-.2-1.5.3-.6.4-.9.4-1.2v-.2Z"/>
  <path class="st26" d="M117.9,47c1,1.7,2.6,3.3,3,5.2,3.4,13.5,1,26.5-3,39.5-3.2,10.2-4.8,20.4-2.1,31.2,1.8,7.4,5,13.4,11.4,18,9.8,7.1,19.1,14.9,29,21.7,6.8,4.7,14.3,8.4,21.6,12.3,11,5.9,19.5,14.1,25.2,25.2,2.3,4.4,4.9,8.7,7,13.2,1.2,2.6,1.6,5.5,1.8,8.5-1,.5-1.4.7-1.8,1-.4,0-.9,0-1.6-.4-.7-.7-1-1.1-1.4-1.8-5.6-9.9-10.7-19.7-16.9-28.8-5.1-7.6-13.8-11.1-21.4-15.9-13.2-8.5-25.5-18.5-38.6-27.1-11.2-7.4-17.7-17.1-18.9-30.4-.3-2.9-1-5.7-1.5-8.5,0-1.1.2-2.1.6-3.8,0-2.8,0-4.9,0-7.1,1-.5,2-.9,2.2-1.5,4-15,8-29.9,3.9-45.7-.4-1.4.9-3.2,1.4-4.8h0Z"/>
  <path class="st45" d="M136.3,214.1c-3.3-5.1-5.4-10.9-9.2-15.2-12.7-14.4-25.9-28.5-39.2-42.4-9.1-9.5-19.9-16.9-31.7-22.9-7.1-3.6-14.3-7-21.4-10.6-1.2-.6-2.1-1.9-3.4-3-1.1-1.8-1.9-3.6-2.6-5.7,19.1,6.1,36.4,15.7,51.3,29.4,9.5,8.8,18.6,17.9,27.9,26.8,7.8,7.5,15.8,14.7,23.3,22.5,4.5,4.6,8.4,9.9,12,15.2,1.4,2,4.3,4.7.6,7.8-2.7-.6-5-1.2-7.6-1.9h0Z"/>
  <path class="st2" d="M145.5,4.8c1,2.7,2.3,5.7,2.3,8.6,0,10.3-.8,20.6-.8,30.9s.6,17.1.7,26.3c.2,1.5.7,2.4,1.2,3.3,0,.4,0,.9-.3,1.9-.4,1.4-.6,2.3-.7,3.5v2c.7,2.1,1.3,3.9,2,6.1,0,1.5,0,2.5-.2,3.8.3.7.7,1.3,1.2,2.2,0,1.5,0,2.5-.2,3.8.3.7.7,1.3,1.2,2.2,0,.8,0,1.2-.2,1.8.3.7.7,1.3,1.2,1.8v.3c0,.8,0,1.2-.3,1.9,1.5,10.2,8.2,17.3,14,24.9.4.5,1.5.6,2.5,1,1.4,1,2.6,2,3.7,3.2,3,2.8,6,5.2,9,7.7v.3c1,1.1,2,1.9,3.3,2.8,1.4.4,2.6.6,3.8,1.1.7.4,1.3.6,1.8,1v1.1c.7.8,1.3,1.2,2.2,1.8.8.7,1.2,1.3,1.8,2.2,1,.8,2,1.2,3.3,1.7.8,0,1.2,0,1.8.2.3.5.6.7,1,1.1,2,1.1,4,1.9,6.1,2.9,1.1.4,1.9.6,2.9,1.1,1.5,1.1,2.8,2.1,4.3,2.6,10.3,2.8,20.7,5.5,31,8.2-1.9,1.6-3.8,3.3-6,4.5-1.8-1.5-3-3.2-4.6-3.6-11.5-3.1-23.5-5.1-33.7-11.7-10.7-6.9-20.6-14.9-31.3-21.8-11.8-7.7-19-18.7-21-31.9-2.7-18.1-3.5-36.5-4.6-54.9-.6-10.5,0-21.2-.3-31.7,0-1.4-2.1-2.7-3.2-4.1,1.5-3.3,3.1-6.6,4.9-10.1h.2Z"/>
  <path class="st30" d="M195.9,219c-3.2-4.7-5.8-10.1-9.8-14.1-7.7-7.6-16-14.7-24.4-21.6-11.4-9.5-22.6-19.5-34.9-27.7-15.2-10.3-20.9-25.4-24.6-42.3.7-.7,1.2-1,1.7-1.3,1.1,0,2.1-.3,3.6,0,.8,4.2.9,8.1,1.7,11.8,2.1,10.4,6.7,19.3,16.1,25.2,5.2,3.3,10.1,6.9,15,10.6,9.4,7,18,15.4,28.2,21.1,14.8,8.2,23.5,21.2,32.1,34.6,1,1.5.9,3.8,1.3,5.7-1.4,0-2.7-.2-4.5-.6l-1.5-1.5h0Z"/>
  <path class="st7" d="M140.4,15.1c1.4,1.1,3.4,2.5,3.4,3.9.3,10.6-.3,21.2.3,31.7,1.1,18.3,1.9,36.8,4.6,54.9,2,13.2,9.2,24.3,21,31.9,10.7,6.9,20.6,15,31.3,21.8,10.2,6.6,22.2,8.6,33.7,11.7,1.6.4,2.9,2.1,4.3,3.6-.4.7-.8,1-1.8,1.3-10.5-3.5-20.4-6.7-30.1-10.4-17-6.5-30-19.4-45-29-3.2-2.1-6.3-5-8.4-8.2-7.3-11.1-10.2-23.5-9.8-36.8,0-1.8-1.2-3.6-1.9-5.6v-2.2c-.3-5.2-.7-9.8-1-14.9,0-1.8,0-3.2.4-4.6.4-1.7.5-3.3.6-5.4-.3-12.1-.6-23.7-1.1-35.3,0-1.5-1.5-3-2.3-4.4.5-1.2,1.1-2.3,1.9-3.7v-.3Z"/>
  <path class="st25" d="M202.1,221.3c-.6-2.1-.6-4.3-1.6-5.9-8.6-13.4-17.3-26.4-32.1-34.6-10.2-5.6-18.8-14-28.2-21.1-4.9-3.7-9.9-7.3-15-10.6-9.4-5.9-14-14.8-16.1-25.2-.7-3.7-.9-7.6-1.3-11.8.4-1,.8-1.6,1.5-2.2.8,2.8,1.5,5.6,1.8,8.4,1.2,13.4,7.7,23.1,18.9,30.4,13.1,8.6,25.4,18.6,38.6,27.1,7.5,4.9,16.2,8.3,21.4,15.9,6.2,9.1,11.3,18.9,16.6,28.8-1.1.6-1.8.8-2.6,1-.6,0-1.1-.1-1.9-.3h0Z"/>
  <path class="st8" d="M106.2,85.9c-1.6-7.3-3.2-14.5-4.7-21.8-1.8-8.8-3.4-17.6-4.6-26.6,2.1,1.4,4,2.9,5.6,4.6,9,9.3,9.2,20.9,7.9,32.6-.5,3.8-2.7,7.5-4.2,11.2Z"/>
  <path class="st25" d="M117.9,46.8c-.5,1.8-1.8,3.6-1.4,5,4,15.7,0,30.7-3.9,45.7-.2.6-1.2,1-2.4,1.5h-1.5c-.2-.8-.4-1.5-.3-2.9.4-2.1.5-3.6.9-5.3,4.5-10.5,5.7-21.1,4.1-32-.9-5.6-2.2-11.2-3.3-16.8,2.5,1.2,5,2.5,7.7,3.9.3.3.2.7.2.9h0Z"/>
  <path class="st6" d="M109.8,41.6c1.2,5.9,2.6,11.5,3.5,17.1,1.7,10.9.4,21.6-4.3,31.9-1.1-.5-1.7-1.1-2.3-1.7-.2-.8-.4-1.5-.5-2.7,1.5-4.1,3.8-7.7,4.2-11.6,1.4-11.7,1.1-23.3-7.9-32.6-1.6-1.7-3.5-3.2-5.5-5-.5-.6-.7-1-.5-1.8,1.1-.4,1.8-.4,2.5-.4v.4c1.1.8,2.1,1.2,3.1,1.6,2.5,1.5,5,2.9,7.7,4.7h0Z"/>
  <path class="st37" d="M138.2,19c1.1,1.3,2.5,2.7,2.6,4.2.5,11.6.8,23.2.9,35.5-.4,1.2-.6,1.7-1,2.3-.2,0-.7,0-.8-.4-.4-2.9-.5-5.3-1-7.7-.3-1.4-1.3-2.6-1.9-4.2,0-.8,0-1.2.4-1.7.3-5.8.4-11.6.1-17.3,0-.6-2.4-1.1-3.7-1.7,1.4-2.9,2.8-5.8,4.5-8.9h-.1Z"/>
  <path class="st21" d="M137,47v11c-.7-1.4-1.7-2.8-1.9-4.3-.6-4.4-.6-8.9-1.3-13.2-.3-1.6-1.9-3-3.4-4.4.2-1.6.9-3.2,2.1-4.9,1.6,2.7,2.7,5.5,3.4,8.4.6,2.4.7,5,1.1,7.5h0Z"/>
  <path class="st40" d="M137.3,46.9c-.7-2.4-.8-5-1.4-7.4-.7-2.9-1.8-5.6-3.1-8.6,0-1,.2-1.8.7-2.8,1.5.4,3.9.9,3.9,1.5.3,5.7.2,11.5-.1,17.3h0Z"/>
  <path class="st14" d="M24.6,97.7c.1.6,0,.9-.3,1.2-1.4-2.5-2.5-5-3.7-7.6.3-.4.6-.8,1-1.2,2.4.6,4.9,1.2,7.5,2.1-1.7.3-3.6.3-6.3.3.6,1.7,1.1,3.3,1.8,5.2Z"/>
  <path class="st14" d="M24.4,101.1c.7.3,1.2,1,2,2.2.5,1.6.8,2.7,1.2,4.2.5,1.4,1,2.5,1.4,3.5,0,.2-.1.5-.4,1-1.5-3.3-2.9-6.9-4.1-10.9h-.1Z"/>
  <path class="st14" d="M71.6,80c-1,3.3-2.4,6.6-4,10.1,1-3.3,2.4-6.7,4-10.1Z"/>
  <path class="st8" d="M85.8,93.7c-1.9-1.6-3.9-3.6-6-5.9,1.9,1.6,3.9,3.6,6,5.9Z"/>
  <path class="st14" d="M56.7,98c-2.1,0-4.4-.4-6.8-1.1,2.1,0,4.3.4,6.8,1.1Z"/>
  <path class="st14" d="M38.1,94.1c-2.1,0-4.4-.4-7-1.1,2.1,0,4.4.4,7,1.1Z"/>
  <path class="st8" d="M106.6,89.3c.7.2,1.3.8,2.2,1.5,0,1.6,0,3.1-.3,4.8-.8-1.8-1.4-3.9-1.8-6.3h0Z"/>
  <path class="st8" d="M108.5,99.3c.4-.4.7-.4,1.2-.3.4,2.2.7,4.3.6,6.7-.8-1.8-1.4-3.9-1.9-6.4h.1Z"/>
  <path class="st14" d="M46.7,96c-1.7,0-3.6-.3-5.6-.8,1.7,0,3.6.3,5.6.8Z"/>
  <path class="st14" d="M66,92.8c.2.7.2,1.5,0,2.7-.4.4-.7.6-1.2.8.2-1.1.6-2.2,1.2-3.5Z"/>
  <path class="st14" d="M61.7,98.3c-.6.3-1.7.6-2.9.5.8-.4,1.6-.5,2.9-.5Z"/>
  <path class="st8" d="M102,36.6c-.9,0-1.9-.6-3-1.4.9,0,1.9.6,3,1.4Z"/>
  <path class="st8" d="M98.9,34.7c-.6.3-1.3.3-2.3.4.5-.2,1.4-.4,2.3-.4Z"/>
  <path class="st8" d="M94.1,102.5c-.7-.3-1.4-.9-2.2-1.8.7.3,1.4.9,2.2,1.8Z"/>
  <path class="st8" d="M98,106.6c-.6-.2-1.3-.7-1.9-1.5.6.2,1.3.7,1.9,1.5Z"/>
  <path class="st8" d="M103.7,111.9c-.3.5-.7.8-1.5,1.1-.3-.4-.3-.9-.3-1.6.5,0,1.1,0,1.8.6h0Z"/>
  <path class="st8" d="M96.1,104.6c-.6-.2-1.3-.6-2-1.5.6,0,1.3.7,2,1.5Z"/>
  <path class="st4" d="M216.8,88c2.2-2.4,4.4-4.8,7.2-7.8,2.4,5.2,4.8,9.6,6.4,14.2,1.6,4.5,4.6,5.4,8.6,4.6,10-2.1,20-4.3,30-6.4,1.4-.3,2.8-.4,5.6-.8-3.1,8.8-5.9,16.6-9.2,24.2-2.4,0-4.4,0-6.1.5-7.8,2.9-15.8,3.6-23.9,1.6-8.2-2-12.3-7.2-12.4-15.7v-14.4h-6.2Z"/>
  <path class="st0" d="M216.5,88.1c2.1,0,3.9,0,6.4,0v14.4c0,8.5,4.1,13.8,12.4,15.7,8.1,2,16.1,1.3,23.9-1.6,1.7-.6,3.7-.5,5.8-.3-.7,4-1.6,7.7-3.1,11.4-2.4-.5-4.2-1.4-6-1.4-4.5,0-8.9.9-13.3.8-8.7,0-16.6-2.3-22.6-9.4-4.9-5.7-10.1-11.2-15.1-16.8,3.8-4.2,7.6-8.3,11.7-12.6h0Z"/>
  <path class="st20" d="M27.4,107.1c-.3-1.1-.5-2.2-.8-3.7,5.9,1,12,1.8,17.6,3.9,9.2,3.4,19.3,5.5,26.7,12.7,2.2,2.2,4.2,4.7,6.4,6.8,13.3,13,26.4,26.2,40.1,38.9,6.9,6.4,14.6,11.9,21.9,17.9,1.9,1.6,3.8,3.3,5,5.3,4.7,8,9.1,16.1,13.6,24.5-1.4.8-2.8,1.3-4.5,1.4-1.2-2.3-1.9-4.3-2.7-6.3-3.6-8.4-7.4-16.5-14.4-23-11.4-10.4-24.1-19.1-34.4-30.8-9.8-11.2-21.6-20.7-32.5-30.9-1-.9-2-1.7-3.2-2.3-7.3-3.5-14.5-7.4-22.1-10.3-5.3-2.1-11.1-2.8-16.7-4.2h0Z"/>
  <path class="st11" d="M27.6,107.5c5.5,1,11.3,1.8,16.6,3.9,7.6,2.9,14.7,6.8,22.1,10.3,1.2.6,2.3,1.4,3.2,2.3,10.9,10.2,22.7,19.7,32.5,30.9,10.3,11.7,23.1,20.4,34.4,30.8,7,6.4,10.8,14.6,14.4,23,.8,2,1.5,4,2.3,6.4-.4.7-.9,1.1-1.6,1.4-1.9-3.2-3.3-6.6-5.1-9.7-2.9-4.8-5.3-10.1-9.2-13.9-17.1-16.7-34.3-33.3-52.2-49.1-10-8.8-18.9-19.3-31.9-24.2-7.7-2.9-15.5-5.7-23.6-8.5-.8-1.1-1.3-2.1-1.8-3.5h0Z"/>
  <path class="st17" d="M185.9,105c.5,2.1,1.1,4.1,1.8,6.9.6,1.7.7,3.1,1.4,3.8,4.1,4,8.2,8,12.6,11.7,8.8,7.4,18.6,12.7,30.2,13.8,10.5,1,21,1.8,31.5,2.3,2.4.1,4.9-1.7,7.4-2.6,1.2.5,2.4.9,3.9,1.9.5,1.1.8,1.7,1.1,2.3-1.4,1.3-2.9,2.6-4.7,3.5-1.1-1.1-1.7-2.4-2.5-2.4-4.1-.2-8.2.1-12.2-.2-10.5-.9-21.3-.9-31.5-3.2-15.3-3.5-29.2-10.6-37.5-24.9-4.2-7.3-7.1-15.4-11.2-22.8-8.5-15.2-11.4-31.4-10.3-48.5.1-1.9,1.9-3.7,2.9-5.5,1.3,1.8,2.7,3.5,3.8,5.6-1.1,1.8-2.6,3.3-2.7,4.8-1,15.5,3.1,29.9,9.9,43.6,1.4,2.8,3.3,5.4,5,8.4.3.8.7,1.2,1,1.7v-.2Z"/>
  <path class="st24" d="M204.5,100.9c5.3,5.4,10.5,10.9,15.4,16.6,6,7,13.9,9.2,22.6,9.4,4.4,0,8.9-.7,13.3-.8,1.8,0,3.6.9,5.7,1.6-.3,2-.9,3.7-1.9,5.8-8.5,0-16.7.1-24.7-.7-9-.9-15.7-6.4-22.1-12.3-5-4.5-9.7-9.6-16.9-10.5,2.7-3,5.5-5.9,8.5-9.1h0Z"/>
  <path class="st40" d="M140.9,69c.3,4.7.7,9.4.6,14.6-1.1,1.5-2.5,2.6-2.5,3.7-.4,12.6-.8,25.2,5,37,5.9,12,15.9,19,27.9,23.8v.3c1.7,1.1,3.3,1.9,4.9,2.7v.3c1,.8,2,1.2,2.9,1.7v.3c1,.8,2,1.2,3.3,1.8,8.8,7.1,19,11.1,28.7,16.2,2,1.5,3.9,2.7,5.8,3.7,4.4,2.2,8.9,4.4,13.4,6.5-1.6,1.4-3.1,2.8-5,3.9-.9-5.1-5.5-4.2-8.3-5.9-20.8-12.7-42-24.6-62.3-38-12.9-8.6-19.9-21.7-19.6-37.7.2-11.1,1.3-22.1,2-33.2,0-.6.6-1.1,1.2-1.7h2Z"/>
  <path class="st21" d="M138.9,69c-.3.6-.9,1.1-.9,1.7-.7,11.1-1.8,22.1-2,33.2-.3,15.9,6.7,29.1,19.6,37.7,20.3,13.4,41.5,25.4,62.3,38,2.7,1.7,7.4.8,8,6-1.1,1.4-2.2,2.4-3.6,3.5-1.5-1.7-2.3-4.2-4-5.2-9.7-6.3-19.7-12.3-29.5-18.4-12.1-7.5-24.6-14.4-36.1-22.8-12.6-9.2-21.4-21.6-20.6-38.2.4-7.7,2.4-15.3,3.1-23,.4-4.5-.3-9.2-.2-13.7,0-2.1.9-4.1,1.9-6.4.7-.2.9-.2,1.1.2.3,2.8.7,5.2,1,7.6v-.2Z"/>
  <path class="st13" d="M168.9,40.7c-1,2.2-2.7,4-2.9,5.9-1.1,17.1,1.8,33.3,10.3,48.5,4.1,7.4,7,15.5,11.2,22.8,8.3,14.3,22.2,21.4,37.5,24.9,10.2,2.4,21,2.4,31.5,3.2,4.1.3,8.2,0,12.2.2.7,0,1.4,1.3,2.1,2.4-1.1,1.5-2.1,2.6-3.6,3.4-1.9-1.2-3.3-2.6-4.9-2.8-5.1-.6-10.2-.7-15.3-1.2-7.4-.8-14.9-1.2-22-2.9-14.7-3.4-28.5-8.9-37.4-22.3-.3-.5-1.1-.5-1.8-1.1-1-2.4-2-4.5-3-7-2.5-5.4-4.6-10.7-7.6-15.5-10.3-16.6-13-34.9-12.1-53.9.1-2.9-1.5-7.6,3.2-9.4.8,1.5,1.6,3,2.5,4.8h.1Z"/>
  <path class="st18" d="M182.9,115c1,2.1,2,4.2,3,7,3.5,4.8,6.2,9.9,10.4,12.9,14.9,10.6,32.2,13.7,50,15.1,6.5.5,12.9,2.2,19.4,3.3-1.3,1.2-2.7,2.5-4.4,3.4-1.6-1.1-2.8-2.5-4.1-2.7-7.3-1.2-14.7-2.1-22-3.1-14.3-1.9-27.8-6-40-13.9-2.9-1.9-5.5-4.1-8.2-6.3v-1.1c-3.6-6.9-6.8-13.6-10.8-19.8-8.2-12.8-15.1-26-16.2-41.5,0-.8-1.2-1.6-1.9-2.7,0-.8,0-1.2.3-2,.4-8.6.4-16.9.8-25.2.2-4.5,1.3-9,1.9-13.5.9,1.6,1.7,3.3,2.3,5.5-3.7,13.8-2.7,27-.9,40.3,2.2,16.1,10.9,29.3,18.6,43,.3.6,1.3.8,2,1.2h-.2Z"/>
  <path class="st9" d="M211.9,171c-9.7-4.7-19.9-8.8-28.8-16.1-1.4-.9-2.3-1.4-3.2-1.9v-.3c-1.1-.8-2.1-1.2-3-1.7l-.2-.3c-1.7-1.1-3.3-1.9-4.8-2.7l-.2-.3c-3.7-2.7-7.1-5.4-10.7-7.6-12-7.4-16.8-19-18.8-32.3-.2-1.1-.8-1.9-1.3-3.3,0-6.5,0-12.5.2-18.5h.8c.7,1.8,2,3.6,1.9,5.4-.5,13.3,2.5,25.7,9.8,36.8,2.1,3.2,5.2,6.1,8.4,8.2,15,9.7,28,22.5,45,29,9.7,3.7,19.6,6.9,29.8,10.5-.5,1.2-1.3,2.2-2.6,2.9-7.8-2.8-15-5.3-22.3-7.9h0Z"/>
  <path class="st39" d="M195.7,110.2c7.6.8,12.3,5.9,17.2,10.4,6.4,5.9,13.1,11.4,22.1,12.3,8,.8,16.1.8,24.7,1,2.2,1.3,3.8,2.7,5.1,4.5-6,.5-11.7,1-17.3.4-10.4-1-21.3-.8-30.4-7.3-9.1-6.4-18.1-12.8-27.2-19.2,1.8-.7,3.6-1.4,5.8-2.2h0Z"/>
  <path class="st15" d="M189.6,112.3c9.4,6.6,18.4,13,27.5,19.4,9.2,6.5,20,6.3,30.4,7.3,5.6.5,11.3,0,17.5-.1,2.2.4,3.9,1,5.8,1.8-2.2,1.2-4.8,3-7.2,2.9-10.5-.4-21-1.3-31.5-2.3-11.6-1.1-21.5-6.4-30.2-13.8-4.4-3.7-8.5-7.7-12.6-11.7-.7-.7-.8-2-1.2-3.5.5-.3.9-.2,1.6,0h0Z"/>
  <path class="st3" d="M184.9,42.8c3.7-2.3,7.5-4.5,11.8-6.7,1.1.7,1.7,1.3,2.2,1.9-.4,2.4-.8,4.8-1.6,7.7-9.4,7.1-8.9,16.6-8.2,26.1,0,1.1,1.7,2.1,2.6,3.2-.3,2.4-.6,4.8-1.3,7.6-.4,1.1-.5,1.7-.6,2.3,0,.9-.2,1.7-.9,2.8-1.3-.7-2.5-1.4-2.7-2.4-1.2-6.6-3-13.3-3.2-19.9-.2-7.5,1.1-15.1,1.7-22.6h.2Z"/>
  <path class="st35" d="M150.9,76c-.6-11.5-1.7-23.1-1.6-34.6,0-11,1.4-22,2.5-33.3,1.1,1.2,1.9,2.6,2.4,4.5-1,7.5-1.7,14.4-2.3,21.9.3,7.5.7,14.5.7,21.8-.1,3.8-2.6,7.8,1.3,11.1,0,1.1,0,1.9-.3,2.9-.6,13.8,2.2,26.6,9.4,38.1,4.8,7.7,10.5,14.9,16,22.1,1.6,2.1,3.9,3.7,6.1,5.8.4.8.6,1.2.9,2.1,0,1.1,0,1.9-.3,2.5-15.3-15.2-29.8-30.6-32.8-53,0-.7-1.2-1.2-2-2.1-.4-1.1-.6-1.9-.5-2.8.4-1.4.5-2.7.6-4.3v-2.6h0Z"/>
  <path class="st44" d="M184.5,42.9c-.3,7.4-1.6,15-1.4,22.5.2,6.7,1.9,13.3,3.2,19.9.2.9,1.4,1.7,2.5,2.6.3,1.1.2,2.2-.2,3.7-.4,1.1-.4,1.7-.5,2.4-.1,1.2-.3,2.3-1,3.7-1.4-.9-2.5-1.9-3.1-3.2-6.6-15-9.1-30.6-8-46.9,2.7-1.5,5.5-3.1,8.5-4.7Z"/>
  <path class="st28" d="M175.7,47.5c-.9,16.4,1.6,32.1,8.2,47,.6,1.3,1.7,2.3,2.9,3.5.3,1.4.1,2.8-.4,4.6-.8.4-1.2.4-1.5.4-1.7-2.7-3.6-5.2-5-8.1-6.8-13.7-10.9-28.1-9.9-43.6.1-1.5,1.6-3,2.9-4.5,1.2,0,1.9.3,2.8.6h0Z"/>
  <path class="st12" d="M186.9,130v4h-.3c-.8-.5-1.2-.7-2-1.1-.5-.3-.7-.6-.8-1.2-7-11.7-14.2-23-20.8-34.6-2.8-4.9-4.2-10.7-6.2-16.4v-3c-.7-1.8-1.3-3.2-2-5,0-1.1,0-1.9.3-2.9-.2-2.4-.8-4.6-1.3-7.2,0-2.5,0-4.5.3-6.9,0-7.4,0-14.6-.3-22,.3-1.4.7-2.6,1.3-3.9.8-4.2,1.3-8.2,1.9-12.1.7,1.1,1.3,2.2,1.8,4.1-.7,14.3-1.2,28-1.6,41.6,0,.2.4.5.6.7v2.1c.3,12.6,3.7,23.6,9.4,33.8,5,8.8,10.3,17.4,15.6,26,1,1.6,2.6,2.7,4,4.1h.1Z"/>
  <path class="st19" d="M182.9,114.6c-.6,0-1.6-.3-2-.9-7.7-13.7-16.4-26.9-18.6-43-1.8-13.3-2.8-26.5,1-40,1.3,1.3,2.1,2.8,3,4.7-4.6,2.2-3,6.8-3.1,9.7-.9,19,1.9,37.3,12.1,53.9,3,4.8,5,10.1,7.6,15.5h0Z"/>
  <path class="st34" d="M255.3,162.1c-1.3,1.1-2.5,2.3-4.1,3.3-.3,0-.4-.4-.4-.8-1.6-.8-3.2-1.2-5.2-1.7-.8,0-1.2,0-1.7-.3-1-.8-2-1.2-3.3-1.6-.8,0-1.2,0-1.9-.3-1.4-.4-2.6-.6-4.1-.7-1.1,0-1.9,0-2.8-.2-.7,0-1.3,0-2.2.2-1.1,0-1.9,0-2.7-.3-.7-.4-1.3-.6-2.3-.7-.8,0-1.2,0-1.7-.3-.7-.4-1.3-.6-2.3-.7-.8,0-1.2,0-1.7-.3-.7-.8-1.3-1.2-2.4-1.7-1.8-.4-3.2-.8-4.5-1.3-7-2.9-14.1-5.8-21.2-8.9-.3-.5-.6-.7-.9-1.2,0-1.5,0-2.5.3-3.6h1.9c.2,0,.7,0,.8.4.8,1.2,1.4,2.2,2.3,2.8,12,6.7,24.8,10.9,38.4,13,7.3,1.1,14.3,3.3,21.5,5h.2Z"/>
  <path class="st19" d="M265.9,153.4c-6.7-1.1-13.1-2.8-19.6-3.3-17.8-1.4-35.1-4.6-50-15.1-4.2-3-6.9-8.1-10.4-12.6.6,0,1.4,0,1.7.4,8.9,13.4,22.7,18.9,37.4,22.3,7.2,1.7,14.7,2.1,22,2.9,5.1.5,10.2.6,15.3,1.2,1.6.2,3,1.6,4.6,2.9-.2.7-.6,1-1.1,1.3h.1Z"/>
  <path class="st27" d="M186.9,134v-2.6c2.7,1.7,5.4,3.9,8.2,5.7,12.2,7.9,25.7,12.1,40,13.9,7.4,1,14.7,1.9,22,3.1,1.3.2,2.5,1.6,3.8,2.8-.8,1.2-1.6,2.1-2.8,2.5-1.6-5.5-6.3-3.6-9.4-4.3-11.9-2.6-24.1-4-35.9-7.3-7.4-2-14.1-6.5-21.3-9.9-.2,0-.7,0-.8-.3-1.3-1.4-2.7-2.6-4-3.7h.2Z"/>
  <path class="st1" d="M218.9,158c.4,0,.9,0,1.8.2,1.1.4,1.6.6,2.2.8.4,0,.9,0,1.8.2,1.1.4,1.6.6,2.2.8.7,0,1.5,0,2.8.2,1.1,0,1.7,0,2.2-.2.7,0,1.5,0,2.7.3,1.7.4,3,.6,4.3.7.4,0,.9,0,1.7.3,1.4.8,2.3,1.2,3.3,1.6.4,0,.9,0,1.9.3,2,.8,3.5,1.3,5,1.8v.5c-.5.7-1.1,1.2-2.3,1.6-2.7-.8-4.6-1.8-6.7-2.3-9.8-2.3-19.6-4.6-29.3-6.8-2.5-.6-5.1-1.3-7.9-2.1-1.4-.4-2.6-.6-3.7-.9-.3-.1-.6-.3-.9-1.1-1.1-1-2.1-1.4-3.4-1.9h-1.7c-.5-.6-1-1.2-1.8-2.2-.9-.9-1.6-1.3-2.2-1.8v-2c7,2.9,14.1,5.8,21.1,8.7,1.3.5,2.7.9,4.6,1.7,1.1.8,1.7,1.2,2.4,1.7h-.1Z"/>
  <path class="st12" d="M191.9,138c7,3.4,13.7,7.8,21,9.9,11.7,3.2,24,4.6,35.9,7.3,3.1.7,7.8-1.2,9.1,4.3,0,.4-.4.6-.9.4-2.1-.7-3.5-1.6-5.1-1.9-8.4-1.5-16.9-2.9-25.3-4.3-12.1-1.9-23-7.1-33.7-12.8,0,0-.5,0-.7-.4-.3-1.1-.3-1.9-.3-2.6h0Z"/>
  <path class="st36" d="M192,74.7c-1.1-.7-2.7-1.7-2.8-2.9-.7-9.5-1.1-19,8.1-25.7-1.5,9.4-3.3,18.8-5.3,28.6Z"/>
  <path class="st38" d="M193,141.4c10.7,5.3,21.5,10.5,33.6,12.4,8.5,1.4,16.9,2.8,25.3,4.3,1.6.3,3,1.1,4.8,1.9-.1.8-.6,1.4-1.3,2.1-7.4-1.6-14.5-3.8-21.8-4.9-13.6-2.1-26.5-6.2-38.4-13-.9-.5-1.5-1.6-2.3-2.8h0Z"/>
  <path class="st27" d="M158.2,63.7c-.5,0-.9-.2-.9-.4.5-13.6,1-27.2,1.6-41.2.8.5,1.4,1.4,2,2.6-.7,4.8-1.7,9.3-1.9,13.9-.4,8.3-.3,16.6-.8,25.2h0Z"/>
  <path class="st16" d="M204.9,156c2.5.7,5,1.4,7.6,2,9.8,2.3,19.6,4.5,29.3,6.8,2.1.5,4,1.4,6.4,2.3,0,.6-.4,1.1-1.5,1.5-2.1-.7-3.6-1.5-5.1-1.9-10.6-2.7-21.2-5.2-31.8-7.8-.9-.2-1.7-.3-2.9-1-.9-1-1.5-1.5-2.1-2h.1Z"/>
  <path class="st43" d="M210,159.4c10.5,2.2,21.1,4.8,31.7,7.5,1.6.4,3,1.2,4.8,2,0,.5-.4.9-1,1.3-10.6-2.7-21-5.4-31.3-8.2-1.5-.4-2.8-1.4-4.3-2.6h.1Z"/>
  <path class="st41" d="M212,171.4c7.2,2.2,14.4,4.8,21.9,7.6-.5,1-1.3,1.7-2.4,2.5-4.8-2.1-9.2-4.2-13.7-6.4-2-1-3.9-2.2-5.8-3.7h0Z"/>
  <path class="st34" d="M154.9,30c-.3,1.1-.6,2.2-1.3,3.7-.8.3-1.3.3-1.7.3.7-7,1.3-13.9,2.4-21,.8,1,1.3,2.1,1.4,3.9-.5,4.8-.7,9-.9,13.2h.1Z"/>
  <path class="st38" d="M155.2,29.7c0-3.9,0-8.1.6-12.6.6-.2.9-.1,1.2.3-.4,4.1-1,8.1-1.8,12.3Z"/>
  <path class="st36" d="M199.2,37.8c-.8-.4-1.3-1-2.1-1.7.5-.7,1.3-1.3,2.9-2.5-.3,2-.4,3-.7,4.2h0Z"/>
  <path class="st33" d="M195.6,219c.7.4,1,.7,1.4,1.3-1.1,0-2.3,0-3.8-.5.5-.4,1.3-.7,2.3-.9h.1Z"/>
  <path class="st33" d="M204.3,221.9c.5-.4,1.3-.7,2.3-.9.7.4,1,.7,1.4,1.3-1.1,0-2.3,0-3.7-.5h0Z"/>
  <path class="st33" d="M184.5,217c.6.4.9.8,1.3,1.4-1.1,0-2.2,0-3.6-.5.5-.5,1.2-.7,2.3-.9Z"/>
  <path class="st33" d="M216.1,224c.4-.5.9-.8,1.8-1.1-.3.4-1,.8-1.8,1.1Z"/>
  <path class="st33" d="M170.6,215.9c.9-.2,2-.1,3.3.2-.9.2-2,0-3.3-.2Z"/>
  <path class="st15" d="M276.3,145c-.6-.6-.9-1.2-1.2-2.1.5.5,1,1.3,1.2,2.1Z"/>
  <path class="st3" d="M188.3,93.9c-.2-.5-.1-1.1.2-1.8.2.5.1,1.1-.2,1.8Z"/>
  <path class="st33" d="M210.1,223c.3-.4.7-.7,1.4-.9.3.1.3.3.4.7-.5.3-1.1.3-1.8.2h0Z"/>
  <path class="st44" d="M185,103.3c.4-.3.7-.3,1.4-.3.2.6.1,1.1-.2,1.9-.6-.3-.9-.8-1.2-1.5h0Z"/>
  <path class="st36" d="M190.1,84.8c-.2-.5,0-1.1.2-1.8.2.5,0,1.1-.2,1.8Z"/>
  <path class="st43" d="M150.6,76c.3.7.3,1.5,0,2.6-1.1.4-1.9.4-2.6.4.2-.9.3-1.7.7-2.8.7-.2,1.1-.2,1.9-.2h0Z"/>
  <path class="st43" d="M148.9,73.7c-.5-.5-1-1.4-1.2-2.5.6.6.9,1.4,1.2,2.5Z"/>
  <path class="st40" d="M137.9,61h-.8c-.3-.7-.3-1.5-.3-2.6v-8.9c.7.8,1.6,2.1,1.9,3.4.5,2.4.7,4.9.7,7.7-.7.4-1.2.4-1.6.4h.1Z"/>
  <path class="st22" d="M150.9,86c.6.6,1.8,1.2,1.9,1.8,3,22.4,17.5,37.8,32.8,53q.3.1.4.4c1,1.4,2,2.6,2.9,4v.8c-1.1-.2-2.2-.5-3.7-1.2-1.3-1.3-2.3-2-3.3-2.8v-.3c-3-2.8-6-5.2-9-7.7-1.1-.9-2.3-1.8-3.7-3.2-.3-.9-.3-1.3-.3-2.2-1-1.5-2-2.5-3-3.9v-1.1c-.7-.8-1.3-1.2-2-1.9v-1.1c-.7-.8-1.3-1.2-2-2-.3-.8-.7-1.2-1-2-.7-.8-1.3-1.2-2-1.9v-1.1c-2-3.8-4-7.2-6-10.6v-.3c-.3-.8-.7-1.2-1-1.7v-2c-.3-1.1-.7-1.6-1-2v-3.9c-.3-1.2-.7-1.6-1-2.1,0-1.1,0-2.1.2-3.7.5-.7.7-1,.8-1.3h0Z"/>
  <path class="st43" d="M165.9,124v1.1c1,1.7,2,2.8,3,3.9v1.7c-.8,0-1.8,0-2.2-.5-5.8-7.6-12.5-14.8-13.8-24.7,2.3,2.9,4.2,5.7,6,8.6v1.1c.7,1,1.3,1.5,2,1.9.3.5.6.9,1,2,.7,1.1,1.3,1.5,2,2v1.1c.7,1,1.3,1.5,2,1.9h0Z"/>
  <path class="st43" d="M173,134.3c2.9,2.1,5.9,4.5,8.9,7.3-2.9-2.1-5.9-4.5-8.9-7.3Z"/>
  <path class="st16" d="M158.9,113.6c-1.8-2.5-3.6-5.3-5.7-8.4-.3-.7-.3-1.1-.3-1.9,2,3.1,4,6.5,6,10.3Z"/>
  <path class="st43" d="M150.8,85.7c0,.6-.2.9-.7,1.2-.9-1.7-1.5-3.5-1.9-5.5.7.4,1.2,1,1.7,1.6.2.8.5,1.6.9,2.7Z"/>
  <path class="st22" d="M150.3,82.9c-.8-.6-1.2-1.2-2-1.9-.3-.5-.3-.9-.3-1.7.7-.3,1.5-.3,2.6-.3.3,1.3.2,2.6-.3,4h0Z"/>
  <path class="st43" d="M204.6,155.9c.9.6,1.4,1.1,2.2,1.9-1.8-.5-3.8-1.3-5.8-2.4,1.1-.1,2.2.1,3.6.5Z"/>
  <path class="st43" d="M182,142.3c.9.4,1.9,1.2,2.9,2.3-.9-.4-1.9-1.2-2.9-2.3Z"/>
  <path class="st16" d="M196.9,152c1,.4,1.9.9,2.9,1.7-.4.3-.8.3-1.7,0-.7-.8-1-1.2-1.2-1.7Z"/>
  <path class="st43" d="M196.6,152c.6.5.9,1,1.2,1.7-.9-.2-1.8-.6-2.8-1.4.4-.3.8-.3,1.6-.3Z"/>
  <path class="st43" d="M151.7,101.2c.5.3.9.8,1.2,1.5-.5-.3-.9-.8-1.2-1.5Z"/>
  <path class="st43" d="M150.7,97.2c.5.3.9.8,1.2,1.5-.5-.3-.9-.8-1.2-1.5Z"/>
  <path class="st43" d="M149.7,91.2c.5.3.9.8,1.2,1.5-.5-.3-.9-.8-1.2-1.5Z"/>
  <path class="st16" d="M189.1,146.3c-.2-.4-.2-.6,0-1,.4-.3.6-.3.8-.3.3.1.6.3.9.8.1.4.1.6,0,1-.6,0-1.1,0-1.8-.5h.1Z"/>
  <path class="st16" d="M191,148.3c.6.1,1.2.6,1.9,1.4-.6-.1-1.2-.6-1.9-1.4Z"/>
  <path class="st41" d="M141.9,108c2.3,13.1,7.1,24.7,19.1,32.1,3.7,2.2,7.1,4.9,10.7,7.6-11.8-4.5-21.8-11.4-27.7-23.5-5.8-11.8-5.4-24.4-5-37,0-1.1,1.3-2.1,2.5-3.2.4.2.4.3.2.8-.5.6-.7.8-.8,1.1v18.9c.3,1.6.7,2.4,1,3.1h0Z"/>
  <path class="st41" d="M137.9,61.4c.4-.4.9-.4,1.7-.4s.8,0,1.1.4c.3,1.1.3,1.9.3,2.6v4.6c-.4.4-.9.4-1.7.4-.7-2.4-1-4.8-1.3-7.6h-.1Z"/>
  <path class="st9" d="M141.3,63.9c-.4-.7-.4-1.4-.4-2.6.2-.9.3-1.5.8-2.2.2,1.5,0,3.1-.4,4.8h0Z"/>
  <path class="st40" d="M141.2,86c-.1-.3,0-.6.5-.9.2,0,.2.4.2.6-.2.2-.3.2-.7.2h0Z"/>
  <path class="st41" d="M172,148.3c1.5.5,3.1,1.3,4.8,2.4-1.5-.5-3.1-1.2-4.8-2.4Z"/>
  <path class="st41" d="M180,153.3c.9.1,1.8.6,2.8,1.4-.8-.1-1.8-.6-2.8-1.4Z"/>
  <path class="st41" d="M177,151.3c.9.1,1.8.6,2.8,1.4-.8-.1-1.8-.6-2.8-1.4Z"/>
  <path class="st27" d="M186.9,129.6c-1.3-1-3-2.2-3.9-3.7-5.3-8.6-10.7-17.2-15.6-26-5.8-10.2-9.1-21.2-9.4-33.5.7.3,1.8,1.1,1.9,1.9,1.2,15.5,8,28.7,16.2,41.5,4,6.2,7.2,13,10.8,19.8Z"/>
  <path class="st37" d="M142.2,107.8c-.6-.6-.9-1.3-1.3-2.5.5.5,1,1.4,1.3,2.5Z"/>
  <path class="st34" d="M154.9,70v3c.7,2.2,1.3,3.6,2,5,0,.7,0,1.5-.3,2.9,2.2,8.2,3.7,16.3,7.3,23.3,4.6,8.9,11,16.9,16.7,25.2.8,1.1,2.2,1.8,3.3,2.6.1.3.3.6.8,1.3.2,1.2.2,2,.2,2.7h0c-2-1.8-4.3-3.4-5.9-5.5-5.5-7.2-11.2-14.4-16-22.1-7.1-11.5-9.9-24.3-9.1-38.1.7-.3.9-.3,1-.3Z"/>
  <path class="st38" d="M151.9,34.5c.4-.5.9-.5,1.7-.5.5,7.1.7,14.3.4,21.7-.7.3-.9.3-1.1.3-.3-7-.7-14-1-21.5h0Z"/>
  <path class="st34" d="M152.6,56.3c.5-.3.6-.3,1-.3.3,2,.3,4.1.3,7v4c-3.9-3-1.4-6.9-1.3-10.7Z"/>
  <path class="st12" d="M186.9,134c1.3,1.1,2.6,2.2,3.6,3.7-1.1.3-1.8.3-2.9.3h-1.7c-.3-.5-.5-1-.9-1.7q-.1-.3.2-.3c.8-.7,1.2-1.3,1.7-2h0Z"/>
  <path class="st38" d="M153.9,67.4v-4c.5,1.8,1,3.9,1.3,6.3-.4.3-.6.3-1,.3-.3-.7-.3-1.5-.3-2.6Z"/>
  <path class="st34" d="M185.9,138.4c.4-.4.9-.4,1.8,0,.7,1.1,1,1.9.8,2.7h-2.6v-2.6h0Z"/>
  <path class="st38" d="M183.9,131.6c-1.1-.5-2.5-1.2-3.2-2.3-5.7-8.3-12-16.3-16.7-25.2-3.6-7-5.2-15.1-7.3-22.9,2.3,5.1,3.7,10.9,6.4,15.8,6.6,11.6,13.8,22.9,20.8,34.6Z"/>
  <path class="st38" d="M156.9,77.6c-.7-1-1.3-2.4-2-4.2.7,1,1.3,2.4,2,4.2Z"/>
  <path class="st38" d="M186.7,133.9c-.2.7-.6,1.4-1.4,2.1-.3-.7-.3-1.5-.3-2.6.5-.1,1,.1,1.7.5Z"/>
  <path class="st35" d="M186.1,141.3c.6-.3,1.4-.3,2.7-.3h1.1v3.6c-.2.4-.3.4-.8.4-1.2-1.1-2.1-2.3-3.1-3.7h.1Z"/>
  <path class="st35" d="M250.8,164.7c-1.5-.2-3-.7-4.7-1.4,1.4.2,3,.6,4.7,1.4Z"/>
  <path class="st38" d="M190.3,141h-1.1c-.5-.8-.8-1.6-1.1-2.7.6-.3,1.4-.3,2.5-.3h1.1c.3.8.3,1.5.3,2.6-.4.4-.9.4-1.7.4Z"/>
  <path class="st35" d="M238.7,160.7c-1.1.2-2.4,0-3.7-.4,1.1-.2,2.3,0,3.7.4Z"/>
  <path class="st35" d="M243.9,162.7c-.9,0-1.9-.5-2.9-1.3.9,0,1.9.5,2.9,1.3Z"/>
  <path class="st35" d="M231.8,159.8c-.4.4-1,.5-1.7.4.4-.4,1-.5,1.7-.4Z"/>
  <path class="st35" d="M226.9,159.7c-.5.1-1.1,0-1.8-.5.5-.1,1.1,0,1.8.5Z"/>
  <path class="st35" d="M222.9,158.7c-.5.1-1.1,0-1.8-.5.5-.1,1.1,0,1.8.5Z"/>
  <path class="st35" d="M218.9,157.7c-.6-.1-1.2-.6-1.9-1.4.6.1,1.2.6,1.9,1.4Z"/>
  <path class="st16" d="M168.9,128.6c-1-.7-2-1.9-3-3.3,1,.8,2,1.9,3,3.3Z"/>
  <path class="st16" d="M160.9,116.7c-.6,0-1.2-.6-1.9-1.4.6,0,1.2.6,1.9,1.4Z"/>
  <path class="st16" d="M163.9,120.7c-.6,0-1.2-.6-1.9-1.4.6,0,1.2.6,1.9,1.4Z"/>
  <path class="st16" d="M165.9,123.7c-.6,0-1.2-.6-1.9-1.4.6,0,1.2.6,1.9,1.4Z"/>
</svg>