<svg version="1.1" id="Layer_1" xmlns="http://www.w3.org/2000/svg" xmlns:xlink="http://www.w3.org/1999/xlink" x="0px" y="0px"
	 width="100%" viewBox="0 0 286 226" enable-background="new 0 0 286 226" xml:space="preserve">
<path fill="#FEFDFD" opacity="1.000000" stroke="none" 
	d="
M147.000000,227.000000 
	C98.374374,227.000000 49.748745,227.000000 1.061560,227.000000 
	C1.061560,151.771271 1.061560,76.542488 1.061560,1.000000 
	C49.687111,1.000000 98.374901,1.000000 147.438660,1.305633 
	C147.496643,2.611780 147.178665,3.612295 146.571106,4.829821 
	C144.750870,8.325751 143.220215,11.604672 141.439804,15.091709 
	C140.649200,16.466454 140.108368,17.633081 139.310028,19.020950 
	C137.639221,22.140882 136.225891,25.039572 134.551865,28.131886 
	C134.007019,29.135010 133.722870,29.944510 133.188812,30.989586 
	C132.303162,32.817371 131.667404,34.409573 130.903549,36.325089 
	C129.474777,38.970901 128.174118,41.293407 126.593178,43.825485 
	C123.873489,44.728584 121.434082,45.422119 118.743423,45.857094 
	C116.003044,44.371742 113.513924,43.144947 110.897552,41.596527 
	C108.255623,39.820850 105.740952,38.366806 103.069145,36.630058 
	C101.963287,35.860977 101.014557,35.374596 100.043610,34.932144 
	C100.021385,34.976070 100.106941,34.927349 100.008965,34.657505 
	C99.064278,34.595650 98.217560,34.803635 97.250504,35.364311 
	C97.346146,36.154133 97.562134,36.591267 97.676422,37.407379 
	C99.243279,46.567547 100.843971,55.362343 102.601410,64.125702 
	C104.060959,71.403633 105.704948,78.644577 107.185524,86.296776 
	C107.314102,87.455490 107.524376,88.219330 107.625412,89.336990 
	C108.087204,91.765556 108.658241,93.840302 109.148140,96.305313 
	C109.276970,97.449516 109.486954,98.203453 109.580002,99.312286 
	C110.039749,101.752235 110.616409,103.837280 111.092865,106.309456 
	C110.908554,107.757141 110.824440,108.817703 110.476807,109.951271 
	C109.778107,110.591263 109.342903,111.158249 108.509766,111.724701 
	C107.061722,111.854980 106.011612,111.985802 104.771835,111.895271 
	C104.053253,111.454094 103.524345,111.234261 102.902328,110.709755 
	C101.582970,109.253174 100.356728,108.101280 99.064041,106.647079 
	C98.374184,105.835594 97.750763,105.326393 97.101746,104.867775 
	C97.076149,104.918350 97.181458,104.876350 97.116013,104.574791 
	C96.429008,103.766876 95.807449,103.260513 95.157135,102.811157 
	C95.128380,102.868156 95.245506,102.817337 95.186783,102.528793 
	C94.409348,101.623322 93.690628,101.006378 92.839523,100.067062 
	C90.784546,97.836632 88.861946,95.928589 86.877304,93.695267 
	C84.834946,91.403328 82.854630,89.436676 80.764984,87.136879 
	C78.104950,84.537712 75.554237,82.271698 72.652397,80.026276 
	C70.957314,83.420631 69.613358,86.794380 68.109749,90.453690 
	C67.737488,91.357582 67.524879,91.975914 67.045715,92.761726 
	C66.369133,94.048042 65.959122,95.166878 65.365929,96.551834 
	C64.534172,97.366631 63.885597,97.915306 62.800129,98.341599 
	C61.481754,98.354294 60.600273,98.489380 59.433792,98.544052 
	C58.758171,98.410515 58.367550,98.357399 57.730202,98.023666 
	C55.224159,97.390221 52.964848,97.037376 50.370033,96.602325 
	C49.350723,96.424553 48.666908,96.328987 47.789505,95.956497 
	C45.727619,95.393402 43.859325,95.107216 41.668266,94.750664 
	C40.692772,94.578705 40.040043,94.477127 39.179718,94.119827 
	C36.644306,93.497536 34.316490,93.130959 31.719753,92.702133 
	C31.086231,92.590477 30.721634,92.541069 30.146709,92.214066 
	C27.501884,91.340164 25.067390,90.743851 22.632896,90.147537 
	C22.309242,90.554253 21.985588,90.960960 21.661934,91.367676 
	C22.827181,93.909927 23.992428,96.452187 25.225163,99.285553 
	C25.403038,99.959305 25.513428,100.341934 25.486748,101.094833 
	C26.696568,105.086899 28.043457,108.708694 29.448521,112.625854 
	C29.670334,113.281494 29.833975,113.641777 29.941029,114.368332 
	C30.648878,116.489548 31.413315,118.244514 32.150093,120.380951 
	C32.966331,123.285561 33.828392,125.802811 34.650326,128.333084 
	C36.341106,133.538071 35.520203,135.380692 30.460649,137.781433 
	C26.632277,139.597977 22.797604,141.401276 18.303061,143.523346 
	C20.021868,145.015564 21.078312,145.991653 22.194845,146.893341 
	C42.145027,163.004654 62.062466,179.157043 82.095116,195.165253 
	C85.716202,198.058868 87.074394,200.809448 84.890869,205.376038 
	C82.606689,210.153152 81.107536,215.311081 79.360100,220.335541 
	C78.922913,221.592575 78.849770,222.976212 78.529922,224.739304 
	C87.191566,223.208923 95.037392,221.864151 102.866737,220.429459 
	C114.251053,218.343353 125.623489,216.192429 137.395020,214.145782 
	C140.083572,214.855927 142.378098,215.489395 144.838425,216.469391 
	C145.669479,220.210617 146.334732,223.605301 147.000000,227.000000 
M88.918167,67.459785 
	C88.158379,67.286255 87.118660,66.707840 86.685776,67.007126 
	C84.444748,68.556503 82.358841,70.330238 80.031303,72.174355 
	C82.323334,74.889862 84.460892,77.422348 86.598442,79.954842 
	C87.111740,79.848038 87.625038,79.741234 88.138336,79.634430 
	C88.421440,75.839996 88.704552,72.045563 88.918167,67.459785 
z"/>
<path fill="#FFFEFE" opacity="1.000000" stroke="none" 
	d="
M151.000000,1.000001 
	C196.293411,1.000000 241.586807,1.000000 286.940125,1.000000 
	C286.940125,76.227028 286.940125,151.454117 286.940125,227.000000 
	C242.312943,227.000000 197.625137,227.000000 152.485184,226.550629 
	C152.078445,222.880386 152.123840,219.659485 152.475616,216.423615 
	C153.232880,216.071350 153.683746,215.734055 154.491821,215.309875 
	C156.232681,214.778534 157.616333,214.334061 159.427719,213.981583 
	C163.555756,214.556961 167.256088,215.040344 171.048889,215.598022 
	C171.141357,215.672318 171.376083,215.706757 171.640900,215.899902 
	C172.970825,216.216980 174.035919,216.340942 175.471725,216.637558 
	C178.246597,217.118774 180.650787,217.427353 183.325531,217.957733 
	C184.738510,218.343933 185.880920,218.508331 187.402283,218.805481 
	C189.874008,219.188019 191.966751,219.437790 194.332977,219.915115 
	C195.769943,220.303925 196.933426,220.465179 198.485168,220.764008 
	C200.235825,220.978973 201.598206,221.056366 203.179947,221.312424 
	C203.956787,221.544342 204.514297,221.597610 205.339188,221.886566 
	C206.771255,222.280334 207.935928,222.438416 209.408218,222.715454 
	C210.153412,222.843781 210.590988,222.853165 211.184418,223.017456 
	C211.895798,223.137772 212.451324,223.103210 213.333633,223.175964 
	C214.788452,223.461105 215.916473,223.638962 217.208710,224.027069 
	C218.014343,223.815720 218.655731,223.394089 219.301559,222.575363 
	C217.192688,216.147278 214.867950,210.177902 213.082504,204.051361 
	C212.470428,201.951157 213.208221,199.457565 213.637344,197.032043 
	C216.978729,194.320175 220.012085,191.719955 223.366562,189.058304 
	C224.786453,187.979401 225.885223,186.961929 227.296021,185.870316 
	C229.158722,184.397873 230.709396,182.999573 232.566223,181.516144 
	C233.630890,180.720383 234.389420,180.009766 235.474670,179.222107 
	C236.619125,178.133621 237.436859,177.122177 238.514526,176.061890 
	C239.183899,175.685471 239.593323,175.357880 240.348129,175.052124 
	C242.585114,173.433533 244.476715,171.793121 246.628082,170.117828 
	C247.225861,169.706879 247.563904,169.330826 248.206177,168.857483 
	C248.922836,168.290527 249.335251,167.820862 250.027313,167.292938 
	C250.858139,166.719666 251.409348,166.204681 252.267075,165.605865 
	C253.825150,164.393265 255.076706,163.264496 256.577850,162.003357 
	C257.279144,161.275543 257.730896,160.680115 258.396484,160.062378 
	C258.610352,160.040100 258.991821,159.841568 259.290375,159.815674 
	C260.432068,158.964844 261.275177,158.139893 262.444397,157.202942 
	C264.106506,155.863693 265.442505,154.636459 266.992249,153.372223 
	C267.531219,153.054596 267.856445,152.774002 268.494263,152.377838 
	C269.871216,151.175949 270.935608,150.089615 272.330719,148.965088 
	C274.110443,147.626419 275.559448,146.325943 277.328796,145.024826 
	C277.138397,144.222015 276.627655,143.419846 275.889282,142.387543 
	C274.465118,141.704117 273.268585,141.250824 271.841522,140.549759 
	C269.943085,139.748367 268.275177,139.194748 266.459656,138.339020 
	C264.648560,136.648560 262.985138,135.260208 261.283936,133.523773 
	C261.825928,131.447754 262.405701,129.719818 263.267456,127.727478 
	C264.480957,123.773521 265.412476,120.083961 266.662506,116.226318 
	C269.747314,108.251343 272.513611,100.444458 275.615997,91.689064 
	C272.884521,92.093369 271.455048,92.227852 270.059845,92.523819 
	C260.041962,94.648933 250.044312,96.871910 240.011292,98.922112 
	C236.042984,99.733017 233.018158,98.824127 231.450043,94.345802 
	C229.840698,89.749779 227.479065,85.417183 225.088257,80.184891 
	C222.298065,83.194580 220.089645,85.576752 217.585861,88.107590 
	C213.483612,92.419571 209.676712,96.582886 205.590668,100.936432 
	C202.583115,104.095718 199.854721,107.064781 196.794128,110.193787 
	C194.641937,111.042168 192.821991,111.730606 190.702118,112.259155 
	C189.962341,111.999153 189.522507,111.899033 188.857208,111.509674 
	C188.087204,109.146767 187.542648,107.073097 187.233643,104.823380 
	C187.542725,104.085869 187.616272,103.524406 187.820312,102.572586 
	C188.070114,100.819099 188.189423,99.455971 188.513641,97.809364 
	C188.853668,96.366493 188.988785,95.207115 189.346375,93.858551 
	C189.643555,93.108078 189.718262,92.546799 189.889130,91.600967 
	C190.050247,90.163551 190.115204,89.110672 190.400330,87.812012 
	C190.714417,86.698479 190.808334,85.830719 191.147705,84.800133 
	C191.469437,84.082672 191.545685,83.528046 191.740891,82.580330 
	C192.179642,79.793419 192.499435,77.399590 193.037598,74.667786 
	C195.041428,64.879730 196.826889,55.429642 198.737823,45.588322 
	C199.242889,42.798294 199.622513,40.399506 200.237823,37.766571 
	C200.601227,36.533390 200.728958,35.534355 200.979080,33.577927 
	C199.433121,34.722195 198.643341,35.306763 197.512238,35.960266 
	C193.426910,38.284752 189.682938,40.540306 185.593018,42.889130 
	C182.520248,44.526394 179.793411,46.070389 176.808548,47.504776 
	C175.838638,47.209530 175.126740,47.023895 174.222656,46.555767 
	C172.692078,44.513851 171.353668,42.754425 169.986572,40.668785 
	C169.133987,38.847836 168.310074,37.353104 167.414078,35.517025 
	C166.496078,33.655674 165.650192,32.135674 164.716034,30.268970 
	C163.756897,28.278975 162.886047,26.635683 162.002914,24.663589 
	C161.391357,23.437273 160.792114,22.539757 160.175125,21.308807 
	C159.491135,19.850468 158.824905,18.725559 158.078094,17.402245 
	C157.776840,16.993946 157.514236,16.892385 157.171173,16.580853 
	C156.694077,15.101288 156.255508,13.940026 155.750275,12.430445 
	C154.891800,10.675954 154.100021,9.269783 153.228104,7.505233 
	C152.431976,5.097903 151.715988,3.048952 151.000000,1.000001 
z"/>
<path fill="#AF0202" opacity="1.000000" stroke="none" 
	d="
M152.169235,216.438599 
	C152.123840,219.659485 152.078445,222.880386 152.016525,226.550629 
	C150.611115,227.000000 149.222214,227.000000 147.416656,227.000000 
	C146.334732,223.605301 145.669479,220.210617 145.208862,216.398743 
	C148.745178,212.981369 145.757187,210.295029 144.403534,208.294266 
	C140.797043,202.963638 136.899551,197.722305 132.437958,193.101898 
	C124.944832,185.342072 116.913139,178.103226 109.129967,170.622375 
	C99.824028,161.677887 90.688469,152.550079 81.214256,143.788086 
	C66.383751,130.072418 49.077335,120.479568 29.997616,114.002068 
	C29.833975,113.641777 29.670334,113.281494 29.646423,112.312813 
	C29.857277,111.467911 29.928402,111.231400 30.413012,110.996811 
	C38.558838,113.836754 46.316696,116.607475 54.017803,119.527870 
	C67.005524,124.453026 75.961731,134.923843 85.930412,143.738434 
	C103.823044,159.559631 121.017303,176.187973 138.120224,192.871811 
	C142.015701,196.671829 144.485092,201.991425 147.352982,206.766495 
	C149.201599,209.844467 150.580048,213.204803 152.169235,216.438599 
z"/>
<path fill="#FF3E3E" opacity="1.000000" stroke="none" 
	d="
M150.625000,1.000001 
	C151.715988,3.048952 152.431976,5.097903 152.890320,7.751163 
	C151.846481,19.369246 150.516220,30.378450 150.423660,41.398048 
	C150.326797,52.929161 151.419388,64.470261 151.659149,76.005310 
	C150.882172,76.002922 150.438110,76.002213 149.994873,75.668442 
	C149.995712,74.891296 149.995712,74.447212 149.995789,73.664886 
	C149.665619,72.550957 149.335373,71.775284 149.004181,70.531006 
	C148.669998,61.501480 148.056900,52.939957 148.075577,44.379810 
	C148.098053,34.077244 148.832275,23.776566 148.874390,13.473502 
	C148.886459,10.522732 147.568680,7.566525 146.860687,4.612810 
	C147.178665,3.612295 147.496643,2.611780 147.907318,1.305633 
	C148.750000,1.000000 149.500000,1.000000 150.625000,1.000001 
z"/>
<path fill="#9E0303" opacity="1.000000" stroke="none" 
	d="
M137.000992,214.069122 
	C125.623489,216.192429 114.251053,218.343353 102.866737,220.429459 
	C95.037392,221.864151 87.191566,223.208923 78.529922,224.739304 
	C78.849770,222.976212 78.922913,221.592575 79.360100,220.335541 
	C81.107536,215.311081 82.606689,210.153152 84.890869,205.376038 
	C87.074394,200.809448 85.716202,198.058868 82.095116,195.165253 
	C62.062466,179.157043 42.145027,163.004654 22.194845,146.893341 
	C21.078312,145.991653 20.021868,145.015564 18.303061,143.523346 
	C22.797604,141.401276 26.632277,139.597977 30.460649,137.781433 
	C35.520203,135.380692 36.341106,133.538071 34.650326,128.333084 
	C33.828392,125.802811 32.966331,123.285561 32.488811,120.455887 
	C33.867062,121.128639 34.718307,122.421494 35.917225,123.035660 
	C43.001293,126.664619 50.203835,130.061966 57.295307,133.676910 
	C69.047760,139.667831 79.854691,147.111633 88.991043,156.611969 
	C102.331490,170.483856 115.479156,184.558823 128.216873,198.981827 
	C131.995163,203.260025 134.119019,208.999344 137.000992,214.069122 
z"/>
<path fill="#FB0101" opacity="1.000000" stroke="none" 
	d="
M223.045425,189.119736 
	C220.012085,191.719955 216.978729,194.320175 213.304260,196.882538 
	C206.014236,183.520950 194.004471,175.863358 181.713379,169.100815 
	C168.608032,161.890259 155.194092,155.386932 144.077194,145.088089 
	C138.988083,140.373474 132.721802,136.695648 128.461609,131.369965 
	C120.186699,121.025436 120.473259,108.902565 124.220726,96.797554 
	C127.568672,85.983116 130.433456,75.052528 129.870056,63.682686 
	C129.536957,56.960770 127.915527,50.302692 126.873459,43.615913 
	C128.174118,41.293407 129.474777,38.970901 131.291656,36.335449 
	C132.841385,37.490158 134.519424,38.850708 134.784546,40.446060 
	C135.508392,44.802006 135.501236,49.274635 136.074585,53.663033 
	C136.271225,55.168186 137.329742,56.560738 137.995514,58.378967 
	C137.995850,59.501938 137.995178,60.250671 137.693604,61.239510 
	C136.928741,63.537846 136.119797,65.587982 136.071274,67.655960 
	C135.963867,72.234528 136.694977,76.866341 136.255432,81.396042 
	C135.507584,89.102974 133.484879,96.718979 133.134079,104.424919 
	C132.375671,121.085327 141.129578,133.412445 153.777908,142.644608 
	C165.241226,151.011826 177.779282,157.909409 189.865097,165.420212 
	C199.715958,171.542068 209.667862,177.505875 219.400772,183.808716 
	C221.064423,184.886078 221.852737,187.315125 223.045425,189.119736 
z"/>
<path fill="#F00101" opacity="1.000000" stroke="none" 
	d="
M126.593170,43.825481 
	C127.915527,50.302692 129.536957,56.960770 129.870056,63.682686 
	C130.433456,75.052528 127.568672,85.983116 124.220726,96.797554 
	C120.473259,108.902565 120.186699,121.025436 128.461609,131.369965 
	C132.721802,136.695648 138.988083,140.373474 144.077194,145.088089 
	C155.194092,155.386932 168.608032,161.890259 181.713379,169.100815 
	C194.004471,175.863358 206.014236,183.520950 212.996216,196.994171 
	C213.208221,199.457565 212.470428,201.951157 213.082504,204.051361 
	C214.867950,210.177902 217.192688,216.147278 218.981628,222.568832 
	C218.119659,223.245193 217.582077,223.531006 217.044495,223.816803 
	C215.916473,223.638962 214.788452,223.461105 213.306351,222.925842 
	C212.916656,222.404495 212.881042,222.240585 213.133957,221.861816 
	C212.662262,218.872406 212.251831,215.936752 211.064575,213.358887 
	C208.983109,208.839478 206.344559,204.580551 204.083008,200.139389 
	C198.400650,188.980499 189.820892,180.794937 178.852509,174.899155 
	C171.542511,170.969849 164.030075,167.278259 157.219025,162.592453 
	C147.269394,155.747452 137.998520,147.924042 128.186142,140.868408 
	C121.849945,136.312317 118.666626,130.312973 116.834320,122.878349 
	C114.187111,112.137245 115.779625,101.926842 118.943596,91.698326 
	C122.941841,78.772758 125.390259,65.695328 121.974869,52.230888 
	C121.498383,50.352448 119.975327,48.739483 118.956757,46.781990 
	C118.976776,46.560356 118.994675,46.115646 118.994675,46.115646 
	C121.434082,45.422119 123.873489,44.728584 126.593170,43.825481 
z"/>
<path fill="#CC0202" opacity="1.000000" stroke="none" 
	d="
M171.376083,215.706757 
	C171.376083,215.706757 171.141357,215.672318 171.061142,215.192535 
	C170.055908,213.043915 169.342834,211.206406 168.171005,209.733994 
	C161.282333,201.078354 154.304474,192.493347 147.312454,183.920609 
	C145.869934,182.151962 144.434616,180.289734 142.663467,178.891998 
	C135.003342,172.846970 126.913429,167.308899 119.579826,160.899872 
	C113.900688,155.936722 109.218307,149.850113 103.903503,144.449249 
	C94.021324,134.407059 84.221565,124.264374 73.924873,114.659485 
	C70.053238,111.047981 65.082245,108.433640 60.264565,106.075378 
	C56.443554,104.204987 52.159416,103.093674 47.961159,102.222359 
	C40.627373,100.700294 33.865002,96.092377 25.701290,97.693207 
	C24.988262,95.787170 24.455910,94.185158 23.893160,92.491661 
	C26.513645,92.491661 28.435341,92.491661 30.357037,92.491661 
	C30.721634,92.541069 31.086231,92.590477 31.954716,93.002441 
	C34.768173,93.701851 37.077747,94.038696 39.387318,94.375549 
	C40.040043,94.477127 40.692772,94.578705 41.851242,95.040558 
	C44.232353,95.678352 46.107727,95.955879 47.983097,96.233414 
	C48.666908,96.328987 49.350723,96.424553 50.547325,96.874443 
	C53.365723,97.587265 55.671326,97.945778 57.976933,98.304283 
	C58.367550,98.357399 58.758171,98.410515 59.565224,98.792686 
	C61.066780,98.902489 62.151901,98.683235 63.237022,98.463989 
	C63.885597,97.915306 64.534172,97.366631 65.613281,96.519119 
	C66.307594,96.009613 66.601776,95.857903 67.065331,96.087051 
	C75.806625,104.459045 84.930443,112.032486 92.855072,120.702080 
	C99.862816,128.368607 105.245445,137.496338 111.903839,145.515411 
	C115.985359,150.431015 120.928101,154.697479 125.822639,158.857071 
	C133.766098,165.607788 142.072647,171.930328 150.047729,178.645248 
	C153.055786,181.177994 155.475830,184.395432 158.323746,187.134598 
	C167.427551,195.890747 176.644226,204.530167 185.677139,213.358124 
	C186.332947,213.999054 185.863724,215.791153 185.606705,217.048767 
	C184.548889,217.278320 183.801926,217.507126 183.054962,217.735931 
	C180.650787,217.427353 178.246597,217.118774 175.329437,216.298157 
	C173.669647,215.759659 172.522873,215.733215 171.376083,215.706757 
z"/>
<path fill="#D60303" opacity="1.000000" stroke="none" 
	d="
M185.917572,217.048035 
	C185.863724,215.791153 186.332947,213.999054 185.677139,213.358124 
	C176.644226,204.530167 167.427551,195.890747 158.323746,187.134598 
	C155.475830,184.395432 153.055786,181.177994 150.047729,178.645248 
	C142.072647,171.930328 133.766098,165.607788 125.822639,158.857071 
	C120.928101,154.697479 115.985359,150.431015 111.903839,145.515411 
	C105.245445,137.496338 99.862816,128.368607 92.855072,120.702080 
	C84.930443,112.032486 75.806625,104.459045 67.184975,95.771591 
	C67.214539,94.287582 67.263405,93.440910 67.312279,92.594246 
	C67.524879,91.975914 67.737488,91.357582 68.445992,90.374832 
	C70.295769,86.675499 71.649651,83.340591 73.003532,80.005676 
	C75.554237,82.271698 78.104950,84.537712 80.800964,87.470383 
	C82.943962,90.098206 84.941650,92.059380 86.939346,94.020546 
	C88.861946,95.928589 90.784546,97.836632 92.849625,100.405273 
	C93.743233,101.649696 94.494370,102.233513 95.245506,102.817337 
	C95.245506,102.817337 95.128380,102.868156 95.133820,103.167542 
	C95.819984,103.936737 96.500725,104.406548 97.181458,104.876350 
	C97.181458,104.876350 97.076149,104.918350 97.095947,105.217056 
	C97.787331,105.993629 98.458908,106.471504 99.130493,106.949379 
	C100.356728,108.101280 101.582970,109.253174 102.893768,111.039207 
	C102.986145,112.112572 102.993973,112.551811 103.001839,113.393082 
	C107.056229,130.268402 112.687782,145.398834 127.929176,155.657333 
	C140.215286,163.926758 151.371201,173.907486 162.810989,183.391373 
	C171.170105,190.321289 179.504761,197.345840 187.203461,204.980484 
	C191.193420,208.937225 193.778244,214.310883 196.680573,219.041687 
	C195.595352,219.255142 194.827438,219.471344 194.059509,219.687561 
	C191.966751,219.437790 189.874008,219.188019 187.313477,218.572662 
	C186.536331,217.820724 186.226944,217.434372 185.917572,217.048035 
z"/>
<path fill="#C20101" opacity="1.000000" stroke="none" 
	d="
M25.881969,97.997231 
	C33.865002,96.092377 40.627373,100.700294 47.961159,102.222359 
	C52.159416,103.093674 56.443554,104.204987 60.264565,106.075378 
	C65.082245,108.433640 70.053238,111.047981 73.924873,114.659485 
	C84.221565,124.264374 94.021324,134.407059 103.903503,144.449249 
	C109.218307,149.850113 113.900688,155.936722 119.579826,160.899872 
	C126.913429,167.308899 135.003342,172.846970 142.663467,178.891998 
	C144.434616,180.289734 145.869934,182.151962 147.312454,183.920609 
	C154.304474,192.493347 161.282333,201.078354 168.171005,209.733994 
	C169.342834,211.206406 170.055908,213.043915 170.968658,215.118256 
	C167.256088,215.040344 163.555756,214.556961 159.422302,213.619598 
	C154.485062,205.102219 150.087097,196.976364 145.404190,189.018204 
	C144.194199,186.961914 142.245407,185.243759 140.369064,183.693283 
	C133.099472,177.686142 125.340797,172.217743 118.465721,165.797562 
	C104.863541,153.095367 91.712204,139.909607 78.414001,126.883408 
	C76.182442,124.697487 74.253670,122.200760 72.005783,120.033508 
	C64.534325,112.830017 54.512608,110.780449 45.262741,107.347298 
	C39.629234,105.256378 33.503227,104.492393 27.405296,102.947159 
	C26.682705,102.082825 26.153261,101.403694 25.623817,100.724571 
	C25.513428,100.341934 25.403038,99.959305 25.437330,99.210709 
	C25.718065,98.575020 25.818050,98.292511 25.881969,97.997231 
z"/>
<path fill="#E80000" opacity="1.000000" stroke="none" 
	d="
M118.936745,47.003624 
	C119.975327,48.739483 121.498383,50.352448 121.974869,52.230888 
	C125.390259,65.695328 122.941841,78.772758 118.943596,91.698326 
	C115.779625,101.926842 114.187111,112.137245 116.834320,122.878349 
	C118.666626,130.312973 121.849945,136.312317 128.186142,140.868408 
	C137.998520,147.924042 147.269394,155.747452 157.219025,162.592453 
	C164.030075,167.278259 171.542511,170.969849 178.852509,174.899155 
	C189.820892,180.794937 198.400650,188.980499 204.083008,200.139389 
	C206.344559,204.580551 208.983109,208.839478 211.064575,213.358887 
	C212.251831,215.936752 212.662262,218.872406 212.873871,221.877625 
	C211.893021,222.359695 211.460785,222.611130 211.028564,222.862564 
	C210.590988,222.853165 210.153412,222.843781 209.391876,222.458618 
	C208.711441,221.731339 208.354950,221.379852 207.998413,220.634644 
	C202.422134,210.750534 197.294495,200.956070 191.131042,191.863770 
	C185.985306,184.272812 177.302078,180.801575 169.758423,175.941498 
	C156.549149,167.431290 144.287216,157.458069 131.147461,148.830246 
	C119.919312,141.457611 113.434906,131.752991 112.248245,118.399155 
	C111.993889,115.536797 111.255661,112.717438 110.740326,109.878265 
	C110.824440,108.817703 110.908554,107.757141 111.337967,106.064011 
	C111.457932,103.287125 111.232605,101.142799 111.378998,98.952072 
	C112.382919,98.422897 113.424881,98.049599 113.587379,97.441353 
	C117.588448,82.465317 121.576050,67.493195 117.537292,51.777081 
	C117.182617,50.396954 118.432266,48.604538 118.936745,47.003624 
z"/>
<path fill="#A70202" opacity="1.000000" stroke="none" 
	d="
M137.395020,214.145798 
	C134.119019,208.999344 131.995163,203.260025 128.216873,198.981827 
	C115.479156,184.558823 102.331490,170.483856 88.991043,156.611969 
	C79.854691,147.111633 69.047760,139.667831 57.295307,133.676910 
	C50.203835,130.061966 43.001293,126.664619 35.917225,123.035660 
	C34.718307,122.421494 33.867062,121.128639 32.516472,120.074409 
	C31.413315,118.244514 30.648878,116.489548 29.941029,114.368332 
	C49.077335,120.479568 66.383751,130.072418 81.214256,143.788086 
	C90.688469,152.550079 99.824028,161.677887 109.129967,170.622375 
	C116.913139,178.103226 124.944832,185.342072 132.437958,193.101898 
	C136.899551,197.722305 140.797043,202.963638 144.403534,208.294266 
	C145.757187,210.295029 148.745178,212.981369 145.043076,216.052216 
	C142.378098,215.489395 140.083572,214.855927 137.395020,214.145798 
z"/>
<path fill="#FF3131" opacity="1.000000" stroke="none" 
	d="
M146.571091,4.829821 
	C147.568680,7.566525 148.886459,10.522732 148.874390,13.473502 
	C148.832275,23.776566 148.098053,34.077244 148.075577,44.379810 
	C148.056900,52.939957 148.669998,61.501480 148.748535,70.729538 
	C148.994446,72.265511 149.495087,73.134323 149.995728,74.003136 
	C149.995712,74.447212 149.995712,74.891296 149.733063,75.875084 
	C149.316879,77.279388 149.163315,78.143982 149.008636,79.338806 
	C149.009094,80.109421 149.010635,80.549820 149.035965,81.323982 
	C149.704453,83.438683 150.349182,85.219620 150.995331,87.400497 
	C150.998337,88.866959 150.999908,89.933479 150.772919,91.171036 
	C151.028183,91.895699 151.511993,92.449326 151.996521,93.402649 
	C151.998367,94.868233 151.999496,95.934120 151.772171,97.171204 
	C152.028137,97.895706 152.512543,98.448997 152.997665,99.335236 
	C152.999329,100.112129 153.000275,100.556061 152.772644,101.171112 
	C153.028366,101.895531 153.512650,102.448837 153.998474,103.001076 
	C154.000000,103.000000 154.000610,102.999695 153.999512,103.332947 
	C153.998062,104.110504 153.997711,104.554810 153.746750,105.212402 
	C155.274307,115.382286 161.982727,122.504707 167.783875,130.133240 
	C168.193649,130.672119 169.248276,130.720642 170.298599,131.125473 
	C171.729431,132.169174 172.864716,133.084595 174.034576,134.346649 
	C177.045685,137.129272 180.022232,139.565247 182.999390,142.000610 
	C183.000000,142.000000 182.998779,142.001221 183.033325,142.341278 
	C184.044846,143.454514 185.021805,144.227692 186.319122,145.140320 
	C187.758438,145.527451 188.877396,145.775162 190.164154,146.263992 
	C190.881134,146.676514 191.430328,146.847916 191.981903,147.265961 
	C191.984314,147.512604 191.993179,148.005844 192.035889,148.326172 
	C192.718643,149.098267 193.358688,149.550049 194.264832,150.122009 
	C195.020905,150.827728 195.510910,151.413254 196.053558,152.343323 
	C197.070587,153.125656 198.034958,153.563446 199.332703,154.001862 
	C200.110489,154.001862 200.554947,154.001236 201.108093,154.219315 
	C201.416916,154.710266 201.678070,154.897385 202.058594,155.357025 
	C204.077438,156.477264 206.037918,157.239853 208.204285,158.264130 
	C209.271942,158.685486 210.133713,158.845154 211.058823,159.361633 
	C212.524658,160.465683 213.847427,161.504745 215.342468,161.913223 
	C225.664322,164.733292 236.022095,167.421875 246.368332,170.152710 
	C244.476715,171.793121 242.585114,173.433533 240.337891,174.667511 
	C238.566483,173.162689 237.305893,171.487732 235.710052,171.058182 
	C224.181656,167.955109 212.191849,165.927399 201.998505,159.361588 
	C191.305389,152.473907 181.352524,144.439453 170.680954,137.515228 
	C158.865860,129.849045 151.657471,118.801628 149.681458,105.580811 
	C146.973465,87.462524 146.177399,69.032341 145.119308,50.703651 
	C144.510300,40.153721 145.121429,29.537216 144.850235,18.959215 
	C144.814743,17.574574 142.791931,16.240885 141.689575,14.883595 
	C143.220215,11.604672 144.750870,8.325751 146.571091,4.829821 
z"/>
<path fill="#DD0000" opacity="1.000000" stroke="none" 
	d="
M196.997864,219.044434 
	C193.778244,214.310883 191.193420,208.937225 187.203461,204.980484 
	C179.504761,197.345840 171.170105,190.321289 162.810989,183.391373 
	C151.371201,173.907486 140.215286,163.926758 127.929176,155.657333 
	C112.687782,145.398834 107.056229,130.268402 103.288391,113.381912 
	C104.037102,112.684669 104.499306,112.400642 104.961502,112.116623 
	C106.011612,111.985802 107.061722,111.854980 108.535889,112.185081 
	C109.359467,116.430367 109.476021,120.270767 110.212410,123.988396 
	C112.280846,134.430756 116.912048,143.268646 126.273224,149.199905 
	C131.449860,152.479813 136.392792,156.147522 141.303482,159.824158 
	C150.712601,166.868790 159.350418,175.266800 169.535065,180.875641 
	C184.335358,189.026413 192.999832,202.043274 201.625092,215.442932 
	C202.618851,216.986755 202.541397,219.220123 202.960602,221.133774 
	C201.598206,221.056366 200.235825,220.978973 198.471237,220.504959 
	C197.711975,219.753708 197.354919,219.399078 196.997864,219.044434 
z"/>
<path fill="#FF2525" opacity="1.000000" stroke="none" 
	d="
M141.439819,15.091711 
	C142.791931,16.240885 144.814743,17.574574 144.850235,18.959215 
	C145.121429,29.537216 144.510300,40.153721 145.119308,50.703651 
	C146.177399,69.032341 146.973465,87.462524 149.681458,105.580811 
	C151.657471,118.801628 158.865860,129.849045 170.680954,137.515228 
	C181.352524,144.439453 191.305389,152.473907 201.998505,159.361588 
	C212.191849,165.927399 224.181656,167.955109 235.710052,171.058182 
	C237.305893,171.487732 238.566483,173.162689 239.992523,174.645691 
	C239.593323,175.357880 239.183899,175.685471 238.150024,175.909393 
	C227.694031,172.375992 217.771332,169.184372 208.051025,165.463913 
	C191.061905,158.961273 178.075638,146.112762 163.087997,136.427277 
	C159.843430,134.330536 156.792236,131.402740 154.679062,128.183533 
	C147.379135,117.062813 144.444427,104.653854 144.899506,91.356049 
	C144.959793,89.594414 143.667236,87.786491 142.999359,85.751579 
	C142.997498,85.503159 142.991974,85.006332 142.994263,84.753792 
	C142.994888,84.332893 142.993240,84.164528 142.993866,83.531113 
	C142.665527,78.376457 142.334900,73.686859 142.005814,68.581726 
	C142.008759,66.780693 142.010162,65.395187 142.364746,63.942535 
	C142.812820,62.249966 142.907700,60.624550 143.002472,58.530556 
	C142.667374,46.449051 142.415634,34.832401 141.895630,23.227770 
	C141.828049,21.720003 140.377487,20.274210 139.567520,18.799709 
	C140.108368,17.633081 140.649200,16.466454 141.439819,15.091711 
z"/>
<path fill="#E20000" opacity="1.000000" stroke="none" 
	d="
M203.179947,221.312424 
	C202.541397,219.220123 202.618851,216.986755 201.625092,215.442932 
	C192.999832,202.043274 184.335358,189.026413 169.535065,180.875641 
	C159.350418,175.266800 150.712601,166.868790 141.303482,159.824158 
	C136.392792,156.147522 131.449860,152.479813 126.273224,149.199905 
	C116.912048,143.268646 112.280846,134.430756 110.212410,123.988396 
	C109.476021,120.270767 109.359467,116.430367 108.933838,112.185623 
	C109.342903,111.158249 109.778107,110.591263 110.476814,109.951271 
	C111.255661,112.717438 111.993889,115.536797 112.248245,118.399155 
	C113.434906,131.752991 119.919312,141.457611 131.147461,148.830246 
	C144.287216,157.458069 156.549149,167.431290 169.758423,175.941498 
	C177.302078,180.801575 185.985306,184.272812 191.131042,191.863770 
	C197.294495,200.956070 202.422134,210.750534 207.683029,220.632843 
	C206.602402,221.233459 205.837097,221.442154 205.071793,221.650848 
	C204.514297,221.597610 203.956787,221.544342 203.179947,221.312424 
z"/>
<path fill="#D70D0D" opacity="1.000000" stroke="none" 
	d="
M107.267227,85.901901 
	C105.704948,78.644577 104.060959,71.403633 102.601410,64.125702 
	C100.843971,55.362343 99.243279,46.567547 97.955261,37.533340 
	C100.086021,38.884983 101.924057,40.404705 103.571846,42.108433 
	C112.576263,51.418530 112.809731,63.008724 111.427078,74.729515 
	C110.974754,78.563866 108.705536,82.183868 107.267227,85.901901 
z"/>
<path fill="#E20000" opacity="1.000000" stroke="none" 
	d="
M118.956757,46.781990 
	C118.432266,48.604538 117.182617,50.396954 117.537292,51.777081 
	C121.576050,67.493195 117.588448,82.465317 113.587379,97.441353 
	C113.424881,98.049599 112.382919,98.422897 111.160431,98.945206 
	C110.279671,98.956543 109.988602,98.947426 109.696930,98.957397 
	C109.486954,98.203453 109.276970,97.449516 109.393280,96.040527 
	C109.814346,93.924080 109.909126,92.462677 110.289734,90.781776 
	C114.762581,80.299927 116.032242,69.658325 114.347969,58.733707 
	C113.478149,53.091843 112.147324,47.521057 111.024796,41.918156 
	C113.513924,43.144947 116.003044,44.371742 118.743423,45.857090 
	C118.994675,46.115646 118.976776,46.560356 118.956757,46.781990 
z"/>
<path fill="#DF0707" opacity="1.000000" stroke="none" 
	d="
M110.897552,41.596527 
	C112.147324,47.521057 113.478149,53.091843 114.347969,58.733707 
	C116.032242,69.658325 114.762581,80.299927 110.063919,90.649475 
	C108.946411,90.152168 108.340530,89.567673 107.734650,88.983170 
	C107.524376,88.219330 107.314102,87.455490 107.185524,86.296776 
	C108.705536,82.183868 110.974754,78.563866 111.427078,74.729515 
	C112.809731,63.008724 112.576263,51.418530 103.571846,42.108433 
	C101.924057,40.404705 100.086021,38.884983 98.056961,37.154362 
	C97.562134,36.591267 97.346146,36.154133 97.592575,35.365963 
	C98.738968,34.985733 99.422958,34.956543 100.106941,34.927353 
	C100.106941,34.927349 100.021385,34.976070 100.076462,35.302681 
	C101.163109,36.057114 102.194695,36.484936 103.226273,36.912758 
	C105.740952,38.366806 108.255623,39.820850 110.897552,41.596527 
z"/>
<path fill="#FF1B1B" opacity="1.000000" stroke="none" 
	d="
M139.310028,19.020950 
	C140.377487,20.274210 141.828049,21.720003 141.895630,23.227770 
	C142.415634,34.832401 142.667374,46.449051 142.756744,58.697815 
	C142.340561,59.889313 142.169983,60.444962 141.749847,61.000320 
	C141.500305,61.000031 141.001221,61.000000 140.949310,60.590496 
	C140.598862,57.737900 140.468262,55.257492 139.936920,52.866127 
	C139.632935,51.497978 138.676987,50.274689 138.014313,48.656124 
	C138.015091,47.885998 138.016113,47.445930 138.383347,46.935280 
	C138.716919,41.120152 138.803329,35.368950 138.483521,29.640429 
	C138.448151,29.006704 136.092239,28.502523 134.812561,27.938263 
	C136.225891,25.039572 137.639221,22.140882 139.310028,19.020950 
z"/>
<path fill="#FFFFF0" opacity="1.000000" stroke="none" 
	d="
M88.952911,67.855453 
	C88.704552,72.045563 88.421440,75.839996 88.138336,79.634430 
	C87.625038,79.741234 87.111740,79.848038 86.598442,79.954842 
	C84.460892,77.422348 82.323334,74.889862 80.031303,72.174355 
	C82.358841,70.330238 84.444748,68.556503 86.685776,67.007126 
	C87.118660,66.707840 88.158379,67.286255 88.952911,67.855453 
z"/>
<path fill="#FF0808" opacity="1.000000" stroke="none" 
	d="
M138.017120,47.005859 
	C138.016113,47.445930 138.015091,47.885998 138.008911,49.107681 
	C138.000671,52.594440 137.997589,55.299583 137.994507,58.004730 
	C137.329742,56.560738 136.271225,55.168186 136.074585,53.663033 
	C135.501236,49.274635 135.508392,44.802006 134.784546,40.446060 
	C134.519424,38.850708 132.841385,37.490158 131.419769,36.012138 
	C131.667404,34.409573 132.303162,32.817371 133.565247,31.160845 
	C135.127670,33.902813 136.239761,36.665691 136.946030,39.528679 
	C137.546082,41.961121 137.678040,44.509037 138.017120,47.005859 
z"/>
<path fill="#FF0F0F" opacity="1.000000" stroke="none" 
	d="
M138.383331,46.935280 
	C137.678040,44.509037 137.546082,41.961121 136.946030,39.528679 
	C136.239761,36.665691 135.127670,33.902813 133.815125,30.925266 
	C133.722870,29.944510 134.007019,29.135010 134.551865,28.131889 
	C136.092239,28.502523 138.448151,29.006704 138.483521,29.640429 
	C138.803329,35.368950 138.716919,41.120152 138.383331,46.935280 
z"/>
<path fill="#E46E6E" opacity="1.000000" stroke="none" 
	d="
M25.701290,97.693207 
	C25.818050,98.292511 25.718065,98.575020 25.369843,98.919601 
	C23.992428,96.452187 22.827181,93.909927 21.661934,91.367676 
	C21.985588,90.960960 22.309242,90.554253 22.632896,90.147537 
	C25.067390,90.743851 27.501884,91.340164 30.146709,92.214066 
	C28.435341,92.491661 26.513645,92.491661 23.893160,92.491661 
	C24.455910,94.185158 24.988262,95.787170 25.701290,97.693207 
z"/>
<path fill="#E46E6E" opacity="1.000000" stroke="none" 
	d="
M25.486748,101.094833 
	C26.153261,101.403694 26.682705,102.082825 27.459991,103.288040 
	C27.970772,104.923332 28.233709,106.032547 28.613995,107.469406 
	C29.154068,108.862999 29.576796,109.928940 29.999525,110.994888 
	C29.928402,111.231400 29.857277,111.467911 29.588249,112.017456 
	C28.043457,108.708694 26.696568,105.086899 25.486748,101.094833 
z"/>
<path fill="#E46E6E" opacity="1.000000" stroke="none" 
	d="
M72.652397,80.026276 
	C71.649651,83.340591 70.295769,86.675499 68.605644,90.089272 
	C69.613358,86.794380 70.957314,83.420631 72.652397,80.026276 
z"/>
<path fill="#D70D0D" opacity="1.000000" stroke="none" 
	d="
M86.877304,93.695267 
	C84.941650,92.059380 82.943962,90.098206 80.910294,87.803528 
	C82.854630,89.436676 84.834946,91.403328 86.877304,93.695267 
z"/>
<path fill="#E46E6E" opacity="1.000000" stroke="none" 
	d="
M57.730202,98.023682 
	C55.671326,97.945778 53.365723,97.587265 50.882828,96.956642 
	C52.964848,97.037376 55.224159,97.390221 57.730202,98.023682 
z"/>
<path fill="#E46E6E" opacity="1.000000" stroke="none" 
	d="
M39.179718,94.119827 
	C37.077747,94.038696 34.768173,93.701851 32.223640,93.064697 
	C34.316490,93.130959 36.644306,93.497536 39.179718,94.119827 
z"/>
<path fill="#D70D0D" opacity="1.000000" stroke="none" 
	d="
M107.625404,89.336990 
	C108.340530,89.567673 108.946411,90.152168 109.778099,90.868973 
	C109.909126,92.462677 109.814346,93.924080 109.474426,95.650269 
	C108.658241,93.840302 108.087204,91.765556 107.625404,89.336990 
z"/>
<path fill="#D70D0D" opacity="1.000000" stroke="none" 
	d="
M109.580002,99.312286 
	C109.988602,98.947426 110.279671,98.956543 110.788712,98.991608 
	C111.232605,101.142799 111.457932,103.287125 111.438171,105.676895 
	C110.616409,103.837280 110.039749,101.752235 109.580002,99.312286 
z"/>
<path fill="#E46E6E" opacity="1.000000" stroke="none" 
	d="
M47.789505,95.956497 
	C46.107727,95.955879 44.232353,95.678352 42.174007,95.110931 
	C43.859325,95.107216 45.727619,95.393402 47.789505,95.956497 
z"/>
<path fill="#E46E6E" opacity="1.000000" stroke="none" 
	d="
M67.045715,92.761726 
	C67.263405,93.440910 67.214539,94.287582 67.046021,95.449707 
	C66.601776,95.857903 66.307594,96.009613 65.796463,96.253006 
	C65.959122,95.166878 66.369133,94.048042 67.045715,92.761726 
z"/>
<path fill="#E46E6E" opacity="1.000000" stroke="none" 
	d="
M62.800129,98.341599 
	C62.151901,98.683235 61.066780,98.902489 59.850227,98.873108 
	C60.600273,98.489380 61.481754,98.354294 62.800129,98.341599 
z"/>
<path fill="#D70D0D" opacity="1.000000" stroke="none" 
	d="
M103.069145,36.630058 
	C102.194695,36.484936 101.163109,36.057114 100.098679,35.258751 
	C101.014557,35.374596 101.963287,35.860977 103.069145,36.630058 
z"/>
<path fill="#D70D0D" opacity="1.000000" stroke="none" 
	d="
M100.008965,34.657509 
	C99.422958,34.956543 98.738968,34.985733 97.712921,35.013275 
	C98.217560,34.803635 99.064278,34.595650 100.008965,34.657509 
z"/>
<path fill="#D70D0D" opacity="1.000000" stroke="none" 
	d="
M95.186783,102.528793 
	C94.494370,102.233513 93.743233,101.649696 92.982002,100.727661 
	C93.690628,101.006378 94.409348,101.623322 95.186783,102.528793 
z"/>
<path fill="#D70D0D" opacity="1.000000" stroke="none" 
	d="
M99.064041,106.647079 
	C98.458908,106.471504 97.787331,105.993629 97.121552,105.166473 
	C97.750763,105.326393 98.374184,105.835594 99.064041,106.647079 
z"/>
<path fill="#D70D0D" opacity="1.000000" stroke="none" 
	d="
M104.771828,111.895264 
	C104.499306,112.400642 104.037102,112.684669 103.288345,112.979874 
	C102.993973,112.551811 102.986145,112.112572 102.986885,111.343887 
	C103.524345,111.234261 104.053253,111.454094 104.771828,111.895264 
z"/>
<path fill="#D70D0D" opacity="1.000000" stroke="none" 
	d="
M97.116013,104.574791 
	C96.500725,104.406548 95.819984,103.936737 95.162567,103.110550 
	C95.807449,103.260513 96.429008,103.766876 97.116013,104.574791 
z"/>
<path fill="#FF9E9E" opacity="1.000000" stroke="none" 
	d="
M217.881210,87.958931 
	C220.089645,85.576752 222.298065,83.194580 225.088257,80.184891 
	C227.479065,85.417183 229.840698,89.749779 231.450043,94.345802 
	C233.018158,98.824127 236.042984,99.733017 240.011292,98.922112 
	C250.044312,96.871910 260.041962,94.648933 270.059845,92.523819 
	C271.455048,92.227852 272.884521,92.093369 275.615997,91.689064 
	C272.513611,100.444458 269.747314,108.251343 266.406738,115.901443 
	C263.981354,115.942482 261.992096,115.770401 260.302765,116.401352 
	C252.455826,119.332153 244.500595,119.993294 236.363235,118.040520 
	C228.133469,116.065567 224.056335,110.835892 224.005035,102.310738 
	C223.977356,97.709679 224.000107,93.108315 224.000107,87.958931 
	C221.472748,87.958931 219.676971,87.958931 217.881210,87.958931 
z"/>
<path fill="#FF9797" opacity="1.000000" stroke="none" 
	d="
M217.585861,88.107590 
	C219.676971,87.958931 221.472748,87.958931 224.000107,87.958931 
	C224.000107,93.108315 223.977356,97.709679 224.005035,102.310738 
	C224.056335,110.835892 228.133469,116.065567 236.363235,118.040520 
	C244.500595,119.993294 252.455826,119.332153 260.302765,116.401352 
	C261.992096,115.770401 263.981354,115.942482 266.088226,116.069519 
	C265.412476,120.083961 264.480957,123.773521 262.964294,127.501221 
	C260.575775,127.040848 258.766846,126.106819 256.970123,126.129776 
	C252.520081,126.186653 248.070526,127.002098 243.629990,126.931755 
	C234.926010,126.793861 226.996765,124.586891 220.998184,117.558807 
	C216.105530,111.826454 210.923523,106.341080 205.869812,100.746201 
	C209.676712,96.582886 213.483612,92.419571 217.585861,88.107590 
z"/>
<path fill="#BB0101" opacity="1.000000" stroke="none" 
	d="
M28.496647,107.141754 
	C28.233709,106.032547 27.970772,104.923332 27.653137,103.473251 
	C33.503227,104.492393 39.629234,105.256378 45.262741,107.347298 
	C54.512608,110.780449 64.534325,112.830017 72.005783,120.033508 
	C74.253670,122.200760 76.182442,124.697487 78.414001,126.883408 
	C91.712204,139.909607 104.863541,153.095367 118.465721,165.797562 
	C125.340797,172.217743 133.099472,177.686142 140.369064,183.693283 
	C142.245407,185.243759 144.194199,186.961914 145.404190,189.018204 
	C150.087097,196.976364 154.485062,205.102219 158.994568,213.527603 
	C157.616333,214.334061 156.232681,214.778534 154.452637,214.905975 
	C153.290588,212.604980 152.579010,210.598053 151.749802,208.640976 
	C148.178146,200.211319 144.379929,192.093430 137.330841,185.648651 
	C125.979591,175.270523 113.236565,166.594757 102.919319,154.858932 
	C93.094948,143.683762 81.364334,134.182755 70.443657,123.975845 
	C69.485855,123.080643 68.405724,122.229942 67.234985,121.663048 
	C59.923798,118.122826 52.728271,114.264366 45.177677,111.324982 
	C39.877701,109.261757 34.074905,108.490150 28.496647,107.141754 
z"/>
<path fill="#B40000" opacity="1.000000" stroke="none" 
	d="
M28.613995,107.469398 
	C34.074905,108.490150 39.877701,109.261757 45.177677,111.324982 
	C52.728271,114.264366 59.923798,118.122826 67.234985,121.663048 
	C68.405724,122.229942 69.485855,123.080643 70.443657,123.975845 
	C81.364334,134.182755 93.094948,143.683762 102.919319,154.858932 
	C113.236565,166.594757 125.979591,175.270523 137.330841,185.648651 
	C144.379929,192.093430 148.178146,200.211319 151.749802,208.640976 
	C152.579010,210.598053 153.290588,212.604980 154.095444,214.992859 
	C153.683746,215.734055 153.232880,216.071350 152.475616,216.423615 
	C150.580048,213.204803 149.201599,209.844467 147.352982,206.766495 
	C144.485092,201.991425 142.015701,196.671829 138.120224,192.871811 
	C121.017303,176.187973 103.823044,159.559631 85.930412,143.738434 
	C75.961731,134.923843 67.005524,124.453026 54.017803,119.527870 
	C46.316696,116.607475 38.558838,113.836754 30.413012,110.996811 
	C29.576796,109.928940 29.154068,108.862999 28.613995,107.469398 
z"/>
<path fill="#FF7777" opacity="1.000000" stroke="none" 
	d="
M186.998108,104.999435 
	C187.542648,107.073097 188.087204,109.146767 188.834412,111.892647 
	C189.435394,113.611862 189.550369,114.951096 190.278946,115.657524 
	C194.396088,119.649597 198.522217,123.653801 202.903717,127.347275 
	C211.667969,134.735229 221.514954,140.040405 233.120346,141.153320 
	C243.607712,142.159042 254.122955,142.988632 264.645447,143.427643 
	C267.080170,143.529205 269.594391,141.724869 272.072052,140.797546 
	C273.268585,141.250824 274.465118,141.704117 275.931091,142.711594 
	C276.469849,143.852356 276.739136,144.438904 277.008453,145.025467 
	C275.559448,146.325943 274.110443,147.626419 272.318451,148.572693 
	C271.265656,147.505493 270.588135,146.217178 269.840698,146.175293 
	C265.775116,145.947433 261.671539,146.281723 257.619537,145.950974 
	C247.078003,145.090530 236.303284,145.080368 226.086426,142.719482 
	C210.783203,139.183228 196.910721,132.167892 188.609497,117.822060 
	C184.374893,110.503952 181.540329,102.382294 177.396820,95.003510 
	C168.885910,79.847229 165.984039,63.611359 167.119736,46.518963 
	C167.245789,44.621891 169.010513,42.833694 170.015259,40.995003 
	C171.353668,42.754425 172.692078,44.513851 173.770935,46.612968 
	C172.674240,48.431076 171.199295,49.867390 171.098480,51.394413 
	C170.076935,66.869675 174.196457,81.246078 181.023712,94.947372 
	C182.425247,97.760056 184.329376,100.322311 186.021301,103.298523 
	C186.359879,104.064499 186.678986,104.531967 186.998108,104.999435 
z"/>
<path fill="#FF9090" opacity="1.000000" stroke="none" 
	d="
M205.590668,100.936432 
	C210.923523,106.341080 216.105530,111.826454 220.998184,117.558807 
	C226.996765,124.586891 234.926010,126.793861 243.629990,126.931755 
	C248.070526,127.002098 252.520081,126.186653 256.970123,126.129776 
	C258.766846,126.106819 260.575775,127.040848 262.682312,127.765625 
	C262.405701,129.719818 261.825928,131.447754 260.787598,133.564301 
	C252.251907,133.625992 244.133881,133.694824 236.108459,132.866623 
	C227.156372,131.942810 220.440857,126.455078 214.012329,120.582939 
	C209.060043,116.059311 204.348648,110.990967 197.126343,110.033844 
	C199.854721,107.064781 202.583115,104.095718 205.590668,100.936432 
z"/>
<path fill="#FF0F0F" opacity="1.000000" stroke="none" 
	d="
M142.004272,68.997253 
	C142.334900,73.686859 142.665527,78.376457 142.579224,83.547974 
	C141.442841,85.093178 140.126999,86.138901 140.095062,87.222450 
	C139.724030,99.818825 139.326279,112.383453 145.122238,124.228676 
	C151.018311,136.278503 161.044998,143.201111 172.999695,148.000305 
	C173.000000,148.000000 172.999390,148.000610 173.054337,148.349426 
	C174.739319,149.465683 176.369354,150.233139 177.999695,151.000305 
	C178.000000,151.000000 177.999390,151.000610 178.052841,151.344818 
	C179.070450,152.126419 180.034592,152.563812 180.999374,153.000610 
	C181.000000,153.000000 180.998779,153.001831 181.052460,153.345871 
	C182.070099,154.127304 183.034088,154.564713 184.302719,155.151154 
	C193.135818,162.223938 203.263260,166.257690 213.050659,171.355377 
	C215.031494,172.835770 216.903488,174.072662 218.892563,175.077850 
	C223.317291,177.313873 227.800644,179.433945 232.260086,181.601288 
	C230.709396,182.999573 229.158722,184.397873 227.289368,185.496918 
	C226.423691,180.387939 221.765060,181.264633 219.019623,179.586273 
	C198.251648,166.890244 176.980240,154.966309 156.703262,141.537125 
	C143.790543,132.985168 136.819748,119.797615 137.095154,103.855934 
	C137.286301,92.791428 138.359085,81.741547 139.092743,70.688766 
	C139.131271,70.108353 139.682159,69.561943 140.329514,68.999939 
	C141.111099,68.999199 141.557693,68.998222 142.004272,68.997253 
z"/>
<path fill="#FF0808" opacity="1.000000" stroke="none" 
	d="
M139.994507,68.999695 
	C139.682159,69.561943 139.131271,70.108353 139.092743,70.688766 
	C138.359085,81.741547 137.286301,92.791428 137.095154,103.855934 
	C136.819748,119.797615 143.790543,132.985168 156.703262,141.537125 
	C176.980240,154.966309 198.251648,166.890244 219.019623,179.586273 
	C221.765060,181.264633 226.423691,180.387939 226.977356,185.571075 
	C225.885223,186.961929 224.786453,187.979401 223.366562,189.058304 
	C221.852737,187.315125 221.064423,184.886078 219.400772,183.808716 
	C209.667862,177.505875 199.715958,171.542068 189.865097,165.420212 
	C177.779282,157.909409 165.241226,151.011826 153.777908,142.644608 
	C141.129578,133.412445 132.375671,121.085327 133.134079,104.424919 
	C133.484879,96.718979 135.507584,89.102974 136.255432,81.396042 
	C136.694977,76.866341 135.963867,72.234528 136.071274,67.655960 
	C136.119797,65.587982 136.928741,63.537846 137.946075,61.239670 
	C138.667725,60.999821 138.835999,60.999912 139.003403,61.415962 
	C139.333191,64.221184 139.663849,66.610435 139.994507,68.999695 
z"/>
<path fill="#FF7171" opacity="1.000000" stroke="none" 
	d="
M169.986572,40.668785 
	C169.010513,42.833694 167.245789,44.621891 167.119736,46.518963 
	C165.984039,63.611359 168.885910,79.847229 177.396820,95.003510 
	C181.540329,102.382294 184.374893,110.503952 188.609497,117.822060 
	C196.910721,132.167892 210.783203,139.183228 226.086426,142.719482 
	C236.303284,145.080368 247.078003,145.090530 257.619537,145.950974 
	C261.671539,146.281723 265.775116,145.947433 269.840698,146.175293 
	C270.588135,146.217178 271.265656,147.505493 271.987732,148.610886 
	C270.935608,150.089615 269.871216,151.175949 268.404480,151.962189 
	C266.504822,150.803452 265.077576,149.387695 263.497314,149.188934 
	C258.422363,148.550659 253.274490,148.513489 248.185028,147.964066 
	C240.815491,147.168488 233.332443,146.731506 226.147369,145.065338 
	C211.417770,141.649597 197.644745,136.210052 188.735718,122.795380 
	C188.436432,122.344734 187.591705,122.256325 186.966248,121.649513 
	C185.953568,119.200508 184.975876,117.101082 183.962036,114.640930 
	C181.437561,109.214241 179.340897,103.906479 176.389938,99.126076 
	C166.136215,82.515541 163.355209,64.226212 164.285507,45.244606 
	C164.427979,42.337547 162.771500,37.668846 167.486176,35.858376 
	C168.310074,37.353104 169.133987,38.847836 169.986572,40.668785 
z"/>
<path fill="#FF6565" opacity="1.000000" stroke="none" 
	d="
M183.998169,115.001648 
	C184.975876,117.101082 185.953568,119.200508 187.001389,122.005539 
	C190.478210,126.849815 193.199753,131.950195 197.415329,134.953522 
	C212.267807,145.535004 229.579422,148.697769 247.404587,150.101974 
	C253.909042,150.614349 260.323181,152.273331 266.778534,153.409241 
	C265.442505,154.636459 264.106506,155.863693 262.374084,156.798935 
	C260.736816,155.665894 259.582458,154.289719 258.240692,154.072830 
	C250.923767,152.890091 243.564850,151.960632 236.212601,151.003967 
	C221.917084,149.143860 208.416397,144.987244 196.241852,137.087555 
	C193.382080,135.231949 190.742233,133.037399 188.000290,130.749649 
	C187.999359,130.500519 187.997559,130.002274 187.961639,129.641907 
	C184.351746,122.772842 181.147781,116.024902 177.126389,109.805519 
	C168.878128,97.048981 162.068954,83.849136 160.903946,68.350266 
	C160.841751,67.523003 159.662766,66.779678 159.003189,65.664398 
	C159.002762,64.887672 159.002808,64.443840 159.298767,63.705170 
	C159.729782,55.111992 159.665024,46.803642 160.079529,38.519279 
	C160.306183,33.989372 161.343460,29.500031 162.015198,24.992393 
	C162.886047,26.635683 163.756897,28.278975 164.303558,30.498089 
	C160.635208,44.274567 161.640594,57.535923 163.432541,70.806526 
	C165.601181,86.866745 174.333069,100.102135 182.011139,113.781502 
	C182.343399,114.373489 183.321121,114.603188 183.998169,115.001648 
z"/>
<path fill="#FF1C1C" opacity="1.000000" stroke="none" 
	d="
M212.994949,171.006714 
	C203.263260,166.257690 193.135818,162.223938 184.162369,154.861542 
	C182.811172,153.949203 181.904968,153.475525 180.998779,153.001831 
	C180.998779,153.001831 181.000000,153.000000 180.858795,152.711182 
	C179.811508,151.948456 178.905457,151.474533 177.999390,151.000610 
	C177.999390,151.000610 178.000000,151.000000 177.849289,150.699799 
	C176.132187,149.599930 174.565796,148.800262 172.999390,148.000610 
	C172.999390,148.000610 173.000000,148.000000 172.847519,147.697449 
	C169.169037,144.949371 165.748734,142.331680 162.097656,140.089828 
	C150.085037,132.713791 145.319336,121.103165 143.256378,107.799965 
	C143.008499,106.733330 142.506378,105.866180 142.003357,104.530807 
	C142.002029,98.039825 142.001617,92.017044 142.251190,85.995514 
	C142.667892,85.997833 142.834564,85.998917 143.001221,86.000000 
	C143.667236,87.786491 144.959793,89.594414 144.899506,91.356049 
	C144.444427,104.653854 147.379135,117.062813 154.679062,128.183533 
	C156.792236,131.402740 159.843430,134.330536 163.087997,136.427277 
	C178.075638,146.112762 191.061905,158.961273 208.051025,165.463913 
	C217.771332,169.184372 227.694031,172.375992 237.890106,175.958221 
	C237.436859,177.122177 236.619125,178.133621 235.261353,178.907654 
	C227.479187,176.115723 220.237061,173.561218 212.994949,171.006714 
z"/>
<path fill="#FF8888" opacity="1.000000" stroke="none" 
	d="
M196.794128,110.193787 
	C204.348648,110.990967 209.060043,116.059311 214.012329,120.582939 
	C220.440857,126.455078 227.156372,131.942810 236.108459,132.866623 
	C244.133881,133.694824 252.251907,133.625992 260.825378,133.912384 
	C262.985138,135.260208 264.648560,136.648560 265.940674,138.449554 
	C259.921906,138.907455 254.228409,139.431931 248.636978,138.894485 
	C238.195786,137.890884 227.374863,138.081406 218.207413,131.611389 
	C209.140244,125.212128 200.070602,118.816353 191.002045,112.419052 
	C192.821991,111.730606 194.641937,111.042168 196.794128,110.193787 
z"/>
<path fill="#FF8080" opacity="1.000000" stroke="none" 
	d="
M190.702118,112.259171 
	C200.070602,118.816353 209.140244,125.212128 218.207413,131.611389 
	C227.374863,138.081406 238.195786,137.890884 248.636978,138.894485 
	C254.228409,139.431931 259.921906,138.907455 266.088318,138.751678 
	C268.275177,139.194748 269.943085,139.748367 271.841522,140.549759 
	C269.594391,141.724869 267.080170,143.529205 264.645447,143.427643 
	C254.122955,142.988632 243.607712,142.159042 233.120346,141.153320 
	C221.514954,140.040405 211.667969,134.735229 202.903717,127.347275 
	C198.522217,123.653801 194.396088,119.649597 190.278946,115.657524 
	C189.550369,114.951096 189.435394,113.611862 189.059860,112.181885 
	C189.522507,111.899033 189.962341,111.999153 190.702118,112.259171 
z"/>
<path fill="#FF9696" opacity="1.000000" stroke="none" 
	d="
M185.938965,42.795864 
	C189.682938,40.540306 193.426910,38.284752 197.774323,36.124458 
	C198.919220,36.813389 199.460678,37.407055 200.002136,38.000717 
	C199.622513,40.399506 199.242889,42.798294 198.444504,45.671608 
	C189.089050,52.763416 189.550613,62.305962 190.232727,71.810822 
	C190.313187,72.931900 191.919998,73.943443 192.819244,75.005760 
	C192.499435,77.399590 192.179642,79.793419 191.492310,82.634048 
	C191.050598,83.708221 190.976425,84.335587 190.902252,84.962959 
	C190.808334,85.830719 190.714417,86.698479 190.021866,87.745224 
	C188.707520,87.075577 187.527390,86.313385 187.350723,85.364410 
	C186.117325,78.738770 184.363739,72.093132 184.192627,65.417610 
	C183.999832,57.896893 185.292435,50.338097 185.938965,42.795864 
z"/>
<path fill="#FF4646" opacity="1.000000" stroke="none" 
	d="
M151.992065,76.006996 
	C151.419388,64.470261 150.326797,52.929161 150.423660,41.398048 
	C150.516220,30.378450 151.846481,19.369246 152.970459,8.109543 
	C154.100021,9.269783 154.891800,10.675954 155.339050,12.609093 
	C154.331528,20.091978 153.668503,27.047897 153.004425,34.467987 
	C153.334381,41.954983 153.665405,48.977802 153.705200,56.286427 
	C153.570312,60.106503 151.079315,64.041130 154.993439,67.381248 
	C154.994720,68.503242 154.994614,69.251320 154.706818,70.276016 
	C154.154648,84.048347 156.915039,96.894073 164.058609,108.375427 
	C168.852432,116.080200 174.549072,123.236580 180.052109,130.478485 
	C181.664581,132.600418 183.997757,134.174713 186.108597,136.258423 
	C186.478333,137.010529 186.740082,137.504227 187.000961,138.373260 
	C187.000214,139.498856 187.000351,140.249130 186.700775,140.855255 
	C171.418304,125.642380 156.917664,110.284912 153.882675,87.843605 
	C153.789658,87.155846 152.654236,86.609062 151.879150,85.703156 
	C151.506165,84.609169 151.258804,83.808586 151.351730,82.949394 
	C151.792343,81.593246 151.892670,80.295700 151.993866,78.624176 
	C151.993835,77.502464 151.992950,76.754730 151.992065,76.006996 
z"/>
<path fill="#FF8C8C" opacity="1.000000" stroke="none" 
	d="
M185.593018,42.889130 
	C185.292435,50.338097 183.999832,57.896893 184.192627,65.417610 
	C184.363739,72.093132 186.117325,78.738770 187.350723,85.364410 
	C187.527390,86.313385 188.707520,87.075577 189.801697,87.991005 
	C190.115204,89.110672 190.050247,90.163551 189.610428,91.646545 
	C189.198349,92.733681 189.161133,93.390701 189.123917,94.047729 
	C188.988785,95.207115 188.853668,96.366493 188.132935,97.743546 
	C186.703262,96.826775 185.610916,95.802193 185.052994,94.541168 
	C178.434219,79.581459 175.906128,63.907337 177.066574,47.614388 
	C179.793411,46.070389 182.520248,44.526394 185.593018,42.889130 
z"/>
<path fill="#FF8181" opacity="1.000000" stroke="none" 
	d="
M176.808548,47.504772 
	C175.906128,63.907337 178.434219,79.581459 185.052994,94.541168 
	C185.610916,95.802193 186.703262,96.826775 187.928024,98.027023 
	C188.189423,99.455971 188.070114,100.819099 187.540359,102.578964 
	C186.753891,102.983810 186.377853,102.991905 186.001831,103.000000 
	C184.329376,100.322311 182.425247,97.760056 181.023712,94.947372 
	C174.196457,81.246078 170.076935,66.869675 171.098480,51.394413 
	C171.199295,49.867390 172.674240,48.431076 173.963120,46.895462 
	C175.126740,47.023895 175.838638,47.209530 176.808548,47.504772 
z"/>
<path fill="#FF5959" opacity="1.000000" stroke="none" 
	d="
M187.997559,130.002274 
	C187.997559,130.002274 187.999359,130.500519 187.999786,131.124481 
	C188.001144,132.498032 188.002106,133.247635 188.001526,133.998611 
	C188.000000,134.000000 187.998779,134.000656 187.739807,133.893433 
	C186.986267,133.525055 186.491699,133.263901 185.778519,132.893845 
	C185.287292,132.585129 185.099991,132.324081 184.962006,131.648972 
	C177.965805,119.899078 170.733627,108.655548 164.173813,97.032562 
	C161.388992,92.098274 160.013931,86.368332 157.998169,80.625534 
	C157.996750,79.502136 157.995316,78.753204 157.995941,77.608368 
	C157.333633,75.807060 156.669266,74.401665 156.004211,72.621674 
	C156.002991,71.497902 156.002426,70.748726 156.282654,69.737823 
	C156.044144,67.316010 155.524811,65.155907 155.004883,62.558601 
	C155.004288,60.081036 155.004272,58.040668 155.299927,55.705181 
	C155.398071,48.273594 155.200562,41.137131 155.034607,33.655376 
	C155.376022,32.206703 155.685867,31.103319 156.287048,29.719109 
	C157.105118,25.492403 157.631897,21.546526 158.158676,17.600651 
	C158.824905,18.725559 159.491135,19.850468 159.996674,21.703043 
	C159.340271,36.043022 158.841125,49.655216 158.377151,63.268612 
	C158.369080,63.505024 158.784851,63.755882 159.002853,64.000000 
	C159.002808,64.443840 159.002762,64.887672 159.001648,66.108017 
	C159.295486,78.710945 162.665588,89.714157 168.419434,99.932526 
	C173.374969,108.733147 178.720490,117.317322 184.034286,125.910187 
	C185.009903,127.487862 186.659210,128.648926 187.997559,130.002274 
z"/>
<path fill="#FF6B6B" opacity="1.000000" stroke="none" 
	d="
M183.962036,114.640930 
	C183.321121,114.603188 182.343399,114.373489 182.011139,113.781502 
	C174.333069,100.102135 165.601181,86.866745 163.432541,70.806526 
	C161.640594,57.535923 160.635208,44.274567 164.391830,30.844795 
	C165.650192,32.135674 166.496078,33.655674 167.414078,35.517025 
	C162.771500,37.668846 164.427979,42.337547 164.285507,45.244606 
	C163.355209,64.226212 166.136215,82.515541 176.389938,99.126076 
	C179.340897,103.906479 181.437561,109.214241 183.962036,114.640930 
z"/>
<path fill="#FF4E4E" opacity="1.000000" stroke="none" 
	d="
M256.328278,162.135727 
	C255.076706,163.264496 253.825150,164.393265 252.239639,165.440063 
	C251.905685,165.358093 251.871246,165.023682 251.865784,164.680847 
	C250.240005,163.890671 248.619705,163.443329 246.667084,162.995850 
	C245.891724,162.995331 245.448669,162.994919 244.950531,162.650711 
	C243.929901,161.872086 242.964340,161.437256 241.665649,161.001770 
	C240.888351,161.000977 240.444168,161.000854 239.768311,160.728363 
	C238.357346,160.304596 237.178055,160.153214 235.623932,160.001282 
	C234.499390,160.000870 233.749695,160.001022 232.854889,159.775208 
	C232.139664,159.698318 231.569519,159.847382 230.625214,159.996399 
	C229.502670,159.995728 228.754303,159.995117 227.973770,159.702454 
	C227.294189,159.272446 226.646790,159.134476 225.667114,158.996231 
	C224.891800,158.995514 224.448761,158.995071 223.973587,158.702576 
	C223.294098,158.272476 222.646744,158.134430 221.667114,157.996170 
	C220.891800,157.995575 220.448746,157.995193 219.962372,157.674713 
	C219.278580,156.904465 218.638153,156.454315 217.606903,156.002563 
	C215.839722,155.558334 214.428513,155.201538 213.092834,154.658813 
	C206.051804,151.797760 199.029816,148.889832 191.892792,145.779236 
	C191.585297,145.287094 191.324860,145.098694 191.002899,144.596069 
	C191.000687,143.132385 190.998657,142.067749 191.330719,141.001923 
	C192.110214,141.000153 192.555618,140.999557 193.250168,140.999939 
	C193.499298,141.000885 193.997574,141.002823 194.036957,141.355255 
	C194.834015,142.522751 195.447403,143.594284 196.371231,144.113953 
	C208.361755,150.858978 221.183319,155.024139 234.811920,157.104095 
	C242.070923,158.211945 249.161621,160.422760 256.328278,162.135727 
z"/>
<path fill="#FF6B6B" opacity="1.000000" stroke="none" 
	d="
M266.992249,153.372208 
	C260.323181,152.273331 253.909042,150.614349 247.404587,150.101974 
	C229.579422,148.697769 212.267807,145.535004 197.415329,134.953522 
	C193.199753,131.950195 190.478210,126.849815 187.036362,122.355118 
	C187.591705,122.256325 188.436432,122.344734 188.735718,122.795380 
	C197.644745,136.210052 211.417770,141.649597 226.147369,145.065338 
	C233.332443,146.731506 240.815491,147.168488 248.185028,147.964066 
	C253.274490,148.513489 258.422363,148.550659 263.497314,149.188934 
	C265.077576,149.387695 266.504822,150.803452 268.091919,152.077744 
	C267.856445,152.774002 267.531219,153.054596 266.992249,153.372208 
z"/>
<path fill="#FF5F5F" opacity="1.000000" stroke="none" 
	d="
M188.003052,133.997223 
	C188.002106,133.247635 188.001144,132.498032 188.000702,131.373611 
	C190.742233,133.037399 193.382080,135.231949 196.241852,137.087555 
	C208.416397,144.987244 221.917084,149.143860 236.212601,151.003967 
	C243.564850,151.960632 250.923767,152.890091 258.240692,154.072830 
	C259.582458,154.289719 260.736816,155.665894 262.047974,156.910950 
	C261.275177,158.139893 260.432068,158.964844 259.282166,159.431702 
	C257.682343,153.909225 253.019867,155.826172 249.916855,155.140945 
	C237.999405,152.509216 225.773666,151.103592 214.039856,147.872025 
	C206.678055,145.844513 199.988541,141.375946 192.748337,138.001556 
	C192.499268,138.000519 192.001038,137.998962 191.966812,137.655823 
	C190.622742,136.207520 189.312897,135.102371 188.003052,133.997223 
z"/>
<path fill="#FF4242" opacity="1.000000" stroke="none" 
	d="
M220.005707,157.994827 
	C220.448746,157.995193 220.891800,157.995575 221.834534,158.242462 
	C222.891388,158.657516 223.448563,158.826080 224.005722,158.994629 
	C224.448761,158.995071 224.891800,158.995514 225.834564,159.242493 
	C226.891525,159.657516 227.448730,159.826004 228.005951,159.994507 
	C228.754303,159.995117 229.502670,159.995728 230.770264,160.222778 
	C231.859665,160.299866 232.429825,160.150528 233.000000,160.001175 
	C233.749695,160.001022 234.499390,160.000870 235.680298,160.342361 
	C237.407669,160.789597 238.703827,160.895172 240.000000,161.000748 
	C240.444168,161.000854 240.888351,161.000977 241.719513,161.346100 
	C243.072876,162.125549 244.039230,162.560028 245.005600,162.994507 
	C245.448669,162.994919 245.891724,162.995331 246.874893,163.260239 
	C248.900406,164.024384 250.385834,164.524033 251.871246,165.023682 
	C251.871246,165.023682 251.905685,165.358093 251.933121,165.523895 
	C251.409348,166.204681 250.858139,166.719666 249.626785,167.116974 
	C246.938934,166.272568 244.978745,165.347733 242.915451,164.852814 
	C233.149643,162.510361 223.351685,160.302261 213.574417,158.006958 
	C211.032761,157.410278 208.524353,156.671997 205.680115,155.859558 
	C204.239792,155.480042 203.119995,155.239716 202.000214,154.999390 
	C201.678070,154.897385 201.416916,154.710266 201.055328,153.874817 
	C199.929260,152.874405 198.964630,152.437210 197.666809,151.999191 
	C196.889404,151.998520 196.445160,151.998657 196.000931,151.998779 
	C195.510910,151.413254 195.020905,150.827728 194.223785,149.800735 
	C193.275528,148.908127 192.634354,148.456985 191.993179,148.005844 
	C191.993179,148.005844 191.984314,147.512604 191.989166,147.010590 
	C191.996414,146.338440 191.998825,146.168304 192.001221,145.998169 
	C199.029816,148.889832 206.051804,151.797760 213.092834,154.658813 
	C214.428513,155.201538 215.839722,155.558334 217.649399,156.322968 
	C218.723709,157.094940 219.364716,157.544891 220.005707,157.994827 
z"/>
<path fill="#FF5959" opacity="1.000000" stroke="none" 
	d="
M192.997406,138.002594 
	C199.988541,141.375946 206.678055,145.844513 214.039856,147.872025 
	C225.773666,151.103592 237.999405,152.509216 249.916855,155.140945 
	C253.019867,155.826172 257.682343,153.909225 258.983582,159.457581 
	C258.991821,159.841568 258.610352,160.040100 258.048828,159.894562 
	C255.992416,159.154633 254.546097,158.287430 252.994598,158.011261 
	C244.563858,156.510574 236.112778,155.120834 227.658051,153.758987 
	C215.559158,151.810135 204.701187,146.617249 193.997574,141.002823 
	C193.997574,141.002823 193.499298,141.000885 193.249908,140.625366 
	C192.999496,139.500763 192.998444,138.751678 192.997406,138.002594 
z"/>
<path fill="#FFA0A0" opacity="1.000000" stroke="none" 
	d="
M193.037598,74.667786 
	C191.919998,73.943443 190.313187,72.931900 190.232727,71.810822 
	C189.550613,62.305962 189.089050,52.763416 198.319046,46.062843 
	C196.826889,55.429642 195.041428,64.879730 193.037598,74.667786 
z"/>
<path fill="#FF5353" opacity="1.000000" stroke="none" 
	d="
M194.036957,141.355255 
	C204.701187,146.617249 215.559158,151.810135 227.658051,153.758987 
	C236.112778,155.120834 244.563858,156.510574 252.994598,158.011261 
	C254.546097,158.287430 255.992416,159.154633 257.834961,159.916840 
	C257.730896,160.680115 257.279144,161.275543 256.577850,162.003357 
	C249.161621,160.422760 242.070923,158.211945 234.811920,157.104095 
	C221.183319,155.024139 208.361755,150.858978 196.371231,144.113953 
	C195.447403,143.594284 194.834015,142.522751 194.036957,141.355255 
z"/>
<path fill="#FF5F5F" opacity="1.000000" stroke="none" 
	d="
M159.298767,63.705170 
	C158.784851,63.755882 158.369080,63.505024 158.377151,63.268612 
	C158.841125,49.655216 159.340271,36.043022 160.014435,22.036476 
	C160.792114,22.539757 161.391357,23.437273 162.002899,24.663591 
	C161.343460,29.500031 160.306183,33.989372 160.079529,38.519279 
	C159.665024,46.803642 159.729782,55.111992 159.298767,63.705170 
z"/>
<path fill="#FF3B3B" opacity="1.000000" stroke="none" 
	d="
M206.000671,155.998779 
	C208.524353,156.671997 211.032761,157.410278 213.574417,158.006958 
	C223.351685,160.302261 233.149643,162.510361 242.915451,164.852814 
	C244.978745,165.347733 246.938934,166.272568 249.347137,167.175247 
	C249.335251,167.820862 248.922836,168.290527 247.887329,168.692780 
	C245.765213,168.011612 244.314514,167.205185 242.759384,166.815155 
	C232.183716,164.162659 221.586044,161.597900 210.995468,159.004822 
	C210.133713,158.845154 209.271942,158.685486 208.051056,158.019714 
	C207.128174,157.008667 206.564423,156.503723 206.000671,155.998779 
z"/>
<path fill="#FF3737" opacity="1.000000" stroke="none" 
	d="
M211.058823,159.361633 
	C221.586044,161.597900 232.183716,164.162659 242.759384,166.815155 
	C244.314514,167.205185 245.765213,168.011612 247.583069,168.790070 
	C247.563904,169.330826 247.225861,169.706879 246.628082,170.117828 
	C236.022095,167.421875 225.664322,164.733292 215.342468,161.913223 
	C213.847427,161.504745 212.524658,160.465683 211.058823,159.361633 
z"/>
<path fill="#FF1616" opacity="1.000000" stroke="none" 
	d="
M213.050659,171.355377 
	C220.237061,173.561218 227.479187,176.115723 234.934631,178.984680 
	C234.389420,180.009766 233.630890,180.720383 232.566223,181.516144 
	C227.800644,179.433945 223.317291,177.313873 218.892563,175.077850 
	C216.903488,174.072662 215.031494,172.835770 213.050659,171.355377 
z"/>
<path fill="#FF4E4E" opacity="1.000000" stroke="none" 
	d="
M155.995728,29.999935 
	C155.685867,31.103319 155.376022,32.206703 154.701599,33.655396 
	C153.893188,34.001740 153.449341,34.002777 153.005493,34.003815 
	C153.668503,27.047897 154.331528,20.091978 155.405746,12.957413 
	C156.255508,13.940026 156.694077,15.101288 156.854004,16.815950 
	C156.382172,21.579544 156.188950,25.789740 155.995728,29.999935 
z"/>
<path fill="#FF5353" opacity="1.000000" stroke="none" 
	d="
M156.287033,29.719109 
	C156.188950,25.789740 156.382172,21.579544 156.892548,17.134251 
	C157.514236,16.892385 157.776840,16.993946 158.078094,17.402243 
	C157.631897,21.546526 157.105118,25.492403 156.287033,29.719109 
z"/>
<path fill="#FFA0A0" opacity="1.000000" stroke="none" 
	d="
M200.237823,37.766571 
	C199.460678,37.407055 198.919220,36.813389 198.115662,36.055527 
	C198.643341,35.306763 199.433121,34.722195 200.979080,33.577927 
	C200.728958,35.534355 200.601227,36.533390 200.237823,37.766571 
z"/>
<path fill="#E63636" opacity="1.000000" stroke="none" 
	d="
M196.680573,219.041687 
	C197.354919,219.399078 197.711975,219.753708 198.082977,220.367401 
	C196.933426,220.465179 195.769943,220.303925 194.332977,219.915115 
	C194.827438,219.471344 195.595352,219.255142 196.680573,219.041687 
z"/>
<path fill="#E63636" opacity="1.000000" stroke="none" 
	d="
M205.339188,221.886566 
	C205.837097,221.442154 206.602402,221.233459 207.683075,221.026581 
	C208.354950,221.379852 208.711441,221.731339 209.084259,222.339661 
	C207.935928,222.438416 206.771255,222.280334 205.339188,221.886566 
z"/>
<path fill="#E63636" opacity="1.000000" stroke="none" 
	d="
M185.606705,217.048767 
	C186.226944,217.434372 186.536331,217.820724 186.934525,218.439911 
	C185.880920,218.508331 184.738510,218.343933 183.325531,217.957733 
	C183.801926,217.507126 184.548889,217.278320 185.606705,217.048767 
z"/>
<path fill="#E63636" opacity="1.000000" stroke="none" 
	d="
M217.208710,224.027084 
	C217.582077,223.531006 218.119659,223.245193 218.977173,222.965927 
	C218.655731,223.394089 218.014343,223.815720 217.208710,224.027084 
z"/>
<path fill="#E63636" opacity="1.000000" stroke="none" 
	d="
M171.640900,215.899902 
	C172.522873,215.733215 173.669647,215.759659 174.958740,216.125504 
	C174.035919,216.340942 172.970825,216.216980 171.640900,215.899902 
z"/>
<path fill="#FF8080" opacity="1.000000" stroke="none" 
	d="
M277.328796,145.024826 
	C276.739136,144.438904 276.469849,143.852356 276.158691,142.941742 
	C276.627655,143.419846 277.138397,144.222015 277.328796,145.024826 
z"/>
<path fill="#FF9696" opacity="1.000000" stroke="none" 
	d="
M189.346375,93.858551 
	C189.161133,93.390701 189.198349,92.733681 189.514267,92.031082 
	C189.718262,92.546799 189.643555,93.108078 189.346375,93.858551 
z"/>
<path fill="#E63636" opacity="1.000000" stroke="none" 
	d="
M211.184418,223.017456 
	C211.460785,222.611130 211.893021,222.359695 212.585327,222.092468 
	C212.881042,222.240585 212.916656,222.404495 212.979553,222.818542 
	C212.451324,223.103210 211.895798,223.137772 211.184418,223.017456 
z"/>
<path fill="#FF8C8C" opacity="1.000000" stroke="none" 
	d="
M186.021301,103.298523 
	C186.377853,102.991905 186.753891,102.983810 187.409882,102.969330 
	C187.616272,103.524406 187.542725,104.085869 187.233643,104.823380 
	C186.678986,104.531967 186.359879,104.064499 186.021301,103.298523 
z"/>
<path fill="#FFA0A0" opacity="1.000000" stroke="none" 
	d="
M191.147705,84.800133 
	C190.976425,84.335587 191.050598,83.708221 191.373352,83.027130 
	C191.545685,83.528046 191.469437,84.082672 191.147705,84.800133 
z"/>
<path fill="#FF3737" opacity="1.000000" stroke="none" 
	d="
M151.659149,76.005310 
	C151.992950,76.754730 151.993835,77.502464 151.620987,78.624535 
	C150.501419,79.002106 149.755600,79.005348 149.009766,79.008583 
	C149.163315,78.143982 149.316879,77.279388 149.732239,76.208145 
	C150.438110,76.002213 150.882172,76.002922 151.659149,76.005310 
z"/>
<path fill="#FF3737" opacity="1.000000" stroke="none" 
	d="
M149.995789,73.664886 
	C149.495087,73.134323 148.994446,72.265511 148.749466,71.198151 
	C149.335373,71.775284 149.665619,72.550957 149.995789,73.664886 
z"/>
<path fill="#FF0F0F" opacity="1.000000" stroke="none" 
	d="
M139.004272,61.000000 
	C138.835999,60.999912 138.667725,60.999821 138.246979,60.999565 
	C137.995178,60.250671 137.995850,59.501938 137.995514,58.378967 
	C137.997589,55.299583 138.000671,52.594440 138.009155,49.437737 
	C138.676987,50.274689 139.632935,51.497978 139.936920,52.866127 
	C140.468262,55.257492 140.598862,57.737900 140.616425,60.590660 
	C139.891739,61.000217 139.448013,61.000111 139.004272,61.000000 
z"/>
<path fill="#FF3E3E" opacity="1.000000" stroke="none" 
	d="
M152.004791,85.996559 
	C152.654236,86.609062 153.789658,87.155846 153.882675,87.843605 
	C156.917664,110.284912 171.418304,125.642380 186.700531,140.855560 
	C187.000000,141.000000 187.002487,140.997559 187.137558,141.286072 
	C188.182159,142.717636 189.091690,143.860672 190.000549,145.258514 
	C189.998688,145.683167 189.997528,145.853027 189.996368,146.022873 
	C188.877396,145.775162 187.758438,145.527451 186.285278,144.799988 
	C184.953644,143.547211 183.976212,142.774216 182.998779,142.001221 
	C182.998779,142.001221 183.000000,142.000000 182.964981,141.653870 
	C179.953308,138.871811 176.976654,136.435898 174.000000,134.000000 
	C172.864716,133.084595 171.729431,132.169174 170.298309,130.792435 
	C170.002060,129.887009 170.001648,129.442886 169.996750,128.634705 
	C168.995255,127.180145 167.998230,126.089653 167.000702,124.749496 
	C167.000168,124.499847 166.999390,124.000534 166.957977,123.679901 
	C166.277924,122.905983 165.639267,122.452682 165.000305,121.749771 
	C165.000000,121.500153 164.999390,121.000916 164.957977,120.680252 
	C164.277924,119.906296 163.639267,119.452995 162.979431,118.702049 
	C162.638626,117.936447 162.319016,117.468491 161.957977,116.679909 
	C161.277908,115.905991 160.639252,115.452690 160.000305,114.749763 
	C160.000000,114.500137 159.999390,114.000877 159.962433,113.639198 
	C157.950516,109.851578 155.975571,106.425636 154.000610,102.999695 
	C154.000610,102.999695 154.000000,103.000000 153.979340,102.702942 
	C153.639542,101.937248 153.320374,101.468628 153.001221,101.000000 
	C153.000275,100.556061 152.999329,100.112129 152.978516,99.037033 
	C152.639297,97.937248 152.319946,97.468628 152.000610,97.000000 
	C151.999496,95.934120 151.998367,94.868233 151.977722,93.104431 
	C151.639282,91.937675 151.320374,91.468842 151.001465,91.000000 
	C150.999908,89.933479 150.998337,88.866959 151.216248,87.292007 
	C151.710434,86.582718 151.900131,86.320381 152.004791,85.996559 
z"/>
<path fill="#FF3737" opacity="1.000000" stroke="none" 
	d="
M166.999390,124.000534 
	C166.999390,124.000534 167.000168,124.499847 167.029510,125.078964 
	C168.039642,126.771645 169.020432,127.885208 170.001221,128.998779 
	C170.001648,129.442886 170.002060,129.887009 170.002777,130.664154 
	C169.248276,130.720642 168.193649,130.672119 167.783875,130.133240 
	C161.982727,122.504707 155.274307,115.382286 154.017105,105.431931 
	C156.358505,108.292419 158.178940,111.146645 159.999390,114.000877 
	C159.999390,114.000877 160.000000,114.500137 160.041748,115.070389 
	C160.722122,116.093933 161.360764,116.547226 161.999390,117.000526 
	C162.319016,117.468491 162.638626,117.936447 163.020813,119.022675 
	C163.722046,120.094261 164.360718,120.547585 164.999390,121.000916 
	C164.999390,121.000916 165.000000,121.500153 165.041718,122.070404 
	C165.722092,123.093948 166.360748,123.547241 166.999390,124.000534 
z"/>
<path fill="#FF3737" opacity="1.000000" stroke="none" 
	d="
M174.034576,134.346649 
	C176.976654,136.435898 179.953308,138.871811 182.964371,141.654480 
	C180.022232,139.565247 177.045685,137.129272 174.034576,134.346649 
z"/>
<path fill="#FF3B3B" opacity="1.000000" stroke="none" 
	d="
M159.962433,113.639198 
	C158.178940,111.146645 156.358505,108.292419 154.267700,105.218651 
	C153.997711,104.554810 153.998062,104.110504 153.999512,103.332947 
	C155.975571,106.425636 157.950516,109.851578 159.962433,113.639198 
z"/>
<path fill="#FF3737" opacity="1.000000" stroke="none" 
	d="
M151.879150,85.703156 
	C151.900131,86.320381 151.710434,86.582718 151.214813,86.892059 
	C150.349182,85.219620 149.704453,83.438683 149.355728,81.369087 
	C150.104965,81.722954 150.558212,82.365479 151.011459,83.008003 
	C151.258804,83.808586 151.506165,84.609169 151.879150,85.703156 
z"/>
<path fill="#FF3E3E" opacity="1.000000" stroke="none" 
	d="
M151.351730,82.949394 
	C150.558212,82.365479 150.104965,81.722954 149.331955,81.035324 
	C149.010635,80.549820 149.009094,80.109421 149.008652,79.338806 
	C149.755600,79.005348 150.501419,79.002106 151.620117,78.998520 
	C151.892670,80.295700 151.792343,81.593246 151.351730,82.949394 
z"/>
<path fill="#FF3737" opacity="1.000000" stroke="none" 
	d="
M205.680115,155.859558 
	C206.564423,156.503723 207.128174,157.008667 207.845154,157.758011 
	C206.037918,157.239853 204.077438,156.477264 202.058594,155.357025 
	C203.119995,155.239716 204.239792,155.480042 205.680115,155.859558 
z"/>
<path fill="#FF3737" opacity="1.000000" stroke="none" 
	d="
M183.033325,142.341278 
	C183.976212,142.774216 184.953644,143.547211 185.964935,144.660538 
	C185.021805,144.227692 184.044846,143.454514 183.033325,142.341278 
z"/>
<path fill="#FF3B3B" opacity="1.000000" stroke="none" 
	d="
M198.000000,152.000000 
	C198.964630,152.437210 199.929260,152.874405 200.946640,153.656113 
	C200.554947,154.001236 200.110489,154.001862 199.226013,153.742584 
	C198.523972,152.988464 198.261978,152.494232 198.000000,152.000000 
z"/>
<path fill="#FF3737" opacity="1.000000" stroke="none" 
	d="
M197.666809,151.999191 
	C198.261978,152.494232 198.523972,152.988464 198.892654,153.741959 
	C198.034958,153.563446 197.070587,153.125656 196.053558,152.343323 
	C196.445160,151.998657 196.889404,151.998520 197.666809,151.999191 
z"/>
<path fill="#FF3737" opacity="1.000000" stroke="none" 
	d="
M152.772644,101.171112 
	C153.320374,101.468628 153.639542,101.937248 153.977814,102.704010 
	C153.512650,102.448837 153.028366,101.895531 152.772644,101.171112 
z"/>
<path fill="#FF3737" opacity="1.000000" stroke="none" 
	d="
M151.772171,97.171204 
	C152.319946,97.468628 152.639297,97.937248 152.977798,98.704079 
	C152.512543,98.448997 152.028137,97.895706 151.772171,97.171204 
z"/>
<path fill="#FF3737" opacity="1.000000" stroke="none" 
	d="
M150.772919,91.171036 
	C151.320374,91.468842 151.639282,91.937675 151.977005,92.704727 
	C151.511993,92.449326 151.028183,91.895699 150.772919,91.171036 
z"/>
<path fill="#FF3B3B" opacity="1.000000" stroke="none" 
	d="
M190.164154,146.263992 
	C189.997528,145.853027 189.998688,145.683167 190.251007,145.256958 
	C190.669144,144.998764 190.836121,144.996933 191.003082,144.995117 
	C191.324860,145.098694 191.585297,145.287094 191.892792,145.779236 
	C191.998825,146.168304 191.996414,146.338440 191.986755,146.763947 
	C191.430328,146.847916 190.881134,146.676514 190.164154,146.263992 
z"/>
<path fill="#FF3B3B" opacity="1.000000" stroke="none" 
	d="
M192.035889,148.326172 
	C192.634354,148.456985 193.275528,148.908127 193.957718,149.680542 
	C193.358688,149.550049 192.718643,149.098267 192.035889,148.326172 
z"/>
<path fill="#FF1616" opacity="1.000000" stroke="none" 
	d="
M143.002151,107.999443 
	C145.319336,121.103165 150.085037,132.713791 162.097656,140.089828 
	C165.748734,142.331680 169.169037,144.949371 172.847229,147.697754 
	C161.044998,143.201111 151.018311,136.278503 145.122238,124.228676 
	C139.326279,112.383453 139.724030,99.818825 140.095062,87.222450 
	C140.126999,86.138901 141.442841,85.093178 142.576935,84.013031 
	C142.993240,84.164528 142.994888,84.332893 142.777954,84.861130 
	C142.289810,85.418472 142.103745,85.676231 142.001190,85.994270 
	C142.001617,92.017044 142.002029,98.039825 142.003906,104.869049 
	C142.337631,106.450150 142.669891,107.224800 143.002151,107.999443 
z"/>
<path fill="#FF1616" opacity="1.000000" stroke="none" 
	d="
M139.003403,61.415962 
	C139.448013,61.000111 139.891739,61.000217 140.668350,61.000164 
	C141.001221,61.000000 141.500305,61.000031 141.749969,61.376339 
	C142.003616,62.504993 142.007568,63.257343 142.011536,64.009689 
	C142.010162,65.395187 142.008759,66.780693 142.005829,68.581718 
	C141.557693,68.998222 141.111099,68.999199 140.329514,68.999939 
	C139.663849,66.610435 139.333191,64.221184 139.003403,61.415962 
z"/>
<path fill="#FF1C1C" opacity="1.000000" stroke="none" 
	d="
M142.364731,63.942535 
	C142.007568,63.257343 142.003616,62.504993 141.999527,61.376633 
	C142.169983,60.444962 142.340561,59.889313 142.756866,59.166397 
	C142.907700,60.624550 142.812820,62.249966 142.364731,63.942535 
z"/>
<path fill="#FF0F0F" opacity="1.000000" stroke="none" 
	d="
M142.251190,85.995514 
	C142.103745,85.676231 142.289810,85.418472 142.775665,85.113663 
	C142.991974,85.006332 142.997498,85.503159 142.999359,85.751579 
	C142.834564,85.998917 142.667892,85.997833 142.251190,85.995514 
z"/>
<path fill="#FF1616" opacity="1.000000" stroke="none" 
	d="
M173.054337,148.349426 
	C174.565796,148.800262 176.132187,149.599930 177.848984,150.700104 
	C176.369354,150.233139 174.739319,149.465683 173.054337,148.349426 
z"/>
<path fill="#FF1616" opacity="1.000000" stroke="none" 
	d="
M181.052460,153.345871 
	C181.904968,153.475525 182.811172,153.949203 183.857712,154.712494 
	C183.034088,154.564713 182.070099,154.127304 181.052460,153.345871 
z"/>
<path fill="#FF1616" opacity="1.000000" stroke="none" 
	d="
M178.052841,151.344818 
	C178.905457,151.474533 179.811508,151.948456 180.858154,152.711792 
	C180.034592,152.563812 179.070450,152.126419 178.052841,151.344818 
z"/>
<path fill="#FF5F5F" opacity="1.000000" stroke="none" 
	d="
M187.961639,129.641907 
	C186.659210,128.648926 185.009903,127.487862 184.034286,125.910187 
	C178.720490,117.317322 173.374969,108.733147 168.419434,99.932526 
	C162.665588,89.714157 159.295486,78.710945 159.002136,66.440903 
	C159.662766,66.779678 160.841751,67.523003 160.903946,68.350266 
	C162.068954,83.849136 168.878128,97.048981 177.126389,109.805519 
	C181.147781,116.024902 184.351746,122.772842 187.961639,129.641907 
z"/>
<path fill="#FF1B1B" opacity="1.000000" stroke="none" 
	d="
M143.256378,107.799965 
	C142.669891,107.224800 142.337631,106.450150 142.004822,105.337265 
	C142.506378,105.866180 143.008499,106.733330 143.256378,107.799965 
z"/>
<path fill="#FF4E4E" opacity="1.000000" stroke="none" 
	d="
M156.001862,69.999542 
	C156.002426,70.748726 156.002991,71.497902 156.002411,73.017563 
	C156.665482,75.193451 157.329697,76.598862 157.993896,78.004272 
	C157.995316,78.753204 157.996750,79.502136 157.725540,80.861832 
	C159.913925,89.078453 161.429550,97.177200 165.073410,104.166367 
	C169.708145,113.056145 176.026840,121.074577 181.730621,129.392502 
	C182.484619,130.492081 183.892792,131.143082 184.998001,132.001831 
	C185.099991,132.324081 185.287292,132.585129 185.779144,133.268951 
	C186.002640,134.503403 186.006866,135.253860 186.006653,136.002930 
	C186.002182,136.001526 186.000610,136.000000 186.000610,136.000000 
	C183.997757,134.174713 181.664581,132.600418 180.052109,130.478485 
	C174.549072,123.236580 168.852432,116.080200 164.058609,108.375427 
	C156.915039,96.894073 154.154648,84.048347 154.958679,70.276207 
	C155.666122,69.999702 155.834000,69.999626 156.001862,69.999542 
z"/>
<path fill="#FF5353" opacity="1.000000" stroke="none" 
	d="
M153.004425,34.467987 
	C153.449341,34.002777 153.893188,34.001740 154.670044,34.000687 
	C155.200562,41.137131 155.398071,48.273594 155.047943,55.705132 
	C154.332367,56.000347 154.164413,56.000484 153.996445,56.000622 
	C153.665405,48.977802 153.334381,41.954983 153.004425,34.467987 
z"/>
<path fill="#FF4E4E" opacity="1.000000" stroke="none" 
	d="
M153.705200,56.286427 
	C154.164413,56.000484 154.332367,56.000347 154.752289,56.000259 
	C155.004272,58.040668 155.004288,60.081036 155.002838,62.959732 
	C154.998260,64.867813 154.995163,65.937569 154.992065,67.007324 
	C151.079315,64.041130 153.570312,60.106503 153.705200,56.286427 
z"/>
<path fill="#FF5959" opacity="1.000000" stroke="none" 
	d="
M188.001526,133.998611 
	C189.312897,135.102371 190.622742,136.207520 191.591827,137.656235 
	C190.501236,137.999329 189.751404,137.998856 188.668549,137.998749 
	C187.890945,137.998703 187.446396,137.998306 187.001831,137.997925 
	C186.740082,137.504227 186.478333,137.010529 186.108597,136.258423 
	C186.000610,136.000000 186.002182,136.001526 186.325897,135.960175 
	C187.099350,135.279434 187.549072,134.640045 187.998779,134.000656 
	C187.998779,134.000656 188.000000,134.000000 188.001526,133.998611 
z"/>
<path fill="#FF5353" opacity="1.000000" stroke="none" 
	d="
M154.993439,67.381248 
	C154.995163,65.937569 154.998260,64.867813 155.003433,63.396935 
	C155.524811,65.155907 156.044144,67.316010 156.282654,69.737823 
	C155.834000,69.999626 155.666122,69.999702 155.246384,69.999588 
	C154.994614,69.251320 154.994720,68.503242 154.993439,67.381248 
z"/>
<path fill="#FF4E4E" opacity="1.000000" stroke="none" 
	d="
M187.000961,138.373260 
	C187.446396,137.998306 187.890945,137.998703 188.789032,138.296356 
	C189.495392,139.395218 189.748215,140.196838 189.626190,140.998871 
	C188.501724,140.998703 187.752106,140.998123 187.002487,140.997559 
	C187.002487,140.997559 187.000000,141.000000 187.000244,140.999695 
	C187.000351,140.249130 187.000214,139.498856 187.000961,138.373260 
z"/>
<path fill="#FF5353" opacity="1.000000" stroke="none" 
	d="
M184.962006,131.648972 
	C183.892792,131.143082 182.484619,130.492081 181.730621,129.392502 
	C176.026840,121.074577 169.708145,113.056145 165.073410,104.166367 
	C161.429550,97.177200 159.913925,89.078453 157.725555,81.236298 
	C160.013931,86.368332 161.388992,92.098274 164.173813,97.032562 
	C170.733627,108.655548 177.965805,119.899078 184.962006,131.648972 
z"/>
<path fill="#FF5353" opacity="1.000000" stroke="none" 
	d="
M157.995941,77.608368 
	C157.329697,76.598862 156.665482,75.193451 156.003082,73.392159 
	C156.669266,74.401665 157.333633,75.807060 157.995941,77.608368 
z"/>
<path fill="#FF5353" opacity="1.000000" stroke="none" 
	d="
M187.739807,133.893433 
	C187.549072,134.640045 187.099350,135.279434 186.330368,135.961578 
	C186.006866,135.253860 186.002640,134.503403 185.997772,133.377838 
	C186.491699,133.263901 186.986267,133.525055 187.739807,133.893433 
z"/>
<path fill="#FF4646" opacity="1.000000" stroke="none" 
	d="
M187.137558,141.286072 
	C187.752106,140.998123 188.501724,140.998703 189.875076,141.000092 
	C190.498810,141.000885 190.996628,141.003113 190.996628,141.003113 
	C190.998657,142.067749 191.000687,143.132385 191.002899,144.596069 
	C190.836121,144.996933 190.669144,144.998764 190.251678,145.002167 
	C189.091690,143.860672 188.182159,142.717636 187.137558,141.286072 
z"/>
<path fill="#FF4646" opacity="1.000000" stroke="none" 
	d="
M251.865784,164.680847 
	C250.385834,164.524033 248.900406,164.024384 247.207184,163.260376 
	C248.619705,163.443329 250.240005,163.890671 251.865784,164.680847 
z"/>
<path fill="#FF5353" opacity="1.000000" stroke="none" 
	d="
M191.330719,141.001923 
	C190.996628,141.003113 190.498810,141.000885 190.249924,140.999664 
	C189.748215,140.196838 189.495392,139.395218 189.122070,138.295990 
	C189.751404,137.998856 190.501236,137.999329 191.626053,137.999390 
	C192.001038,137.998962 192.499268,138.000519 192.748337,138.001556 
	C192.998444,138.751678 192.999496,139.500763 193.000793,140.624420 
	C192.555618,140.999557 192.110214,141.000153 191.330719,141.001923 
z"/>
<path fill="#FF4646" opacity="1.000000" stroke="none" 
	d="
M239.768311,160.728363 
	C238.703827,160.895172 237.407669,160.789597 236.055145,160.342926 
	C237.178055,160.153214 238.357346,160.304596 239.768311,160.728363 
z"/>
<path fill="#FF4646" opacity="1.000000" stroke="none" 
	d="
M244.950531,162.650711 
	C244.039230,162.560028 243.072876,162.125549 242.052643,161.346756 
	C242.964340,161.437256 243.929901,161.872086 244.950531,162.650711 
z"/>
<path fill="#FF4646" opacity="1.000000" stroke="none" 
	d="
M232.854889,159.775208 
	C232.429825,160.150528 231.859665,160.299866 231.144440,160.222839 
	C231.569519,159.847382 232.139664,159.698318 232.854889,159.775208 
z"/>
<path fill="#FF4646" opacity="1.000000" stroke="none" 
	d="
M227.973770,159.702454 
	C227.448730,159.826004 226.891525,159.657516 226.166840,159.242767 
	C226.646790,159.134476 227.294189,159.272446 227.973770,159.702454 
z"/>
<path fill="#FF4646" opacity="1.000000" stroke="none" 
	d="
M223.973587,158.702591 
	C223.448563,158.826080 222.891388,158.657516 222.166809,158.242676 
	C222.646744,158.134430 223.294098,158.272476 223.973587,158.702591 
z"/>
<path fill="#FF4646" opacity="1.000000" stroke="none" 
	d="
M219.962372,157.674713 
	C219.364716,157.544891 218.723709,157.094940 218.040222,156.324585 
	C218.638153,156.454315 219.278580,156.904465 219.962372,157.674713 
z"/>
<path fill="#FF3B3B" opacity="1.000000" stroke="none" 
	d="
M169.996735,128.634705 
	C169.020432,127.885208 168.039642,126.771645 167.030029,125.328613 
	C167.998230,126.089653 168.995255,127.180145 169.996735,128.634705 
z"/>
<path fill="#FF3B3B" opacity="1.000000" stroke="none" 
	d="
M161.957977,116.679909 
	C161.360764,116.547226 160.722122,116.093933 160.042053,115.320015 
	C160.639252,115.452690 161.277908,115.905991 161.957977,116.679909 
z"/>
<path fill="#FF3B3B" opacity="1.000000" stroke="none" 
	d="
M164.957977,120.680252 
	C164.360718,120.547585 163.722046,120.094261 163.041992,119.320312 
	C163.639267,119.452995 164.277924,119.906296 164.957977,120.680252 
z"/>
<path fill="#FF3B3B" opacity="1.000000" stroke="none" 
	d="
M166.957977,123.679901 
	C166.360748,123.547241 165.722092,123.093948 165.042023,122.320023 
	C165.639267,122.452682 166.277924,122.905983 166.957977,123.679901 
z"/>
</svg>