<?xml version="1.0" encoding="UTF-8"?>
<svg id="Layer_1" xmlns="http://www.w3.org/2000/svg" version="1.1" viewBox="0 0 179.46 73.62">
  <!-- Generator: Adobe Illustrator 29.1.0, SVG Export Plug-In . SVG Version: 2.1.0 Build 142)  -->
  <defs>
    <style>
      .st0 {
        fill: #96002a;
      }

      .st1 {
        fill: #231f20;
      }

      .st2 {
        fill: #ed1c24;
      }

      .st3 {
        fill: #fff;
      }
    </style>
  </defs>
  <g>
    <path class="st1" d="M48.68,60.35v-1.22c1.78-1.94,3.26-3.56,4.42-4.87,1.17-1.31,2.1-2.42,2.79-3.35.69-.92,1.21-1.75,1.55-2.49.34-.74.56-1.47.66-2.21.1-.74.15-1.59.15-2.56,0-1.06-.24-1.95-.73-2.67-.48-.73-1.22-1.09-2.21-1.09-1.06,0-1.85.33-2.39.99-.54.66-.81,1.59-.81,2.8v1.55l-.23.3h-2.24c-.44,0-.77-.08-.99-.23-.22-.15-.33-.54-.33-1.16s.2-1.28.59-1.93c.4-.65,1.06-1.3,1.98-1.96.86-.64,1.71-1.13,2.54-1.49.84-.35,1.94-.53,3.3-.53s2.49.26,3.5.78c1.01.52,1.8,1.22,2.36,2.11.56.89.84,1.88.84,2.95,0,.68-.08,1.32-.25,1.91-.17.59-.46,1.21-.87,1.83-.42.63-1.01,1.34-1.78,2.14-.77.8-1.77,1.74-2.99,2.82-1.22,1.08-2.72,2.37-4.5,3.86h8.75l1.91-3.3h.53l-.33,7h-15.21Z"/>
    <path class="st1" d="M75.38,60.68c-1.72,0-3.18-.45-4.41-1.35-1.22-.9-2.16-2.19-2.81-3.88-.65-1.68-.97-3.68-.97-5.99,0-2.16.35-4.08,1.04-5.76.69-1.68,1.65-3.01,2.89-3.99,1.23-.98,2.65-1.47,4.26-1.47,1.72,0,3.19.45,4.42,1.35,1.23.9,2.17,2.19,2.82,3.88.65,1.68.97,3.68.97,5.99,0,2.16-.35,4.08-1.06,5.76-.7,1.68-1.67,3.01-2.9,3.99-1.23.98-2.65,1.47-4.26,1.47ZM75.94,59.06c.57,0,1.04-.37,1.42-1.11.37-.74.65-1.75.82-3.04.18-1.29.26-2.77.26-4.44,0-1.96-.12-3.74-.35-5.35-.23-1.61-.6-2.89-1.11-3.86-.51-.97-1.19-1.45-2.05-1.45s-1.53.78-1.96,2.33c-.43,1.55-.64,3.62-.64,6.22,0,1.96.12,3.75.36,5.36.24,1.62.63,2.91,1.16,3.88.53.97,1.22,1.45,2.08,1.45Z"/>
    <path class="st1" d="M86.36,60.35v-1.22c1.78-1.94,3.26-3.56,4.42-4.87,1.17-1.31,2.1-2.42,2.79-3.35.69-.92,1.21-1.75,1.55-2.49.34-.74.56-1.47.66-2.21.1-.74.15-1.59.15-2.56,0-1.06-.24-1.95-.73-2.67-.48-.73-1.22-1.09-2.21-1.09-1.06,0-1.85.33-2.39.99-.54.66-.81,1.59-.81,2.8v1.55l-.23.3h-2.24c-.44,0-.77-.08-.99-.23-.22-.15-.33-.54-.33-1.16s.2-1.28.59-1.93c.4-.65,1.06-1.3,1.98-1.96.86-.64,1.71-1.13,2.54-1.49.84-.35,1.94-.53,3.3-.53s2.49.26,3.5.78c1.01.52,1.8,1.22,2.36,2.11.56.89.84,1.88.84,2.95,0,.68-.08,1.32-.25,1.91-.17.59-.46,1.21-.88,1.83s-1.01,1.34-1.78,2.14c-.77.8-1.77,1.74-2.99,2.82-1.22,1.08-2.72,2.37-4.5,3.86h8.75l1.91-3.3h.53l-.33,7h-15.21Z"/>
    <path class="st1" d="M106.76,60.35c.7-1.69,1.51-3.41,2.43-5.15.91-1.74,1.96-3.61,3.15-5.63,1.19-2.01,2.56-4.28,4.12-6.81h-11.42v-4.19h14.72v1.25c-1.06,2.05-2.14,4.22-3.25,6.53-1.11,2.31-2.12,4.65-3.04,7.03s-1.6,4.7-2.06,6.96h-4.65Z"/>
  </g>
  <g>
    <path class="st2" d="M41.82,32.25v-.38l2.04-.98.5-13.1-2.11-.98v-.38h5.95l4.82,11.16,4.78-11.16h5.76v.38l-2.09.74.41,13.34,1.82.98v.38h-7.27v-.38l1.92-.96-.24-11.4-5.47,12.86h-1.34l-5.52-12.82-.31,11.35,2.09.96v.38h-5.74Z"/>
    <path class="st2" d="M73.09,32.49c-1.41,0-2.65-.3-3.73-.91s-1.93-1.44-2.56-2.48-.94-2.24-.94-3.59.31-2.52.94-3.58c.62-1.06,1.48-1.89,2.56-2.5,1.08-.61,2.32-.91,3.73-.91s2.66.3,3.74.91c1.09.61,1.94,1.44,2.57,2.5.62,1.06.94,2.25.94,3.58s-.31,2.54-.94,3.59-1.48,1.88-2.57,2.48c-1.09.61-2.34.91-3.74.91ZM73.43,31.24c1.02,0,1.83-.48,2.41-1.44.58-.96.88-2.19.88-3.7,0-1.23-.16-2.32-.49-3.28-.33-.95-.78-1.7-1.37-2.24-.58-.54-1.25-.82-2-.82-.67,0-1.26.22-1.76.65s-.9,1.03-1.18,1.8c-.28.77-.42,1.66-.42,2.66,0,1.23.17,2.33.5,3.29.34.96.8,1.71,1.39,2.26.59.54,1.27.82,2.04.82Z"/>
    <path class="st2" d="M82.53,32.25v-.41l1.78-.79v-11.06l-1.78-.79v-.38h4.34l7.99,8.88v-7.7l-2.33-.79v-.38h5.54v.38l-1.75.79v12.36h-1.7l-8.86-9.77v8.45l2.33.82v.41h-5.57Z"/>
    <path class="st2" d="M102.69,32.25v-.38l2.21-.79v-11.04h-2.98l-1.61,3.31h-.38v-4.54h13.44v4.54h-.38l-1.63-3.31h-2.98v11.04l2.23.79v.38h-7.92Z"/>
    <path class="st2" d="M115.29,32.25v-.38l1.78-.79v-11.09l-1.78-.79v-.38h7.34c1.46,0,2.6.29,3.44.88s1.26,1.38,1.26,2.39c0,1.47-.9,2.52-2.69,3.14l3.7,5.88,1.56.77v.38h-4.97l-3.48-6.12h-.89v4.92l1.54.82v.38h-6.82ZM121.24,19.92h-.67v5.09h.74c.85,0,1.48-.24,1.88-.71.41-.47.61-1.1.61-1.88,0-1.66-.86-2.5-2.57-2.5Z"/>
    <path class="st2" d="M130.77,32.25v-.38l1.78-.79v-11.09l-1.78-.79v-.38h11.59v3.6h-.38l-1.56-2.38h-4.37v4.7h3.1l1.1-1.73h.36v4.56h-.36l-1.1-1.7h-3.1v5.16h4.85l1.66-3.1h.38v4.32h-12.17ZM137.1,17.01l1.99-4.25h2.64c0,.3-.07.58-.22.83-.14.25-.39.52-.74.83l-3.14,2.59h-.53Z"/>
    <path class="st2" d="M144.64,32.25v-.38l1.22-.7,5.35-12.48h2.04l5.26,12.34,1.49.84v.38h-6.72v-.38l1.7-.72-1.37-3.29h-4.85l-1.37,3.29,1.7.72v.38h-4.46ZM149.27,26.64h3.82l-1.92-4.58-1.9,4.58Z"/>
    <path class="st2" d="M161.51,32.25v-.38l1.78-.79v-11.09l-1.78-.79v-.38h7.25v.38l-1.97.79v11.04h4.42l1.8-3.91h.38v5.14h-11.88Z"/>
  </g>
  <g>
    <path class="st0" d="M25.65,17.21c.02-.39-.08-.67-.12-1.16-.13-.67.02-1.28-.15-1.54-.31-.24-.97-.44-1.25-.24-.19.07-.16.41-.15.55.02.17-.02.28.06.76.07.45.17.99.33,1.46l-1.45-.02c.03-.68-.14-1.58-.13-1.96.02-.6-.14-.82-.58-1.12-.18-.06-.52-.06-.67.04-.16.07-.06.46-.07.64-.07.46-.03.81.04,1.37.09.33.05.71.07,1.01l-1.12-.02s-.03-.07-.05-.12c.06,0-.1-2.32-.23-2.48-.36-.5-.3-.57-.74-.59-.43.14-.74.35-.47.94.06-.19.02,1.76.11,2.22l1.7,8.04-3.12-8.18c.04.09-.76-1.56-1.28-2.05s-.65-.44-.77-.21c-.35.08-.37.65-.5.86-.08,0,.67,1.26.91,1.86l-.82.23c-.08-.14-.16-.31-.3-.66-.29-.65-.52-1.36-.7-1.55-.41-.53-1.81-.08-1.24.65.2.25.78,1.16,1.16,1.86l-1.01.28c-.27-.59-.57-1.62-.96-1.99-.27-.14-.79-.46-1.04-.23-.13.12-.03.56-.16.69-.08.17-.11.21-.03.39.16.44.4,1.02.65,1.56l-.06.02,6.96,11.77,6.9-3.15.24-9.83s0-.07.01-.1Z"/>
    <path id="White_Head" class="st3" d="M30.12,29.22l.86.54-.5.55.51.54,1.43-.44-.42.85,1.82.35-.34.49.12.37.79.15.52.52-.52.25-.28.4.59.76-.79.56,1.11,1.07-.57.07-.18.47.58.92-.1.26-.85-.24.68,1.16-.89-.17.48,1.24-.53-.1-.75-.14-.31,1.02v.51s.42.42.42.42l-.83-.43-.18-.38-.48,1.59-.24.73-.28-1.63-.74,1.94-.35.42-.32-1.44-.72,1.69-.48-1.28-.61,1.36-.96-.75-.66,1.13s-.58-.34-.41-.54-.64.74-.64.74l-.36-.72-.58.59-.04-.45-.41.32v-.3s-.28.73-.28.73l-.49-1.03-.37.08-.25-.38-.67.82-.13-.64-.59.64.11-1.37-.22-.77-.84.64.29-.75-.91.55-.65.81-.33,1.16-.16-.94-.36.48.5-1.97-1.04.7.46-1.64-1.24,1.28.29-1.44-.53.63-.07-.61-.42.12.64-.97-1.36,1.2.85-1.4.82-.62-1.42.47-.33.25.57-1.12.91-.96-1.36.63.83-1.04-1.01.2.88-1.35-.84.54-.38-.32-.09-.54.88-.21-.68-.11,1.72-2.17-1.52.82,1.35-1.23-.86-.27.87-.03-.07-.69-1.08-.04-.32-.23,1.44-.9.57-.83.61-.14-.13-2.7.62.64.02-.76.71,1.36.99-.07.03-.29-.52-.56-.25-.45v-.96s.54.25.54.25l.9.17.11.67s.19.7.47.6.5-.23.5-.23l-.39-.9.1-.47-.3-.66-.13-.35,1.3.25.03,1.33.51.09.09-1.2.5-.44-.09-.62.69-.54.16-.42.32,1.43.9,1.07.09-.89.35-.39.43-.21.17-.68-.28-.63.69.71.11.59-.53.8.57,1.61.54-.64.62-.34.06-.29.58.11.3.62.08.66-.06.52,1.27,1.19Z"/>
    <path id="White_Body" class="st3" d="M34.61,39.74l1.58-.2-.54.4-.38.61-.48.62,1.07-.46,1.39-.21-.34.56-.31.5,1.09.21-.8.59,3.14.87-.67.19-.9.06-.66.07,1.78.39.64.62-1.17-.13-.68.18,1.97.38-.61.26-.29.24-.91-.02.92.39,1.07.45-2.62.07,1.24.6,1.45.3-1.7.37,1.61,1.09-.85-.16-.13.33,1.71.97-1.36.15.7,1.22.22.69-1.49-.42.6,1.79-.64-.46-.85-.46.96,1.09.36.64-1.67-1.32.05,2.56-.31-.93-.33-.16v1.93s-.17,1.02-.17,1.02l-.53-1.36.05,1.27.04.86-.42-1.03-.53-.76-.08.46-.07,2.12-.2-1.87-.19-.34-.88,1.65.09,1.05-.54-1.45-.73,1.89-.04-1.51-1.12,2.11-.19-.27-.49.14.13.1-.21.27-.2,1.02-.35.26-.39-2.14-.13,2.04-.36.83-.38.7-.31.27-.54-.1-.28-.4-.29-.6.22-2.22-1.62,1.83.34-1.87-1.3,2.23c-.15.16-.03-1.93.94-2.83-.24-.08-1.08.65-1.08.65l-.73.77-.11,1.04-.39-1.2.42-1.1-1.86,2.74.79-2.68-.87,1.49.11-1.51-.85,1.28-.36.94.08-2.21-.91.87-.81.36-.17.64.52-1.36-.82.99-.43.32.4-1.97.59-.79-1.12,1.03-.91.51-.24.64s.42-1.67.3-1.75c-.31.67-.72.72-.72.72l.09-.75-1.06,1.04.07-.93-.83.56.51-2.04-1.16,1.13.34-1.61-.62.2.32-.92-.4-.23-.35.4v-.94s.78-1.09.78-1.09l-1.19,1.4.52-1.54-1.48,1.12.53-.68-.61.17,1.14-1.88-1.44,1.14.22-1.19.86-.97-1.24.8h-.47s1.05-1.51,1.05-1.51l-.45.31.94-1.15-1.21.16-.93.76,1.17-1.54.8-.71-1.34.61.5-1.32-.48.14.5-.64.54-.35-.24-.5-.54.2.57-.91h-.71s1.2-.96,1.2-.96l-.32-.1-1.33.29.82-1.06-.24-.21.83-.89-.07-.38.65-.56"/>
    <path id="Left_Foot_White" class="st3" d="M38.1,44.47l2.51-.32.64.3-.11-.43.67-.43.23.37-.3.42.25.17s.56-.16.58-.24.1,1.14.1,1.14l.59-.32-.2.53-.37.96-1.43,3.74-1.86.75"/>
    <path id="Left_Arm_White" class="st3" d="M33.86,38.9l2.67-2.42.03-.34-.09-.42.39.28s.4-1.19.37-.98.14.39.14.39l-.05.53.87-.56.29.24-.24.54.55-.22-.17.44.02.49-.96.75-1.45,1.36-1.44,2.19"/>
    <polyline id="Right_Arm_White" class="st3" points="14.49 43.39 13.9 42.58 13.27 41.6 12.15 40.86 12.26 39.69 12.82 39.11 13.53 39.06 14.11 38.84 14.58 39.4 15.33 39.97 16.79 42.33"/>
    <path id="Lower_Scarf" class="st0" d="M19.76,42.73s-.22.63-.29,1.15-.2,1.04.43,2.27c2.72,1.52,5,1.32,5,1.32l2.28.04,1.33-.78,1.26-.03,1.22-1.19s1.36-.56,1.57-1,.22-.44.36-.8c1.2-.91.88-.99.88-.99l.23-2.05-.32-.78-.4.24-.32-.48-.47.55-.37.98-.39-.35.09.63-1.03.14-.55,2.03-.59.3-.12-1.55-1.5.93s-.15.52-.23.74c-.41.04-.67-.39-.67-.39l-.69.2-.36.49-.29-.29-.64.19-.44-.31-.43.56-1.14.34s-.44-1.51-1.35-.83c-.37.27-2.06-1.27-2.06-1.27Z"/>
    <path id="Lower_Scarf_Path" class="st1" d="M20.67,46.79c-.21-.08-1.58-.67-1.26-1.49.04-.11.17-.18.29-.16s.18.13.14.24c-.17.44.74.91,1.08,1.04,0,0,.02,0,.02.01.02.01,1.93,1.06,3.97.87,0,0,0,0,0,0,.27-.02,1.19,0,1.53.1.03,0,.05,0,.08,0,.49-.04,1.16-.09,1.39-.48.05-.09.31-.46,1.21-.44.64.02.83-.12,1.62-1.09.05-.06.11-.09.19-.1.8-.06,1.49-.75,1.66-1.67.02-.09.1-.16.19-.19.93-.22.86-1.3.86-1.35,0-.01,0-.02,0-.03l.16-1.39c.01-.11.12-.2.25-.21.12,0,.21.08.2.19l-.15,1.38c.03.49-.17,1.44-1.09,1.75-.25,1.02-1.04,1.77-1.98,1.9-.74.91-1.1,1.23-1.98,1.21-.54-.01-.71.14-.74.17,0,0,0,0,0,0-.37.62-1.23.69-1.8.73-.04,0-.09,0-.13.01-.03,0-.07,0-.1-.01-.18-.07-1.05-.11-1.39-.09-.67.06-1.33,0-1.91-.11-1.25-.24-2.18-.73-2.31-.8ZM28.3,47.06h0Z"/>
    <path id="Ear_White" class="st3" d="M17.51,29.59l-.61-1.18-2.02-.46s-.77,2.7,1.04,3.17.76-.31.76-.31l.13-.43.61-.14.09-.67Z"/>
    <path class="st1" d="M14.64,27.85s.08-.09.13-.11c.11-.05.54-.19,1.57.2,1.07.41,1.23.99,1.24,1.06.03.13-.07.28-.22.32-.15.04-.3-.02-.33-.16,0,0-.12-.43-.97-.75-.23-.09-.43-.15-.58-.18.47.21,1.32.68,1.58,1.35.03.09-.02.2-.13.24-.04.02-.09.02-.13.01-.06-.01-.1-.05-.12-.1-.31-.8-1.69-1.3-1.71-1.31,0,0,0,0,0,0-.06.23-.12.56-.14,1.04-.04.98,1.05,1.47,1.06,1.47.13.06.17.21.09.33-.07.11-.21.17-.33.14-.02,0-.04,0-.05-.02-.06-.02-1.37-.61-1.32-1.88.05-1.18.33-1.63.36-1.67Z"/>
    <path id="Right_Foot" class="st1" d="M16.61,51.92c.15.15-.11-.14.02-.29-.06-.25.14-.25.13-.44.12-.22.05-.35-.08-.5-.06-.06-.02-.19-.03-.29.11.02.24.01.32.07.12.07.18.22.3.28.22.12.47.21.7.31-.02-.12-.08-.27-.08-.44,0-.07.09-.19.16-.21.06-.02.16.05.22.11.05.06.06.15.1.21.06.08.14.15.21.23.08-.11.18-.22.24-.34.03-.05-.04-.13-.05-.2-.03-.12-.11-.26.1-.34.2-.07.23.09.27.21.02.05,0,.12.01.17.02.06.24,0,.29.01.16.06.6.48.56.71.06.06.1.1.11.11.13.12.28.25.33.4.15.56.26,1.14.4,1.71.05.21.14.42.24.61.28.51.78.87,1.01,1.42.3.72-.23,1.47-1.14,1.49-.15,0-.31-.02-.46-.03-.12-.03-.24-.05-.35-.1-.6-.3-1.1-.7-1.55-1.16-.45-.47-.95-.9-1.43-1.35-.18-.17-.37-.34-.55-.51-.11-.1-.23-.2-.32-.31-.09-.11-.16-.24-.21-.37-.03-.08-.03-.17-.04-.26.11,0,.21-.02.31,0,.11.01.21.08.31.07.32-.03.51.11.49.4,0,.06-.03.14,0,.19.14.19.28.39.45.56.56.59,1.11,1.19,1.72,1.74.42.39.87.77,1.57.79.26,0,.54,0,.72-.24.18-.24.28-.52.1-.77-.18-.27-.35-.55-.55-.8-.36-.44-.68-.88-.74-1.47-.07-.64-.09-1.31-.58-1.8-.01-.01-.05-.09-.09-.19-.35-.09-.61-.88-.68.16-.03.36-.3-.26-.44-.22-.19.06-.2-.08-.5.06-.14-.05.25.23.05.44,0,.02-.38.47-.39-.29-.13.05-.1-.26-.44-.12-.24.03-.38.82-.36.93.04.21.41.08.3.53-.22.11-.42.09-.56-.08-.14-.18-.27-.35-.38-.55-.03-.06-.25-.2-.24-.29.09,0,.48.01.52.05Z"/>
    <path id="_x3C_Compound_Path_x3E_Left_Arm_body_Fur_and_Foot" class="st1" d="M39.27,44.12c-.44-.2-.87-.41-1.4-.43-.11,0-.23,0-.32-.04-.08-.04-.12-.14-.18-.21.1-.06.19-.13.29-.17.05-.02.12,0,.19,0,.55,0,1.09-.01,1.64-.02,0,0,.02-.02.03-.04-.91-.18-1.81-.35-2.71-.53-.09-.02-.22-.08-.23-.14-.01-.06.08-.18.15-.25.16-.15.34-.29.58-.49-.3.03-.52.07-.73.07-.14,0-.26-.06-.4-.09.08-.11.14-.24.24-.32.19-.17.41-.32.46-.63-.75.08-1.49-.06-2.2.41-.08.05-.23.02-.34.03.04-.11.07-.22.13-.32.03-.05.12-.09.19-.12.39-.19.52-.54.72-.78-.12-.08-.22-.14-.31-.21.1-.08.21-.21.31-.22.34-.03.44-.24.61-.47.27-.4.59-.78.96-1.11.37-.33.83-.58,1.25-.87.09-.06.2-.13.26-.22.06-.09.07-.2.12-.36-.24.13-.39.22-.55.27-.08.02-.18-.04-.27-.06.05-.08.08-.17.14-.22.15-.11.33-.19.49-.29.14-.09.25-.19.15-.37-.06.05-.1.08-.14.11-.12.1-.23.28-.39.16-.16-.12.01-.25.11-.36.04-.05.1-.09.13-.14.03-.05.06-.12.04-.16-.02-.03-.1-.04-.16-.04-.25,0-.32.16-.42.33-.05.09-.2.15-.31.22-.05-.1-.16-.2-.14-.29.09-.26-.01-.33-.28-.31-.18,0-.27-.1-.15-.23.12-.12.17-.23.19-.38.01-.06.12-.13.19-.19.06.06.12.11.17.17.02.04,0,.1,0,.15,0,.22.16.29.41.26.3-.04.46-.21.61-.43.04-.06.17-.08.25-.12.02.08.09.18.06.23-.24.31.03.53,0,.79.03.04.07.07.1.11.08-.08.15-.18.24-.23.07-.04.18,0,.27,0-.03.09-.05.18-.09.26-.02.04-.1.06-.14.09-.18.11-.27.47-.14.61.05-.04.1-.09.15-.11.09-.03.19-.05.29-.07-.01.1.01.21-.04.29-.06.09-.19.14-.29.2-.06.04-.15.07-.18.12-.25.38-.68.57-1.04.83-.31.22-.62.48-.87.76-.13.16-.2.34-.42.44-.21.09-.35.38-.25.48.21.21.05.33-.17.44-.28.15-.44.36-.49.65.5-.02.97-.04,1.43-.06.36-.02.43.08.25.4-.11.19-.22.38-.33.57.3.02.58.03.85.07.09.01.2.12.2.2,0,.08-.11.19-.19.26-.08.06-.19.07-.29.12-.12.07-.24.15-.36.22,0,.02.02.05.02.07.1.02.2.04.31.06.82.16,1.63.32,2.45.48.19.04.33.12.29.33-.04.2-.2.32-.41.35-.11.02-.22,0-.33,0-.09,0-.18,0-.27,0,0,.03-.01.06-.02.09.14.02.29.02.42.05.09.01.18.04.25.08.15.1.29.21.43.32.07-.12.06-.19.08-.25.05-.11.12-.21.18-.31.08.08.19.14.24.23.05.11.04.24.05.36.09-.1.11-.19.16-.28.05-.09.14-.17.2-.26.09-.14.18-.28.26-.42.04-.08.05-.17.1-.24.04-.05.16-.12.2-.1.06.02.11.1.13.17.01.05-.02.11-.05.17-.07.16-.05.28.11.38.18.12.22.31.15.52-.02.07-.05.14-.07.22.15.05.26.08.35-.1.04-.07.17-.12.26-.17.03.08.09.16.08.25-.02.17-.08.34-.1.52-.03.27-.2.46-.46.49-.25.03-.45-.13-.48-.37,0-.1-.01-.3-.01-.3,0,0-.28.02-.41.03-.05.06.02.16-.15.2s-.38-.41-.6-.65c-.12.46-.18.5-.61.42-.36-.06-.72-.12-1.08-.18-.09-.01-.18,0-.27,0,.07.08.15.1.24.12.56.14,1.12.28,1.68.44.08.02.11.14.17.21-.09.04-.19.1-.28.1-.11,0-.22-.04-.35-.06-.01.47-.38.3-.63.39.11.06.23.1.35.13.4.11.82.2,1.21.32.08.02.09.17.13.26-.11.04-.22.11-.32.11-.68.03-1.35.04-2.03.06-.04,0-.08.03-.19.08.24.08.42.15.61.21.41.12.83.22,1.23.36.15.05.44.07.31.32-.12.23-.34.11-.52.09-.24-.03-.47-.03-.78.1.25.14.43.25.62.36.28.17.57.32.82.51.08.06.07.21.1.31-.13.03-.28.09-.4.07-.31-.04-.62-.11-.93-.17,0,.01,0,.03-.01.04.56.28,1.12.55,1.67.82.26-.67.53-1.34.76-2.01.17-.49.29-.98.45-1.47.06-.18.11-.33,0-.51-.12-.2.04-.42.29-.53.1-.05.17-.15.26-.22.09-.07.18-.12.27-.19.03.1.07.19.08.29,0,.13-.03.27-.04.4,0,.06,0,.12-.01.17-.2.45-.42.91-.62,1.36-.19.45-.37.9-.54,1.35-.18.46-.31.93-.51,1.38-.16.38-.28.79-.7,1.06-.15.1-.2.19-.15.33.04.11.04.24,0,.36-.02.07-.12.18-.19.2-.07.02-.19-.03-.24-.09-.07-.07-.13-.17-.15-.27-.09-.4-.38-.65-.74-.82-.32-.15-.11-.36-.06-.55.05-.21.25-.19.41-.18.2.01.39.04.59.06.06,0,.13,0,.25,0-.08-.06-.1-.08-.13-.09-.4-.18-.8-.37-1.21-.54-.22-.09-.31-.23-.22-.47.09-.24.27-.3.51-.28.05,0,.11,0,.17,0-.33-.24-.67-.44-1.02-.64-.13-.07-.33-.1-.24-.3.08-.19.26-.13.41-.13.12,0,.25-.02.38-.03-.55-.25-1.09-.46-1.63-.67-.15-.06-.3-.13-.22-.32.09-.18.25-.13.41-.13.49,0,.98-.02,1.54-.04-.33-.3-.68-.38-1.05-.44-.09-.02-.15-.15-.22-.23.12-.05.23-.12.35-.14.17-.03.34-.01.51-.03.17-.02.34-.05.52-.08.06,0,.13-.02.19-.03-.09-.08-.19-.11-.29-.14-.49-.11-.98-.21-1.47-.33-.08-.02-.2-.08-.2-.15,0-.08.06-.2.14-.26.27-.22.59-.29.92-.25.14.02.27.04.41.06,0-.02.01-.05.02-.07ZM40.35,50.16s-.04.03-.06.05c.1.11.17.26.3.33.05.03.23-.12.35-.19-.01-.02-.02-.05-.04-.07l-.56-.11Z"/>
    <polygon class="st1" points="15.35 45.44 15.35 45.44 15.36 45.44 15.35 45.44"/>
    <path class="st1" d="M28.02,62.7c-.04-.44,0-1.2.05-1.86-.37.25-1.58,2.61-1.7,1.42.05-.15.09-.3.14-.46-.16.25-.33.5-.46.68-.07.1-.21.15-.32.13-.01,0-.03,0-.04-.01-.39-.15-.34-.68.15-1.79.16-.37.35-.73.48-.98-.17.06-.38.2-.57.48-.04.05-.09.09-.14.12-.27.46-.72.88-.65,1.44,0,.04-.12.15-.19.16-.07.01-.18-.04-.2-.1-.06-.16-.09-.34-.1-.51-.02-.21-.01-.42-.02-.63-.03,0-.05,0-.08-.01-.18.29-.37.58-.54.88-.23.39-.43.8-.66,1.19-.04.07-.19.11-.29.16-.04-.08-.12-.16-.1-.24.08-.39.15-.79.24-1.18-.06.04-.13.07-.2.06,0,0-.02,0-.02,0-.1-.02-.16-.1-.16-.19l.05-1.04s0,0,0,0c-.14.25-.32.5-.43.76-.12.29-.19.59-.29.88-.07.19-.24.28-.34.18-.06-.07-.08-.19-.07-.29.04-.45.1-.91.15-1.36,0-.09,0-.19,0-.28l-.07-.02c-.48.46-1.14.77-1.41,1.41-.04.09-.2.14-.31.21-.03-.1-.1-.21-.08-.31.05-.18.15-.36.24-.56-.33.14-.43.26-.68.65-.05.08-.18.12-.28.19-.04-.08-.14-.17-.12-.24.14-.55.3-1.1.46-1.65.02-.06.03-.12.05-.26-.52.4-1.03.68-1.32,1.18-.08.14-.16.32-.37.24-.08-.03-.11-.08-.11-.13-.02-.04-.03-.09-.01-.15l.24-.72c-.12.09-.34.16-.46.13-.2-.04-.1-.26-.06-.41,0-.02,0-.03,0-.02-.26.24-.52.49-.8.73-.07.06-.25.11-.29.08-.06-.05-.09-.18-.07-.27.04-.17.12-.33.18-.5-.2.06-.33.15-.47.21-.12.05-.25.05-.38.07,0-.11-.03-.22,0-.32.15-.43.32-.85.48-1.28-.02,0-.04-.01-.07-.02-.09.11-.16.24-.27.33-.14.13-.3.27-.47.34-.29.12-.45-.03-.35-.3.12-.33.26-.66.38-1,.04-.11.06-.22.09-.33-.03-.01-.05-.02-.08-.03-.08.06-.15.13-.24.17-.09.04-.26.11-.29.08-.07-.07-.11-.19-.09-.29,0,0,0,0,0-.01-.06-.04-.1-.14-.1-.21,0-.1.04-.22.07-.37-.09.06-.14.09-.18.11-.22.11-.38.04-.34-.18.04-.2.1-.41.17-.61-.03.05-.06.1-.1.13-.08.07-.22.16-.29.14-.08-.01-.16-.13-.17-.22,0-.13.06-.26.1-.39.04-.13.08-.27.13-.4-.02,0-.05-.02-.07-.03-.16.17-.31.35-.48.51-.07.06-.19.08-.29.12-.03-.09-.09-.17-.09-.27,0-.1.05-.2.08-.31-.43.05-.5-.06-.32-.41.13-.24.25-.47.37-.71-.09,0-.13.03-.16.06-.18.12-.37.34-.59.21-.22-.13-.06-.36,0-.55.09-.26.2-.52.29-.77-.23,0-.45.04-.66.01-.23-.03-.26-.17-.12-.36.17-.23.32-.46.47-.69.04-.06.05-.16.02-.2-.1-.14-.04-.26.08-.39.25-.26.5-.51.75-.77,0-.02-.02-.03-.03-.05-.09.03-.18.05-.26.1-.48.31-.94.62-1.42.92-.1.06-.24.07-.37.1,0-.1-.05-.23,0-.31.25-.39.53-.78.8-1.16.05-.07.1-.13.16-.21-.41-.04-.46-.13-.29-.45.09-.16.19-.32.29-.48.05-.08.08-.16.13-.25-.44.03-.53-.09-.31-.41.25-.37.59-.65.99-.88l-.13-.24-.35.16c-.1.05-.2.03-.27-.03-.07-.06-.08-.16-.02-.25l.39-.62h-.36c-.1,0-.17-.06-.2-.14s.01-.17.09-.23l.8-.63-1.07.23c-.1.02-.19-.01-.23-.08s-.04-.16.02-.24l.72-.93-.06-.08c-.06-.08-.05-.19.03-.27l.72-.76-.07-.3c-.02-.08.02-.16.09-.22l.7-.55s.07-.04.1-.05l.14-.04s-.11-.08-.19-.11c-.06-.02-.14-.1-.14-.16-.01-.43-.42-.57-.68-.8-.42-.36-.9-.68-1.36-1.02-.03-.02-.08-.05-.08-.09,0-.08.02-.17.03-.25.09,0,.19-.02.27,0,.07.02.11.08.17.12.14-.17.12-.52-.03-.6-.12-.07-.3-.13-.18-.3.13-.19.27-.06.39,0,.05.03.13.03.24.05.05-.26.1-.49.15-.72.02-.1,0-.25.05-.3.16-.11.24.02.3.12.02.03.04.05.05.08.1.25.38.25.6.23.24-.02.3-.23.34-.42.01-.07.13-.14.2-.21.06.07.12.13.16.2.05.1.06.21.12.3.08.13,0,.27-.18.28-.28,0-.4.09-.35.36.01.08-.13.19-.21.29-.09-.06-.19-.11-.26-.18-.04-.04-.02-.15-.06-.17-.14-.06-.29-.08-.44-.12.02.1.03.2.06.3.02.06.1.09.11.15.02.07,0,.2-.03.21-.08.04-.2.04-.26.01-.09-.04-.15-.14-.24-.22-.14.19-.05.29.08.36.14.08.31.15.44.24.06.04.08.14.11.21-.09.04-.18.1-.26.1-.09,0-.17-.06-.26-.1-.07-.03-.14-.06-.22-.1-.14.25,0,.36.14.46.37.26.78.49,1.1.78.3.28.52.62.78.94.04.03.06.06.07.11,0,.02,0,.04,0,.06.07.19.15.38.22.58.22.62.45,1.24.67,1.87.02.06-.02.14-.04.21-.27.08-.35-.08-.41-.25-.26-.72-.52-1.44-.77-2.16l-.19.05-.53.42.06.28c.02.07,0,.14-.06.2l-.68.72.05.06c.06.07.05.17,0,.25l-.49.63.68-.15s.07,0,.11,0h0s.41.08.41.08c.08.02.14.07.16.15.01.08-.02.16-.09.21l-.74.58h.15c.08,0,.15.04.18.1.03.06.03.14-.01.2l-.22.35c.09-.01.18.02.22.1l.28.52c.06.1,0,.23-.12.3-.02.01-.05.02-.07.03-.06.05-.14.07-.21.12-.18.14-.36.28-.57.45.08.02.1.03.13.04.11.03.22.06.33.08-.05.1-.09.21-.15.31-.14.23-.29.45-.44.67.02.02.04.04.06.06.31-.16.62-.33.93-.48.09-.04.2-.05.29-.08-.01.09.02.22-.04.28-.19.2-.41.38-.63.56-.39.3-.69.66-.95,1.06.2-.08.36-.2.55-.28.29-.13.59-.23.89-.33.17-.05.31-.01.37.14.05.15,0,.28-.16.4-.15.11-.28.24-.41.36.19.26.19.32-.1.54-.36.28-.55.64-.7,1.03.14-.04.28-.08.38-.17.29-.24.55-.51.84-.74.08-.06.22-.06.34-.09,0,.1.02.22-.03.31-.09.16-.22.31-.33.46-.2.28-.42.55-.61.83-.09.14-.14.3-.21.45.02,0,.05.02.07.03.09-.09.18-.18.28-.26.22-.16.43-.33.66-.47.07-.05.24-.05.29,0,.05.04.05.19,0,.26-.11.18-.25.35-.38.53-.14.21-.28.42-.4.6.2.05.34.08.49.12.01.03.02.05.03.08.13-.14.26-.28.41-.41.09-.08.22-.13.33-.2.04.11.11.21.12.32,0,.09-.06.19-.1.29.03,0,.06.02.08.03.09-.09.18-.18.25-.28.11-.13.25-.22.37-.12.07.06.09.23.04.31-.12.17-.31.31-.46.48-.1.11-.27.25-.27.36,0,.16.1.35.24.42.23.12.2.22.03.38.12.06.23.09.41.04.14-.04.2.11.1.24-.09.12-.18.25-.28.37.09-.02.17-.05.26-.07.25-.08.4,0,.35.22-.06.32-.16.64-.25.96-.03.1-.07.2-.11.3.03,0,.06.02.09.02.15-.22.27-.46.44-.66.14-.16.31-.32.5-.41.23-.11.39.05.32.27-.04.13-.09.25-.14.38.02.01-.21.22-.29.62-.05.24-.18.48-.27.72.03,0,.06.02.1.03.12-.11.22-.25.36-.33.12-.07.31-.11.43-.07.16.05.1.21.02.34-.05.1-.08.2-.12.3.29-.29.47-.61.59-.97.03-.09.18-.17.27-.25.05.09.14.17.15.26.01.29-.01.58-.02.87h.08c.08-.09.15-.19.23-.3l.02-.06c.03-.09.11-.16.2-.18.06-.03.13-.06.19-.09.01.06.05.13.06.19.02.04.03.09,0,.14l-.24.72c.06-.06.12-.11.19-.16.5-.41,1.09-.72,1.47-1.25.05-.07.24-.07.36-.1,0,.11.01.23-.04.33-.12.22-.31.43-.41.65-.19.42-.33.84-.49,1.27.04.03.07.05.11.08.03-.04.05-.08.09-.11.25-.24.49-.48.76-.7.08-.07.22-.08.33-.12,0,.1.04.19.02.29-.02.08-.09.16-.13.24.02.01.04.02.06.03.32-.33.84-.5.94-1.01.03-.13.08-.29.28-.27.19.02.15.17.15.3-.01.31-.01.61-.01.91.04,0,.07.01.11.02.17-.29.33-.58.52-.86,0,0,.01-.01.02-.02v-.14c.01-.12.12-.22.26-.24.13-.01.24.08.23.19l-.04.86.49-.98c.06-.11.2-.18.32-.14.12.04.17.16.11.27l-.27.55c-.18.47-.34.93-.32,1.44.08-.12.13-.19.18-.27.3-.45.6-.9.91-1.34.09-.13.24-.24.4-.14.15.09.1.24,0,.35-.26.26-.13.49-.12.8.09-.1.14-.15.17-.21.07-.12.14-.24.21-.36-.02-.06-.02-.14.03-.21.51-.79,1.26-.88,1.59-.82.08.01.14.06.17.12s.02.14-.02.21c-.36.64-.67,1.3-.86,1.78.37-.58.73-1.16.73-1.17.08-.13.25-.19.38-.14.13.05.18.2.1.33,0,.01-.06.11-.15.25-.1.32-.31.65-.38.96.04,0,.08.02.11.02.52-.52.78-1.33,1.5-1.63.18.43-.02.92-.05,1.38.02,0,.07-.02.07,0,.08,1.53.49,3.16,1.25.75.09-.27.12-1.55.31-1.35l.08-.03c.06-.37-.06-1.16.39-1.33.02.06.37,1.5.48,2.03.09-.29.16-.58.09-.88-.01-.06.03-.17.08-.2.24-.13.15-.26.11-.41-.08-.29-.16-.59-.2-.89,0-.07.13-.18.2-.27.06.08.14.15.17.24.08.28.14.58.2.87.04,0,.07-.01.11-.02.08-.2.14-.4.23-.59.04-.08.17-.2.22-.2.09.01.16.11.22.18.04.05.03.12.06.24.05-.11.08-.16.1-.2.14-.46.28-.92.44-1.37.04-.11.17-.2.26-.3.1.08.22.14.28.23.05.1.04.23.05.35.02,0,.04,0,.05,0,.05-.17.1-.34.16-.51v-.03c-.05-.11.01-.24.14-.29.13-.05.26-.01.31.09l.28.68c.03-.1.06-.2.1-.3.17-.42.32-.84.49-1.26.13-.34.17-.36.54-.28.04-.13.05-.27.12-.39.06-.11.07-.27.25-.31.16-.02.18.16.23.26.09.18.15.38.22.58.03-.01.07-.02.1-.03,0-.27-.02-.53,0-.8,0-.1.02-.3.13-.38.15-.04.23.13.29.2.12.13.2.29.3.44.02,0,.04-.02.07-.03,0-.08,0-.16,0-.23,0-.5-.02-1,0-1.5,0-.09.1-.19.15-.28.1.04.21.07.31.11.05.02.07.07.11.11.02,0,.05-.02.07-.02-.03-.22-.05-.44-.08-.66-.02-.16-.05-.31-.08-.46l-.21-.15c-.1-.07-.1-.2-.01-.3.08-.09.22-.12.32-.07.01-.01.03-.03.04-.04.07.06.17.1.19.18,0,0,0,.01,0,.02l.79.56c-.11-.29-.28-.51-.58-.66-.06-.03-.06-.16-.09-.24.11-.04.24-.12.31-.1.17.06.3.17.45.26.15.09.3.19.45.29.03-.02.05-.04.08-.06-.17-.32-.36-.63-.52-.95,0,0,0-.02,0-.02l-.12-.03c-.14-.04-.21-.18-.14-.31.06-.13.23-.21.37-.17l1.22.33-.04-.1c-.05-.12.03-.28.17-.34.15-.06.31-.01.36.11l.25.61c.04.09,0,.2-.07.27-.08.07-.19.11-.28.09,0,0-.01,0-.02,0l-1.19-.32c.23.54.47,1.09.68,1.64.03.08-.08.21-.13.32-.09-.06-.21-.1-.28-.18-.12-.15-.22-.32-.32-.48-.04.02-.08.04-.12.07.14.3.28.6.41.9.05.12.06.28-.13.33-.08.02-.23-.08-.27-.17-.05-.11-.1-.21-.14-.32-.03,0-.06-.02-.08-.03l-.87-.62c.08.55.13,1.11.1,1.68,0,.16.03.33-.01.49-.02.09-.16.17-.24.25-.06-.08-.14-.15-.17-.25-.06-.21-.1-.42-.15-.64l-.09.02c0,.13-.02.28,0,.4.13.61-.05,1.25-.1,1.87-.01.14-.04.31-.26.32-.22.01-.19-.16-.17-.3.04-.3-.04-.49-.23-.79,0,.18,0,.36,0,.53,0,.34-.01.67-.04,1.01-.01.14-.05.31-.26.32-.22,0-.19-.16-.17-.3.01-.08.02-.17.02-.25-.01-.41-.24-.72-.44-1.04-.05.05-.07.09-.07.13-.02.61-.04,1.23-.05,1.84,0,.15.02.32-.21.37-.2.04-.24-.1-.24-.24,0-.28.02-.56.01-.83-.01-.25-.05-.49-.08-.74-.04,0-.08.01-.11.02-.23.6-.56,1.2-.45,1.83l.08.19c.04.11-.02.24-.15.29-.05.02-.11.03-.16.02-.07-.01-.12-.05-.15-.11l-.43-1.07c-.07.25-.14.49-.21.73-.09.31-.21.62-.34.93-.03.07-.17.11-.25.17-.05-.07-.11-.14-.13-.22-.01-.05.04-.13.05-.19.06-.32.19-.65.05-.96-.07.08-.1.17-.13.25-.2.49-.4.98-.62,1.47-.05.11-.17.24-.28.28-.09.03-.21-.08-.31-.12-.05.06-.09.18-.17.21-.21.09-.22.25-.27.4-.07.23-.14.46-.23.69-.02.06-.11.12-.18.14-.04.01-.13-.02-.15-.06-.09.05-.21-.28-.32-1.21-.08.5.06,1.04-.17,1.51-.4.46-.44.87-.9,1.4-.34.4.06.24-.55.14s-.85-.75-.89-1.18Z"/>
    <path id="Neck_Scarf_Stripe" class="st1" d="M21.45,44.26c.04.1.06.19.11.25.05.05.14.12.21.11.07,0,.17-.09.2-.16.13-.3.25-.6.35-.9.02-.07-.06-.16-.09-.24-.08.06-.19.1-.25.17-.06.07-.09.17-.13.26-.34-.18-.44-.14-.65.19"/>
    <path id="Neck_Scarf_Stripe1" data-name="Neck_Scarf_Stripe" class="st1" d="M32.53,41.1c-.02-.43.18-.81.41-1.26.1.19.13.36.25.45.05.04.26-.09.44-.16.03.09.07.24.15.37.05.07.16.1.25.15.06-.08.16-.15.18-.24.12-.44.11-.85-.15-1.21-.1-.14-.12-.33-.21-.48-.05-.08-.17-.11-.26-.16-.03.1-.12.22-.09.3.08.26.2.52.32.79-.3-.07-.56-.15-.83-.2-.2-.04-.32.09-.39.24-.15.34-.28.69-.42,1.04-.02.05-.03.11-.05.17-.03,0-.06,0-.06,0-.09-.08-.15-.25-.34-.13-.2.13-.04.25,0,.37.06.22.04.48.17.65.21.29,0,.58-.04.87,0,0,.02.46.45-.19s.23-1.37.23-1.37Z"/>
    <path id="Neck_Scarf_Hair__x2B__Stripe" class="st1" d="M25.33,44.84c.46-.09.23-.4.34-.59q.6.44.92-.16c.21-.07.39-.1.54-.18.1-.06.17-.18.19-.31-.05-.21-.23-.04-.41-.08-.2-.21-.46-.17-.6.25-.04.11-.08.22-.15.41-.1-.15-.15-.24-.22-.32-.07-.07-.16-.18-.23-.17-.1.01-.22.12-.31.2-.06.06-.1.14-.18.26-.05-.14-.07-.24-.13-.33-.07-.1-.14-.23-.25-.25-.07-.01-.21.14-.31.22-.05.05-.09.11-.15.18-.23-.14-.39-.03-.53.16q-.4-.13-.73.45c-.06-.12-.11-.2-.13-.29-.03-.13,0-.28-.04-.41-.02-.06-.11-.13-.18-.12-.06,0-.17.11-.18.16-.03.4-.02.79.39,1.02.33.19.49.13.58-.18.19-.04.36-.08.6-.14.08.04.19.28.39.06.11-.12.11-.33.2-.5,0,0,.13.76.59.67Z"/>
    <path id="Neck_Scarf_and_Fur__x28_complound_x29_" class="st1" d="M27.73,43.82c-.04-.63.23-.55.4-.81.14-.21.35-.36.64-.31.05,0,.17-.07.18-.12.1-.29.34-.35.61-.41.19-.04.28,0,.3.17.04.35-.18.53-.12,1.1s.23-.01.31-.02c.02-.05.03-.08.04-.1.08-.57.23-1.14.47-1.7.18-.4.33-.47.71-.3.06.03.15.05.22.04.21-.04.28.04.26.22-.02.12-.04.47-.05.58-.05.31-.06.37-.13.68-.03.14-.11.3-.32.28-.19-.02-.15-.18-.14-.31.01-.25.02-.51,0-.76,0-.14-.05-.27-.07-.4-.46.66-.25,2.03-.48,2.23s-1.12.69-1.11.08,0-.29,0-.32c0-.24,0-.48,0-.72,0-.09-.03-.18-.05-.27-.03,0-.06,0-.09,0-.06.16-.13.31-.18.47-.07.23-.11.46-.2.68-.04.09-.01.38-.26.22s-.1-.19-.08-.28c.03-.15.12-.31.16-.46.01-.07-.04-.15-.09-.2-.02-.02-.15.04-.2.08-.28.25-.35.55-.22.83,0,0-.45.46-.49-.17Z"/>
    <path id="Right_Cheek_Fur" class="st1" d="M19.71,42.93c.02.21-.02.5.06.51.22.05.48-.02.77-.04,0,.13-.02.33,0,.51.02.11.11.21.17.31.12-.08.27-.15.35-.26.1-.13.17-.29.22-.45.04-.11.02-.23.03-.34-.12.03-.24.05-.42.09.02-.13.05-.3.06-.46,0-.09-.01-.18-.02-.27-.11.02-.24.02-.32.08-.13.09-.23.21-.37.31.05-.13.12-.26.14-.39.02-.09,0-.2-.05-.26-.04-.04-.2-.02-.27.03-.34.23-.68.48-1,.74-.07.06-.05.2-.08.3.11-.03.23-.03.32-.09.15-.09.27-.22.4-.32Z"/>
    <path id="Left_Check_and_Paw" class="st1" d="M36.57,35.91c.06.05.1.12.17.15.06.02.16.02.22,0,.05-.02.1-.13.08-.17-.07-.13-.15-.27-.27-.36-.18-.13-.43-.02-.57.22-.12.2-.13.4,0,.56.12.16.05.29-.08.42-.3.3-.61.6-.91.89-.03.03-.07.05-.11.08-.2-.29-.39-.56-.59-.86.07-.07.16-.17.27-.28.09.03.18.09.28.1.09.01.21,0,.27-.04.05-.04.09-.17.06-.22-.37-.58-.69-1.18-1.26-1.63-.03-.03-.07-.06-.11-.06-.1,0-.2.03-.29.04.02.08.02.18.07.25.29.36.6.7.9,1.06.01.01,0,.04,0,.09-.18-.02-.35-.07-.5-.03-.24.06-.15.23-.1.4-.06.02-.13.04-.18.07-.26.15-.24.32-.01.45.22.13.4.3.6.45.03.02.03.07.05.14-.24-.06-.44-.13-.65-.16-.11-.02-.25.04-.38.06.02.12.02.25.08.34.19.26.43.48.61.74.09.13.1.32.17.47.03.06.13.1.2.14.06-.07.12-.14.17-.22.02-.03.01-.09,0-.12-.19-.31.1-.49.32-.7.24-.23.47-.47.71-.7.13-.13.28-.25.4-.38.14-.16.28-.32.39-.5.11-.17.13-.33-.02-.48-.04-.04-.03-.13-.04-.2.02,0,.04-.02.06-.02Z"/>
    <path id="Right_Head_Fur" class="st1" d="M16.08,34.09c-.1.13-.18.28-.29.4-.22.26-.44.51-.67.76-.22.24-.45.49-.69.72-.28.28-.3.4-.06.64.04.04.07.11.07.17.03.31.17.53.6.56-.07.13-.11.25-.18.36-.05.09-.15.17-.18.27-.03.08,0,.18.01.27.11-.03.23-.03.32-.08.11-.06.2-.16.3-.25.02.02.05.03.07.05-.04.06-.09.12-.12.18-.09.15-.18.31-.24.47-.02.05.04.15.09.17.05.02.19-.03.21-.07.16-.34.42-.59.76-.81.15-.09.07-.26-.13-.29-.18-.03-.37-.03-.65-.06.16-.23.28-.43.42-.62.09-.12.23-.23.1-.35-.14-.12-.29-.02-.42.08-.04.03-.08.08-.12.12-.1.11-.21.26-.36.15-.14-.1-.14-.28,0-.42.11-.11.25-.2.38-.29.13-.09.33-.18.23-.33-.05-.08-.24-.07-.41-.11.24-.29.52-.62.78-.95.25-.32.51-.64.73-.97.12-.18,0-.27-.38-.26.1-.15.23-.29.29-.44.15-.39-.05-.72-.16-1.05-.05-.14-.54-.2-.71-.17-.17.03-.34.02-.51,0-.11-.01-.2-.09-.31-.11-.09-.01-.23-.01-.27.04-.06.06-.1.21-.06.26.11.14.24.31.41.34.25.05.54.02.81-.02.37-.06.41-.05.39.36-.12-.02-.23-.06-.34-.06-.12,0-.27-.02-.38.03-.11.05-.25.18-.26.27,0,.08.14.18.24.21.15.05.33.05.5.07.01,0,.02.02.08.06-.15.16-.29.34-.46.49-.25.22-.52.4-.77.62-.08.07-.1.2-.14.3.12,0,.27.05.36,0,.23-.14.44-.32.66-.49.12-.09.25-.17.38-.25.02.02.05.04.07.06Z"/>
    <path id="Head_Fur" class="st1" d="M17.32,27.2c.22,0,.21.2.2.32-.01.16.04.27.11.34.06-.53.14-.74.36-.77.24-.03.27.21.3.4.08.61.38.94.48,1.03.28.04.6.02.68-.03,0-.03-.02-.14-.23-.36-.41-.44-.63-.75-.63-.76-.02-.02-.03-.05-.03-.08l-.08-.93c0-.08.04-.16.13-.21.08-.05.18-.04.25,0l.51.36c.16.02.63.09,1.01.23.31.12.35.27.29.49-.03.1-.05.22.03.43l.34.33c.07-.02.15-.05.17-.09.03-.05,0-.17-.15-.36-.33-.4-.28-.66-.18-.91.06-.15.09-.24-.12-.47-.27-.3-.4-.52-.24-.71.06-.07.15-.11.25-.12.17-.14.39-.08.92.14.02,0,.04.02.06.02.28.1.57.26.47.91,0,.08,0,.15,0,.22,0,.21,0,.32.06.37-.05-.8.23-1.07.53-1.29.04-.02.08-.06.09-.07,0,0,0,0,0-.02-.02-.23-.05-.34-.07-.4-.02-.07-.06-.23.16-.34.04-.02.12-.06.3-.25.35-.36.39-.52.39-.56-.02-.06,0-.14.05-.19.06-.07.16-.1.25-.08.02,0,.59.14.54.78-.03.38-.02.66-.01.76l.39.62c.02-.14.05-.28.11-.4.15-.31.38-.39.53-.44.14-.05.22-.07.3-.28.17-.39-.18-1-.33-1.2-.06-.08-.04-.19.05-.26.08-.07.21-.09.29-.04.04.03,1.05.67,1.06,1.48,0,.59-.3.91-.51,1.05.07.44.28.99.44,1.34.07-.09.15-.18.23-.26.23-.21.41-.41.51-.69.1-.29.31-.39.69-.32.28.08.57.24.65.57.1.42.16.85.22,1.28.01.08,0,.19-.06.27-.05.07-.16.12-.24.18-.04-.07-.11-.13-.12-.21-.05-.43-.05-.87-.14-1.29-.04-.17-.23-.31-.39-.44-.12-.1-.23-.05-.31.12-.09.19-.2.37-.33.54-.17.21-.35.41-.54.6.04.09,0,.2-.11.26-.11.06-.25.04-.3-.05-.11-.17-.59-1.23-.67-1.95,0-.09.05-.19.15-.23.02,0,.37-.17.37-.73,0-.15-.05-.29-.12-.42.01.16,0,.33-.07.48-.17.41-.44.5-.62.56-.13.04-.17.06-.23.17-.15.32-.07.91-.03,1.11.02.09-.04.2-.15.24-.11.05-.22.02-.27-.06l-.88-1.42s-.02-.05-.02-.08c0-.01-.02-.34.01-.85,0-.11-.02-.2-.05-.26-.08.14-.21.31-.41.52-.14.15-.24.23-.32.28.02.08.04.19.06.38.03.26-.16.4-.29.49-.18.13-.43.31-.3,1.19,0,.06-.02.13-.07.18s-.12.08-.19.08c-.73-.01-.73-.4-.73-.77,0-.07,0-.14,0-.22,0-.01,0-.02,0-.04.07-.45-.07-.5-.24-.55-.03-.01-.06-.02-.09-.03-.2-.09-.33-.13-.41-.16-.02.01-.03.02-.05.03.03.04.08.1.14.16.32.36.27.59.18.84-.06.16-.11.27.13.56.24.29.3.55.17.77-.18.31-.62.36-.67.37-.07,0-.13-.01-.17-.05l-.44-.43s-.03-.03-.04-.05c-.14-.33-.09-.55-.06-.68,0-.01,0-.03,0-.04-.01,0-.04-.02-.08-.04-.41-.15-.95-.21-.96-.21-.04,0-.07-.02-.1-.04l-.13-.09.03.38c.07.09.26.35.58.69.21.22.46.54.25.83-.08.12-.37.37-1.24.23-.03,0-.06-.02-.09-.04-.02-.01-.27-.21-.46-.63-.02.03-.04.06-.08.09-.06.04-.12.06-.19.05-.11-.01-.26-.06-.39-.16,0,.05-.02.11-.02.16.12.63,1.01,1.37,1.02,1.38.09.07.08.2,0,.28-.06.06-.15.09-.23.07-.03,0-.06-.02-.09-.04-.04-.03-1.02-.84-1.14-1.61,0-.02,0-.03,0-.05,0,0,.04-.25.08-.51.02-.13.04-.26.06-.35.03-.15.06-.35.28-.35Z"/>
    <path id="Left_Cheek_Fur" class="st1" d="M34.44,33.98c.15-.15.37-.32.35-.37-.07-.16-.23-.28-.36-.41-.09.08-.19.16-.28.24.01.02.02.05.03.07-.13-.01-.26-.04-.39-.02-.09,0-.17.07-.26.11.04.08.05.18.11.23.31.25.64.48.94.74.06.05.04.17.09.24.05.06.14.09.21.13.05-.07.15-.15.15-.21,0-.22-.07-.41-.29-.52-.13-.07-.23-.17-.29-.21Z"/>
    <path class="st1" d="M34.85,34.95s-.04-.02-.07-.04c-.05-.03-.11-.06-.15-.1-.03-.03-.04-.08-.05-.12,0-.05-.02-.09-.05-.11-.16-.13-.32-.26-.49-.38-.15-.12-.31-.23-.46-.36-.05-.04-.07-.1-.09-.16,0-.03-.02-.05-.03-.08v-.03s.02-.01.02-.01c.03-.01.05-.03.08-.04.06-.03.13-.07.2-.08.1,0,.19,0,.28.01.02,0,.04,0,.06,0l-.02-.04.33-.27.02.02s.07.07.11.11c.1.09.2.19.25.31.02.06-.07.14-.2.25-.05.04-.09.08-.13.13.01,0,.02.02.04.03.06.05.14.11.23.16.21.11.31.29.3.54,0,.06-.05.11-.1.17-.02.02-.04.04-.06.07l-.02.03-.03-.02ZM34.18,33.43l.04.1h-.06s-.08-.01-.12-.02c-.09-.01-.18-.02-.27-.01-.05,0-.11.04-.17.07-.02,0-.04.02-.05.03,0,.02.01.04.02.06.02.06.04.11.07.14.15.12.3.24.45.35.16.12.33.25.49.38.04.03.05.09.06.14,0,.04.02.08.04.11.03.04.08.06.13.09.02,0,.03.01.04.02.01-.02.03-.03.04-.05.04-.04.08-.09.08-.13,0-.24-.08-.4-.27-.5-.1-.05-.18-.12-.24-.17-.02-.02-.04-.03-.06-.05l-.02-.02.02-.02c.05-.05.11-.1.16-.15.07-.07.18-.17.18-.19-.05-.11-.15-.2-.24-.29-.03-.03-.07-.06-.1-.09l-.24.2Z"/>
    <path id="Left_Cheek" class="st1" d="M33.53,31.73c-.1.1-.18.16-.23.23-.21.25-.15.4.15.45.06,0,.14.02.16.06.11.25.39.29.65.34.25.05.43.15.54.35.03.06.07.12.12.15.06.03.18.05.21.01.06-.05.11-.17.09-.21-.16-.26-.27-.56-.67-.59-.38-.02-.54-.26-.7-.51.32-.32.33-.39-.07-.57-.34-.16-.73-.25-1.1-.37-.08-.03-.16-.07-.27-.12.07-.05.11-.08.14-.11.09-.08.27-.19.26-.24-.02-.11-.12-.22-.23-.27-.39-.19-.83-.15-1.27.04-.39.16-.42.16-.6-.16.01-.02.02-.05.04-.06.14-.11.31-.22.24-.4-.07-.19-.26-.27-.49-.25-.09,0-.18.09-.27.14.05.06.09.13.15.19.02.02.06.02.09.03,0,.03,0,.04-.01.06-.15.21-.31.41-.08.62.37.34.56.38.96.18.28-.14.56-.2.86-.14-.3.46-.24.63.28.8.26.08.52.14.78.21.09.03.17.07.28.12Z"/>
    <path id="Right_Check_Fur" class="st1" d="M15.62,40.17c-.17.37-.34.73-.49,1.1-.04.11-.04.29.03.34.14.1.26-.05.36-.16.07-.08.15-.16.29-.23,0,.1-.03.2-.02.29.01.12,0,.29.09.34.07.05.26-.04.41-.08,0,.18-.03.41-.02.63,0,.09.11.17.16.25.09-.08.21-.14.27-.23.19-.28.36-.57.55-.86.05-.07.13-.12.25-.16-.03.08-.05.17-.08.25-.12.38-.26.77-.36,1.15-.03.1,0,.27.07.31.16.08.25-.08.34-.2.11-.13.22-.26.38-.37,0,.06-.01.12-.03.18-.1.43-.2.86-.29,1.29-.03.13-.04.29.14.27.09,0,.23-.15.27-.24.2-.52.37-1.04.57-1.56.05-.12.17-.22.25-.34.05-.07.11-.17.08-.22-.02-.05-.14-.06-.22-.07-.05,0-.14.04-.16.02-.26-.24-.5-.09-.78.1.1-.27.22-.54.3-.81.03-.09.03-.23-.02-.28-.04-.04-.22-.03-.3.01-.31.17-.6.36-.93.57.1-.12.2-.24.3-.35.11-.12.24-.27.08-.37-.1-.06-.32-.06-.45,0-.16.07-.29.23-.49.4.04-.13.05-.2.09-.27.12-.2.26-.38.37-.58.04-.07,0-.16-.01-.24-.1.03-.22.04-.28.09-.13.11-.23.26-.35.39-.04.04-.11.05-.22.1.16-.41.31-.76.77-.93.16-.06.37-.11.3-.3-.07-.2-.3-.14-.47-.06-.29.12-.56.27-.85.4-.05.02-.1.04-.2.07.17-.49.5-.84.89-1.15.12-.1.28-.16.4-.27.08-.07.11-.17.16-.26-.11,0-.25-.05-.33,0-.57.3-1.02.72-1.31,1.25-.16.29-.27.59-.38.89-.03.08.04.18.07.28.11-.04.23-.06.32-.12.14-.09.25-.21.38-.31.02.01.04.03.06.04Z"/>
    <path id="Right_Thumb" class="st1" d="M14.57,39.56c-.05.09-.12.17-.15.26-.03.09-.03.19-.04.28.11-.03.24-.03.31-.09.25-.2.32-.47.2-.71-.08-.17-.25-.29-.44-.18-.18.11-.34.31-.42.49-.05.12.11.18.26.09.08-.05.14-.12.21-.18.02,0,.05.02.07.03Z"/>
    <path id="Right_Shoulder_Shadow" class="st1" d="M16.06,45.77c.03-.09.07-.16.06-.21-.01-.06-.05-.15-.1-.16-.05-.01-.18.03-.21.08-.14.24-.28.5-.39.75-.02.05.04.16.1.18.06.01.19-.04.23-.09.13-.18.22-.38.31-.54Z"/>
    <path id="Right_Shoulder_Shadow1" data-name="Right_Shoulder_Shadow" class="st1" d="M16.17,45.97c-.07.15-.13.25-.14.34,0,.07.03.16.08.19.04.02.19-.03.21-.07.12-.24.22-.49.3-.74.01-.03-.09-.12-.15-.12-.06,0-.16.06-.19.12-.06.1-.09.22-.11.28Z"/>
    <path id="Right_Shoulder_Shadow2" data-name="Right_Shoulder_Shadow" class="st1" d="M16.96,45.33c-.18.01-.25.11-.23.26.01.17.03.34.06.5.01.06.08.12.14.13.04,0,.14-.05.18-.1.11-.14.05-.68-.08-.76-.02-.01-.05-.02-.07-.03Z"/>
    <path id="Right_Shoulder_Shadow3" data-name="Right_Shoulder_Shadow" class="st1" d="M15.36,45.44c-.02.07-.07.15-.06.21,0,.06.07.11.13.14.03.01.14-.04.15-.08.02-.05,0-.13-.03-.17-.05-.05-.13-.07-.19-.1,0,0,0,0,0,0Z"/>
    <path id="Right_Eye" class="st1" d="M21.87,31.78c.11.03.24.17.23.27,0,.19-.2.23-.38.23-.13,0-.27-.01-.4.02-.64.14-1.37-.13-1.57-.65-.07-.18-.08-.48.04-.63.13-.37.36-.75.92-.9.28-.04.33-.04.44-.04.06,0,.92.21.92.23.31.4-1.36-.19-.92.69.05.11.27.79.95.13.1-.1-.04.59-.13.79-.01.03-.04.05-.07.03"/>
    <path id="Lefr_Eye__x28_Compound_x29_" class="st1" d="M29.67,30.48c.04.06-.05.27-.13.31-.42.19-.82.52-1.3.38-.31.01-.39-.14-.34-.39.03-.16.02-.32.06-.48.06-.23.11-.48.23-.7.13-.24.32-.45.49-.67.14-.19.27-.38.43-.55.08-.08.27-.17.35-.14.1.03.21.17.21.27.01.21-.06.43-.08.64-.01.16.02.31,0,.47,0,.13,0,.3-.08.38l.14.49Z"/>
    <path id="Chin_Shadow_4" class="st1" d="M25.87,37.95c-.14.1-.3.17-.29.2.02.1.08.2.15.27.02.02.23-.08.24-.12,0-.1-.05-.2-.1-.36Z"/>
    <path class="st1" d="M25.71,38.44c-.09-.08-.14-.19-.16-.29,0-.04.05-.08.16-.14.04-.03.1-.06.15-.09l.04-.03v.04s.04.09.06.13c.03.09.06.16.05.24,0,.05-.13.11-.18.13-.05.02-.08.03-.1.02,0,0-.01,0-.02,0ZM25.88,38.09s-.02-.06-.03-.09c-.04.02-.08.05-.11.07-.05.03-.11.06-.12.08.02.08.06.17.14.24.04,0,.16-.06.18-.09,0-.06-.02-.13-.05-.21Z"/>
    <path id="Chin_Shadow_3" class="st1" d="M26.54,38.21c-.16.12-.29.19-.31.25-.02.08.07.17.11.26.09-.06.22-.1.25-.18.04-.07-.02-.17-.06-.33Z"/>
    <path id="Chin_Shadow_2" class="st1" d="M27.31,38.47c-.05-.14-.08-.38-.17-.39-.27-.04-.27.21-.33.37-.02.05-.05.1-.04.14.03.1.08.19.12.28.1-.08.2-.15.28-.23.03-.03.04-.09.05-.13.03-.01.05-.02.08-.04Z"/>
    <path id="Chin_Shadow1" class="st1" d="M27.41,37.84c.1.09.15.18.21.18.08,0,.16-.09.24-.14-.05-.05-.09-.14-.15-.15-.06-.01-.15.06-.29.11Z"/>
    <path id="Mouth_poll_up" class="st1" d="M23.18,35.65c.12.09.23.2.38.26.05.02.17-.09.26-.14-.1-.11-.19-.24-.32-.32-.04-.03-.18.06-.28.1-.01.04-.03.07-.04.11Z"/>
    <path id="Nose_Bridge" class="st1" d="M26.09,30.91c-.6-.01-1.11.12-1.58.46-.06.04-.1.18-.07.22.04.06.19.11.24.08.42-.25.87-.34,1.34-.4.06,0,.16-.12.17-.18.01-.06-.07-.13-.09-.16Z"/>
    <path id="Left_Nostril" class="st1" d="M26.47,32.77c-.19-.03-.39-.01-.47.2-.08.23.08.31.28.35.2.03.39,0,.47-.2.09-.23-.08-.31-.29-.35Z"/>
    <path id="Right_Nostril" class="st1" d="M24.76,33c-.16.14-.25.38-.05.5.08.05.29.03.39-.03.2-.13.39-.46.16-.57s-.34-.04-.5.1Z"/>
    <path id="Right_Eye_Wrinkel" class="st1" d="M18.87,31.3c-.19.47,0,1.01.39,1.25.16.1.34.18.53.23.09.02.22-.05.33-.08-.05-.09-.07-.21-.15-.27-.11-.08-.27-.11-.39-.18-.29-.18-.4-.44-.33-.78.03-.14.12-.32-.09-.33-.1,0-.24.13-.29.16Z"/>
    <path id="Mouth__x3C_Compound_Path_x3E_" class="st1" d="M28.93,35.02c-.14.04-.28.08-.42.12-.03,0-.06,0-.09-.01-.35-.04-.47.03-.6.34-.21.5-.42,1-.65,1.5-.21.45-.56.57-.97.33-.13-.08-.23-.19-.33-.3-.23-.24-.44-.49-.67-.72-.31-.31-.53-.32-.98-.07-.07.04-.12.11-.19.12-.09.02-.23.03-.27-.02-.04-.04-.02-.19.03-.24.13-.11.29-.23.46-.28.55-.18.88-.5,1-1,.05-.19.07-.38.15-.56.05-.11.17-.29.25-.3.19-.02.42,0,.56.1.25.18.42.43.65.63.42.38.99.33,1.46-.12.07-.07.13-.15.21-.19.08-.04.2-.05.25-.02.05.03.05.14.04.21,0,.06-.06.12-.06.11.07.16.12.27.17.38ZM26.02,35.55c-.07-.27-.19-.52-.29-.81-.11.26-.25.51-.32.76-.03.1.09.24.19.32M26.55,35.66s.13.04.2.03c.07-.01.13-.07.2-.11.11-.07.21-.14.32-.21-.1-.05-.21-.1-.3-.16-.22-.13-.44-.27-.66-.4-.02.01-.05.03-.07.04.11.27.21.55.33.82Z"/>
    <path class="st1" d="M14.81,32.1s2.2-1.47,2.01-1.74"/>
    <path class="st1" d="M14.53,32.28c-.09-.12-.05-.3.11-.41.79-.53,1.69-1.22,1.86-1.46,0-.1.05-.21.16-.28.15-.1.35-.08.44.05.22.31-.19.71-1.03,1.35-.53.4-1.07.77-1.1.78-.09.06-.19.08-.28.06-.07-.01-.13-.05-.17-.1ZM16.54,30.54s0,0,0,0c0,0,0,0,0,0Z"/>
    <path id="White_Tooth_Right" class="st3" d="M25.73,34.74c-.11.26-.25.51-.32.76-.03.1.09.24.19.32.11.09.47.07.6.14.01-.16-.14-.26-.18-.41-.07-.27-.19-.52-.29-.81Z"/>
  </g>
</svg>